STARTFONT 2.3
FONT -FontForge-Courgette-Book-R-Normal--28-280-72-72-P-145-ISO10646-1
SIZE 28 72 72  4
FONTBOUNDINGBOX 38 36 -6 -8
COMMENT "Generated by fontforge, http://fontforge.sourceforge.net"
COMMENT "Copyright (c) 2012, Sorkin Type Co (www.sorkintype.com) with Reserved Font Name "Courgette"."
STARTPROPERTIES 41
FOUNDRY "FontForge"
FAMILY_NAME "Courgette"
WEIGHT_NAME "Book"
SLANT "R"
SETWIDTH_NAME "Normal"
ADD_STYLE_NAME ""
PIXEL_SIZE 28
POINT_SIZE 280
RESOLUTION_X 72
RESOLUTION_Y 72
SPACING "P"
AVERAGE_WIDTH 145
CHARSET_REGISTRY "ISO10646"
CHARSET_ENCODING "1"
FONTNAME_REGISTRY ""
CHARSET_COLLECTIONS "ISO8859-2 ISO8859-9 ISO8859-4 ISO10646-1"
BITS_PER_PIXEL 4
FONT_NAME "Courgette-Regular"
FACE_NAME "Courgette Regular"
COPYRIGHT "Copyright (c) 2012, Sorkin Type Co (www.sorkintype.com) with Reserved Font Name "Courgette"."
FONT_VERSION "1.002"
FONT_ASCENT 22
FONT_DESCENT 6
UNDERLINE_POSITION -3
UNDERLINE_THICKNESS 2
X_HEIGHT 13
CAP_HEIGHT 20
DEFAULT_CHAR 1
RAW_ASCENT 799
RAW_DESCENT 200
NORM_SPACE 9
RELATIVE_WEIGHT 40
RELATIVE_SETWIDTH 50
SUPERSCRIPT_X 0
SUPERSCRIPT_Y 13
SUPERSCRIPT_SIZE 18
SUBSCRIPT_X 0
SUBSCRIPT_Y 3
SUBSCRIPT_SIZE 18
AVG_LOWERCASE_WIDTH 139
AVG_UPPERCASE_WIDTH 163
ENDPROPERTIES
CHARS 407
STARTCHAR .null.dup1
ENCODING 0
SWIDTH 0 0
DWIDTH 0 0
BBX 1 1 0 0
BITMAP
00
ENDCHAR
STARTCHAR uni0001
ENCODING 1
SWIDTH 0 0
DWIDTH 0 0
BBX 1 1 0 0
BITMAP
00
ENDCHAR
STARTCHAR uni0002
ENCODING 2
SWIDTH 0 0
DWIDTH 0 0
BBX 1 1 0 0
BITMAP
00
ENDCHAR
STARTCHAR uni0003
ENCODING 3
SWIDTH 0 0
DWIDTH 0 0
BBX 1 1 0 0
BITMAP
00
ENDCHAR
STARTCHAR uni0004
ENCODING 4
SWIDTH 0 0
DWIDTH 0 0
BBX 1 1 0 0
BITMAP
00
ENDCHAR
STARTCHAR uni0005
ENCODING 5
SWIDTH 0 0
DWIDTH 0 0
BBX 1 1 0 0
BITMAP
00
ENDCHAR
STARTCHAR uni0006
ENCODING 6
SWIDTH 0 0
DWIDTH 0 0
BBX 1 1 0 0
BITMAP
00
ENDCHAR
STARTCHAR uni0007
ENCODING 7
SWIDTH 0 0
DWIDTH 0 0
BBX 1 1 0 0
BITMAP
00
ENDCHAR
STARTCHAR uni0008
ENCODING 8
SWIDTH 0 0
DWIDTH 0 0
BBX 1 1 0 0
BITMAP
00
ENDCHAR
STARTCHAR uni0009
ENCODING 9
SWIDTH 0 0
DWIDTH 0 0
BBX 1 1 0 0
BITMAP
00
ENDCHAR
STARTCHAR nonmarkingreturn
ENCODING 13
SWIDTH 0 0
DWIDTH 0 0
BBX 1 1 0 0
BITMAP
00
ENDCHAR
STARTCHAR uni0015
ENCODING 21
SWIDTH 0 0
DWIDTH 0 0
BBX 1 1 0 0
BITMAP
00
ENDCHAR
STARTCHAR uni0016
ENCODING 22
SWIDTH 0 0
DWIDTH 0 0
BBX 1 1 0 0
BITMAP
00
ENDCHAR
STARTCHAR uni0017
ENCODING 23
SWIDTH 0 0
DWIDTH 0 0
BBX 1 1 0 0
BITMAP
00
ENDCHAR
STARTCHAR uni0018
ENCODING 24
SWIDTH 0 0
DWIDTH 0 0
BBX 1 1 0 0
BITMAP
00
ENDCHAR
STARTCHAR uni0019
ENCODING 25
SWIDTH 0 0
DWIDTH 0 0
BBX 1 1 0 0
BITMAP
00
ENDCHAR
STARTCHAR space
ENCODING 32
SWIDTH 307 0
DWIDTH 9 0
BBX 1 1 0 0
BITMAP
00
ENDCHAR
STARTCHAR exclam
ENCODING 33
SWIDTH 417 0
DWIDTH 12 0
BBX 11 22 2 -1
BITMAP
00000006DE80
0000005FFF70
000001EFFC00
000008FFF300
00001FFF9000
00007FFF2000
0000DFF80000
0003FFF10000
0008FF900000
000CFF200000
001FFB000000
004FF4000000
006FD0000000
007F80000000
007F20000000
003800000000
000000000000
3DEB20000000
AFFF90000000
AFFF70000000
3EFC10000000
012000000000
ENDCHAR
STARTCHAR quotedbl
ENCODING 34
SWIDTH 437 0
DWIDTH 12 0
BBX 12 7 3 16
BITMAP
007EE600AED3
04FFF508FFE2
0AFF800EFF40
0EFD103FF900
1FF4005FE100
1FB0005F8000
0C30002C1000
ENDCHAR
STARTCHAR numbersign
ENCODING 35
SWIDTH 725 0
DWIDTH 20 0
BBX 19 21 1 0
BITMAP
0000000002BE2007E900
000000000AFE003FF700
000000001FF9009FF100
000000006FF300EFA000
00000000BFC004FF4000
00000001FF6009FD0000
00000007FE100EF70000
002CFFFFFFFFFFFFFFD0
00AFFFFFFFFFFFFFFF60
0012228FD223FF622100
000000BF9004FF100000
000000EF4008FC000000
000003FF100BF7000000
1AFFFFFFFFFFFFFFF200
6FFFFFFFFFFFFFFF9000
02226FD222CF72210000
00008F8001FF10000000
0000DF3006FA00000000
0003FD000BF500000000
0008F7001FE000000000
000BA0004E4000000000
ENDCHAR
STARTCHAR dollar
ENCODING 36
SWIDTH 545 0
DWIDTH 15 0
BBX 16 29 1 -4
BITMAP
0000000000002CE2
000000000000CFB0
000000000003FF30
000000000009F900
00000003AEFFF400
0000009FFC9BFE30
00000BFE50009FC0
00007FF500004FF2
0002FFC000005FF4
0008FF700000BFF3
000CFF500005FFF1
000EFF50004FFF90
000EFF9002FFFE20
000CFFE101CFD300
0007FFF900010000
0001EFFF40000000
00005FFFD1000000
000008FFF7000000
000000BFFD000000
04C4002EFF100000
1EF50009FF100000
5FF50008FD000000
5FFA001DF6000000
0DFFC9DF90000000
02BFFEB500000000
007FA00000000000
00CF300000000000
00FC000000000000
0063000000000000
ENDCHAR
STARTCHAR percent
ENCODING 37
SWIDTH 876 0
DWIDTH 25 0
BBX 21 21 2 0
BITMAP
0004BEEB3000000008E700
007FFCBFE1000000AFE200
06FF902FF7000008FF6000
2FFD102FF900005FF90000
8FF6005FF70003FFC00000
CFF100AFF4002EFD100000
DFC003FFC001CFE3000000
BFC01CFF300AFF50000000
5FFADFE4007FF700000000
05CEE92005FF9000000000
000000003EFB0000000000
00000001DFD1004BEEB200
0000000CFE2008FFBCFE10
0000009FF4007FF803FF60
000007FF6002FFC003FF80
00004FF90009FF5006FF60
0002EFB0000DFE000BFF30
001DFC10000EFB004FFB00
00BFD100000CFB01DFE200
07FE30000006FFADFE4000
0DD3000000006DFD910000
ENDCHAR
STARTCHAR ampersand
ENCODING 38
SWIDTH 563 0
DWIDTH 16 0
BBX 15 21 1 0
BITMAP
00000017CEFD9200
000007FFFC9AEE10
0000BFFD40005F90
000AFFD200004FD0
004FFF300001CFD0
00BFF800002CFF90
01FFF20007EFFE20
01FFD0000CFFF400
00EFE00002AA3000
008FF85730000000
0009FFFFF1000000
003CFFFB70000000
03EFFC4000000000
1DFFB10287433670
7FFD100CFFFFFF90
CFF50000AFFEC700
FFF000005FF10000
FFF10000AFC00000
BFF70008FF300000
3EFFCADFE4000000
029DFEC710000000
ENDCHAR
STARTCHAR quotesingle
ENCODING 39
SWIDTH 231 0
DWIDTH 7 0
BBX 6 7 3 16
BITMAP
007EE6
04FFF5
0AFF80
0EFD10
1FF400
1FB000
0C3000
ENDCHAR
STARTCHAR parenleft
ENCODING 40
SWIDTH 478 0
DWIDTH 13 0
BBX 14 32 3 -7
BITMAP
00000000000056
00000000005DF7
0000000009FE40
00000001BFD200
0000000CFD2000
000000AFE30000
000008FF500000
00004FF9000000
0001DFD1000000
0008FF50000000
001FFC00000000
008FF500000000
01EFD000000000
07FF8000000000
0CFF3000000000
2FFD0000000000
5FFA0000000000
8FF70000000000
BFF50000000000
DFF30000000000
DFF20000000000
EFF10000000000
DFF20000000000
CFF30000000000
9FF40000000000
6FF70000000000
2FFB0000000000
0BFF1000000000
04FF7000000000
00BFE100000000
001DFC10000000
0002BE40000000
ENDCHAR
STARTCHAR parenright
ENCODING 41
SWIDTH 478 0
DWIDTH 13 0
BBX 14 32 -3 -7
BITMAP
00000000640000
00000003FF9000
000000004FF700
0000000009FF20
0000000002FF90
0000000000BFF1
00000000007FF6
00000000004FF9
00000000002FFD
00000000001FFE
00000000000FFF
00000000000FFF
00000000001FFF
00000000002FFE
00000000004FFB
00000000007FF9
0000000000AFF5
0000000000EFF1
0000000004FFB0
0000000009FF50
000000001EFD00
000000007FF600
00000001EFE100
00000008FF5000
0000003FFA0000
000000CFE10000
000009FF400000
00007FF6000000
0006FF70000000
007FF500000000
1AFD3000000000
9D710000000000
ENDCHAR
STARTCHAR asterisk
ENCODING 42
SWIDTH 518 0
DWIDTH 15 0
BBX 11 11 3 10
BITMAP
000004DE7000
00000CFF7000
03602FFB0000
0BE24FE21410
08FD7F88EFC0
01CFFFDFFEA0
001CFFE71000
007FEEF40000
07FC26FE3000
1FA100CFB000
1600003E6000
ENDCHAR
STARTCHAR plus
ENCODING 43
SWIDTH 617 0
DWIDTH 17 0
BBX 14 14 2 3
BITMAP
000000AA000000
000003FC000000
000003FC000000
000003FC000000
000003FC000000
000003FC000000
48888AFE888885
DFFFFFFFFFFFE7
000003FC000000
000003FC000000
000003FC000000
000003FC000000
000003FC000000
000002E5000000
ENDCHAR
STARTCHAR comma
ENCODING 44
SWIDTH 312 0
DWIDTH 9 0
BBX 6 8 0 -4
BITMAP
04DE80
0BFFF2
05FFF3
00EFF1
00EF90
06FD10
3EE300
DA2000
ENDCHAR
STARTCHAR hyphen
ENCODING 45
SWIDTH 452 0
DWIDTH 13 0
BBX 9 3 2 7
BITMAP
0122222210
3EFFFFFFA0
8FFFFFFD30
ENDCHAR
STARTCHAR period
ENCODING 46
SWIDTH 270 0
DWIDTH 8 0
BBX 6 5 0 -1
BITMAP
09ED70
3FFFF1
3FFFE0
0AFF50
002100
ENDCHAR
STARTCHAR slash
ENCODING 47
SWIDTH 405 0
DWIDTH 11 0
BBX 20 30 -3 -5
BITMAP
00000000000000000470
00000000000000006FF1
0000000000000002EF90
000000000000000AFE10
000000000000004FF600
00000000000000CFC000
00000000000006FF4000
0000000000001EFA0000
0000000000008FF20000
000000000002FF800000
00000000000AFE100000
00000000003FF6000000
0000000000CFC0000000
0000000005FF40000000
000000000DFB00000000
000000007FF200000000
00000001EF9000000000
00000009FE1000000000
0000002FF70000000000
000000BFD00000000000
000004FF500000000000
00000CFB000000000000
00006FF3000000000000
0001EF90000000000000
0008FE10000000000000
002EF700000000000000
00AFD000000000000000
03FF5000000000000000
0CFB0000000000000000
2EB20000000000000000
ENDCHAR
STARTCHAR zero
ENCODING 48
SWIDTH 621 0
DWIDTH 17 0
BBX 17 21 1 0
BITMAP
0000000006BEEC6000
00000003DFFAAFF700
0000005FFC2008FE10
000005FFD10004FF50
00003EFE200004FF70
0000CFF6000005FF70
0006FFC0000008FF60
001EFF4000000BFF40
007FFC0000001FFF10
00DFF60000005FFD00
03FFE1000000BFF800
07FF90000002FFF300
0BFF50000008FFC000
0EFF1000001EFF5000
1FFD0000008FFB0000
2FFA000003FFF30000
2FF800000CFF800000
1FF80000AFFB000000
0BFC0019FFB0000000
04FFC9EFF800000000
003BEFD82000000000
ENDCHAR
STARTCHAR one
ENCODING 49
SWIDTH 405 0
DWIDTH 11 0
BBX 10 21 2 0
BITMAP
0000009E90
00002CFFF5
0004EFFFF5
02AFFFFFF2
06FFC4EFE0
003204FFA0
000009FF50
00000EFE00
00004FF900
0000AFF300
0001EFC000
0005FF6000
000BFE1000
002FF80000
008FF10000
00EF900000
06FE100000
0CF8000000
4FD1000000
AF30000000
D500000000
ENDCHAR
STARTCHAR two
ENCODING 50
SWIDTH 524 0
DWIDTH 15 0
BBX 15 21 0 0
BITMAP
00000005BEED8100
000002CFFAAEFC10
00001DFE3002FF70
00009FF60000BFC0
0001FFF10000CFD0
0004FFF00001FFC0
0004FFF80008FF90
0000DFF8003FFF30
0000164002DFF900
000000001CFFD100
00000001CFFE2000
0000001CFFE30000
000001CFFD300000
00001CFFC1000000
0001CFF900000000
000CFF6000000000
009FE40000000000
06FD200000174000
2FFBCDDDDEFF7000
9FFDCEFFFFFF3000
6D500049DFC50000
ENDCHAR
STARTCHAR three
ENCODING 51
SWIDTH 537 0
DWIDTH 15 0
BBX 15 21 1 0
BITMAP
00000029DFEB4000
000008FFC9CFF600
00009FF7000BFE10
0006FF800006FF40
000DFF100006FF50
002FFF100009FF40
003FFF90001EFF10
000DFF9000AFFA00
0001750009FFE200
00000002CFFF5000
000003AFFFF50000
00000EFFFC300000
00001CCEFE400000
00000002FFC00000
00000000DFF10000
08DA0000EFF00000
7FFA0004FFB00000
CFF2000CFF500000
BFF101BFF9000000
4FFDAEFF80000000
04BEED9200000000
ENDCHAR
STARTCHAR four
ENCODING 52
SWIDTH 529 0
DWIDTH 15 0
BBX 14 21 1 0
BITMAP
00000BE5000000
00000EFF100000
00002FFF100000
00006FFD000000
0000BFF8000000
0002FFF2003610
0009FFA000AFC0
001EFF3000EFF2
009FF90002FFE0
02FFE10007FF90
0AFF60000CFF30
3FFB00003FFB00
5FF610119FFD91
0DFFFFFFFFFFF8
0168876BFF3011
0000001EFA0000
0000006FF20000
000000DF800000
000006FD100000
00000DF4000000
00003E50000000
ENDCHAR
STARTCHAR five
ENCODING 53
SWIDTH 540 0
DWIDTH 15 0
BBX 16 21 1 0
BITMAP
000000BEB86557BC
000004FFFFFFFFFC
000009FE5AEFFFF4
00001EFA00035520
00006FF400000000
0000DFC000000000
0005FF4000000000
000DFEAEFD910000
005FFFD9CFFD1000
00AFF8000BFF6000
006F700007FFA000
0001000006FFB000
0000000008FFA000
000000000BFF8000
069400001FFF3000
7FF600007FFC0000
EFD00001EFF30000
FFA0000BFF800000
CFC001AFF9000000
4FFCAEFF80000000
03BEFD9200000000
ENDCHAR
STARTCHAR six
ENCODING 54
SWIDTH 554 0
DWIDTH 16 0
BBX 15 21 1 0
BITMAP
0000000039DFD700
00000019FFD9DF80
000001CFF6003FE0
00001CFF50007FF0
0000AFF70007FFC0
0005FFB0005FFF60
000DFF30001BD700
006FFA0000000000
00CFF30478500000
03FFD4DFFFFB1000
07FFDFC416FF8000
0BFFFC1000DFE000
0EFFF20000CFF100
0FFF900000DFF100
1FFF400001FFE000
1FFF000006FFA000
0EFE00000DFF4000
0BFE00008FFA0000
06FF4007FFC00000
00BFE9CFF9000000
0007DFEA40000000
ENDCHAR
STARTCHAR seven
ENCODING 55
SWIDTH 473 0
DWIDTH 13 0
BBX 13 22 3 -1
BITMAP
5D7310148CE800
6FFFFFFFFFFF40
2EFFFFFE99FF20
03ACB8403FF800
00000001DFC000
0000000BFF3000
0000008FF60000
000004FFB00000
00001EFE100000
0000AFF5000000
0005FFA0000000
001EFE20000000
009FF700000000
02FFE100000000
0AFF7000000000
1FFF1000000000
6FFA0000000000
BFF60000000000
DFF20000000000
DFF00000000000
5FE00000000000
01200000000000
ENDCHAR
STARTCHAR eight
ENCODING 56
SWIDTH 524 0
DWIDTH 15 0
BBX 15 21 1 0
BITMAP
0000003AEFDA2000
000007FEAAFFE400
00006FD2005FFD00
0001EF50000CFF40
0006FF10000AFF60
0009FF10000AFF50
000AFF30000CFF20
0008FF90004FFC00
0005FFE101DFF300
0001EFFA3DFF5000
00008FFFFFD30000
00001EFFF7000000
0006DFFFF8000000
01AFE77FFE100000
0BFE200AFF500000
4FF60002FF800000
9FF30000CF800000
9FF40000DF500000
5FFA0006FC000000
0BFFC9BFC2000000
007DFEC700000000
ENDCHAR
STARTCHAR nine
ENCODING 57
SWIDTH 554 0
DWIDTH 16 0
BBX 15 21 1 0
BITMAP
00000016CEEC5000
000004EFE9BFF700
00006FFA100AFF10
0004FFC00006FF50
000DFF300007FF70
005FFB000008FF60
00AFF600000CFF50
00DFF300002FFF30
00EFF100009FFF10
00DFF20004FFFC00
00AFF6004EFFF900
003FFE9BFEEFF500
0004CEEC72EFE000
0000000005FF8000
000000000BFE2000
015200003FF70000
1DFB0000CFD10000
7FF50008FE300000
8FF2008FE4000000
3FFC9DFD30000000
04CFEB6000000000
ENDCHAR
STARTCHAR colon
ENCODING 58
SWIDTH 312 0
DWIDTH 9 0
BBX 8 14 0 -1
BITMAP
0004EEA1
000DFFF7
000DFFF5
0005EFA0
00001200
00000000
00000000
00000000
00000000
06EE9000
1FFFF400
1FFFF200
07FF8000
00110000
ENDCHAR
STARTCHAR semicolon
ENCODING 59
SWIDTH 312 0
DWIDTH 9 0
BBX 8 17 0 -4
BITMAP
0003DEB2
000CFFF8
000CFFF6
0004EFB0
00001200
00000000
00000000
00000000
00000000
04DE8000
0BFFF200
05FFF300
00EFF100
00EF9000
06FD1000
3EE30000
DA200000
ENDCHAR
STARTCHAR less
ENCODING 60
SWIDTH 637 0
DWIDTH 18 0
BBX 15 15 1 1
BITMAP
0000000000002AB0
000000000019FFA0
0000000007EFE700
00000005DFFA2000
000004CFFC400000
0002AFFE60000000
019FFF9100000000
1EFFE30000000000
06EFFC4000000000
0018FFFA20000000
00002AFFE7000000
0000003CFFD50000
000000005DFFB200
00000000007EFF70
0000000000018E90
ENDCHAR
STARTCHAR equal
ENCODING 61
SWIDTH 617 0
DWIDTH 17 0
BBX 15 7 2 7
BITMAP
6EFFFFFFFFFFFE10
4888888888888500
0000000000000000
0000000000000000
0000000000000000
9FFFFFFFFFFFFB00
6888888888888300
ENDCHAR
STARTCHAR greater
ENCODING 62
SWIDTH 606 0
DWIDTH 17 0
BBX 14 15 2 1
BITMAP
AE710000000000
8FFE6000000000
03CFFC40000000
0005DFFB300000
000018FFF91000
0000002BFFE810
000000004DFFE5
0000000003EFFD
000000019FFF81
0000007EFFA200
00004DFFC30000
002AFFD5000000
18FFE700000000
BFF81000000000
CA200000000000
ENDCHAR
STARTCHAR question
ENCODING 63
SWIDTH 516 0
DWIDTH 14 0
BBX 14 21 2 0
BITMAP
0000018DFEB300
00002DFEAAFF40
0000DFE2007FD0
0005FF90004FF2
0008FF80007FF1
0007FFC001EFE0
0001CC401CFF90
00000002DFFE10
0000005EFFE300
000008FFFC2000
00009FFF910000
0006FFF6000000
001EFE40000000
005FF400000000
006F8000000000
00291000000000
00000000000000
3DEC2000000000
BFFF9000000000
AFFF6000000000
2CE90000000000
ENDCHAR
STARTCHAR at
ENCODING 64
SWIDTH 905 0
DWIDTH 25 0
BBX 24 22 1 -4
BITMAP
000000000159CEFEDB720000
000000018EFEB999BEFFA100
0000006EF9300000017EFD10
00001AFB200000000002EFB0
0000BF900000000000004FF4
000AFA00003AEE91BE500CF8
006FD10006FFBAFDFF8009FB
01EF60006FF700AFFF1007FC
08FE0003FFB0006FF90007FC
0DF9000BFF2000AFF2000AF9
3FF5002FFC0002FFB0001EF5
6FF3007FF80009FF50006FD0
8FF1009FF5003FFF1001EF50
9FF1009FF400CEFC001CF900
8FF2006FF81AB8FC15DFA000
7FF5000CFFFA14FFFFD60000
3FFA00006740004884000000
0CFF30000000000000000000
03FFD2000000000000000000
005FFE600000014400000000
0003DFFEB99ACFE400000000
0000049CEFECA61000000000
ENDCHAR
STARTCHAR A
ENCODING 65
SWIDTH 615 0
DWIDTH 17 0
BBX 22 21 -3 0
BITMAP
000000000000000028CED1
0000000000000007FFFFF1
00000000000001AFC5EFB0
0000000000001CF906FF60
000000000001CF800DFE10
00000000000AFA005FFA00
00000000007FD100BFF400
0000000003FF4002FFE000
000000000CF90007FF8000
000000007FE1000DFF3000
00000002EFDBDEFFFFFE40
000003BFFFFFFFFFFFFE20
00000DEFF87777EFF85100
000000CFA00001FFE00000
000006FF200004FFB00000
00001EF9000007FF700000
00009FE200000AFF400000
0004FF8000000CFF300000
004EFC0000000BFF748000
19FFE200000008FFFFB000
2CEA2000000001AEE91000
ENDCHAR
STARTCHAR B
ENCODING 66
SWIDTH 551 0
DWIDTH 15 0
BBX 16 21 1 0
BITMAP
000158BDFFEC8300
008EFFFDA9ADFF70
08FFF9300000AFF4
02AA278100003FFA
00005FFD00002FFC
0001DFFA00005FFB
0008FFE20000BFF7
001FFF700007FFD1
007FFD00007FFE40
00DFF5005CFFE400
05FFF9BEFFFB2000
0AFFFFFFFFC10000
0EFE85116EFC1000
3FF9000007FF6000
6FF5000004FF9000
8FF1000006FF8000
AFD000000CFF4000
AFC000009FFB0000
8FE2003BFFB10000
2EFEBCFFE7000000
03BEEDA610000000
ENDCHAR
STARTCHAR C
ENCODING 67
SWIDTH 533 0
DWIDTH 15 0
BBX 16 21 1 0
BITMAP
0000000017CEEB30
00000007EFFB9EF3
000001BFFB2006FA
00001CFF900006FE
0000BFFA00000CFE
0007FFD100007FFC
002FFF400006FFF6
00AFFA00008FFFC0
02FFF30000CFFD10
09FFC00000298100
0EFF600000000000
3FFF100000000000
6FFD000000000000
8FFB000000000000
9FF9000000000000
AFF9000000000000
8FFA000000000000
5FFE000001980000
0DFF60004DFA0000
03EFFA9DFFD30000
0029DEFDA5000000
ENDCHAR
STARTCHAR D
ENCODING 68
SWIDTH 630 0
DWIDTH 18 0
BBX 18 21 1 0
BITMAP
00048BDEFEDA610000
01DFFFFC99AEFE6000
01DFF82000019FF800
0017301100000AFF40
00000AFF700002FFB0
00004FFF400000EFF0
0000CFFA000000DFF2
0005FFF2000000EFF1
000CFFA0000001FFF0
003FFF30000005FFC0
009FFB0000000AFF80
01EFF50000002FFF20
05FFE0000000BFFA00
0AFF90000005FFE200
0EFF3000003EFF6000
3FFE000002DFF90000
7FF900002DFFA00000
9FF60004EFF9000000
9FF4029FFE60000000
3FFBAFFFA200000000
03BEEC820000000000
ENDCHAR
STARTCHAR E
ENCODING 69
SWIDTH 509 0
DWIDTH 14 0
BBX 16 21 1 0
BITMAP
000000049DFED810
000001BFFFC9AFC0
00003DFFB2000CF3
0001DFFA00001EF5
000BFFC00000BFF3
004FFF20002CFFC0
009FFA0004EFFE30
00BFF50006FFE400
00BFF30000672000
008FF50000000000
001EFE8A92000000
0003EFFFF8000000
004EFFFA51000000
04FFFD3000000000
1EFFC10000000000
8FFE100000000000
BFF8000003B00000
DFF500003EF20000
9FF80006EFC00000
1DFFA9DFFA100000
018CEED930000000
ENDCHAR
STARTCHAR F
ENCODING 70
SWIDTH 518 0
DWIDTH 15 0
BBX 18 21 0 0
BITMAP
0007CFEDCA865325C4
00BFFFFFFFFFFFFFF1
05FFFFEDDFFEFFFC40
06FF91006FF2000000
01DC0001EFB0000000
00010006FF60000000
0000000DFF10000000
0000003FFC00000000
0000008FF700000000
000000DFFBCC810000
000018FFFFFFFA0000
0005EFFFFFFFFA0000
0005BFFF6110000000
00004FFE0000000000
0000BFF80000000000
0002FFE10000000000
0009FF800000000000
003FFE100000000000
01CFF4000000000000
0BFF60000000000000
1DD500000000000000
ENDCHAR
STARTCHAR G
ENCODING 71
SWIDTH 598 0
DWIDTH 17 0
BBX 17 21 1 0
BITMAP
0000000017CEEC4000
00000006EFFB9DF400
000000AFFC2005FC00
00000BFFB00005FF00
0000AFFC00000BFF10
0006FFE200006FFD00
001EFF600006FFF700
009FFC00007FFFC000
02FFF50000AFFD2000
07FFD0000018710000
0CFF80000000000000
1FFF30000452015300
5FFE0000AFFFFFF700
7FFB0001CFFFFFE200
8FF9000006FFEA2000
9FF8000001FF200000
7FF9000004FD000000
4FFC00000BF5000000
0DFF50009FA0000000
03EFFA9DF900000000
0029DFEA3000000000
ENDCHAR
STARTCHAR H
ENCODING 72
SWIDTH 668 0
DWIDTH 19 0
BBX 21 21 -1 0
BITMAP
00018CEFD700000001DD30
0004FFCDFF30000004FFA0
0000440BFF40000008FF80
0000000EFF3000000BFF40
0000002FFF0000001FFE10
0000005FFC0000005FFA00
0000009FF8000000AFF500
000000EFF4000001EFE000
000003FFE0000005FF8000
000019FFEBDEEFFFFFE700
0004EFFFBA999ACFFFB200
0002AFFD0000008FF40000
00009FF7000000DFD00000
0001EFF1000003FF800000
0006FF90000009FF300000
000DFF2000000EFD000000
006FF90000004FF8000000
01EFE10000008FF5000000
0AFF50000000AFF7570000
9FF7000000008FFFF70000
CD60000000001CFC600000
ENDCHAR
STARTCHAR I
ENCODING 73
SWIDTH 327 0
DWIDTH 9 0
BBX 11 21 -1 0
BITMAP
00006BEFD800
0000DFEBFF80
00001615FFA0
00000007FFA0
0000000BFF70
0000000EFF40
0000002FFF10
0000006FFC00
000000BFF800
000001FFF300
000005FFD000
00000AFF8000
00001EFF3000
00006FFC0000
0000CFF50000
0004FFD00000
000BFF500000
005FFB000000
02EFE2000000
1DFF40000000
2EC300000000
ENDCHAR
STARTCHAR J
ENCODING 74
SWIDTH 393 0
DWIDTH 11 0
BBX 17 29 -5 -8
BITMAP
00000000038CFEC710
00000003BFFFCBFFA0
0000003EFFD405FFD0
0000006FFC1007FFC0
0000000791000AFF90
0000000000000EFF60
0000000000003FFF30
0000000000007FFE00
000000000000BFFA00
000000000001FFF500
000000000006FFE100
00000000000BFFA000
00000000001FFF5000
00000000007FFE1000
0000000000DFF90000
0000000004FFF20000
000000000BFFB00000
000000003FFF400000
00000000AFFC000000
00000003FFF4000000
0000000BFFB0000000
0000004FFF20000000
000001DFF700000000
000009FFC000000000
00005FFE2000000000
0004FFE30000000000
005FFE300000000000
2AFFD3000000000000
9FC700000000000000
ENDCHAR
STARTCHAR K
ENCODING 75
SWIDTH 616 0
DWIDTH 17 0
BBX 21 21 -2 0
BITMAP
00004ADFD70000005EC300
0000EFEBFF7000003FFD00
00003714FFB000001FFF20
00000007FFB000003FFF10
0000000AFF8000008FFC00
0000000DFF600002EFF400
0000001FFF20000CFF9000
0000005FFE0000AFF90000
000000AFFA001BFF800000
000000EFF602CFE4000000
000004FFF14EFB20000000
000009FFC7FF7000000000
00000EFFEFF90000000000
00005FFF4EFF6000000000
0000BFFA04FFF300000000
0003FFF3009FFD00000000
000AFFA0001EFF80000000
004FFE200007FFF4000000
01DFF6000000CFFE200000
1CFF900000002DFFE98000
2ED600000000019EFC5000
ENDCHAR
STARTCHAR L
ENCODING 76
SWIDTH 517 0
DWIDTH 15 0
BBX 17 21 -1 0
BITMAP
00000000003AEEB200
0000000007FFC9ED10
000000007FF9008F70
00000003FFD0007FA0
0000000CFF4000CFB0
0000005FFC0005FF80
000000DFF6003EFF30
000004FFE104EFFA00
00000BFF907FFFE200
00001FFF307FFD3000
00007FFC0005710000
0000CFF60000000000
0003FFE10000000000
0008FF800000000000
000DFF200000000000
005FF9000000000000
00BFE1000000000000
05FF50014676100000
3EFB7BEFFFFFF40000
8FFFFFFFFFFFFC0000
2DEC96421125BD0000
ENDCHAR
STARTCHAR M
ENCODING 77
SWIDTH 931 0
DWIDTH 26 0
BBX 30 21 -3 0
BITMAP
0000000000000018DF90000004BEC1
00000000000004EFFFE000008FFFF2
0000000000004ED9FF900008FCEFC0
000000000003EE2CFF30005FE6FF70
00000000001DF53FFC0002EF4AFF20
0000000000AFA09FF7000BF91FFC00
0000000005FE20DFF2005FE17FF700
000000001DF703FFC001DF60CFF200
000000008FD008FF8007FC03FFC000
00000002EF500CFF401EF408FF8000
00000009FC000FFF008FB00CFF3000
0000003FF4003FFB01EF302FFE0000
000000BFB0007FF908FB006FF90000
000004FF30009FF61EF300AFF60000
00000DFA0000BFF38FA000DFF20000
00007FF20000CFF3EF2001FFE00000
0003FF800000CFF9F90003FFC00000
001CFD100000CFFFE10003FFB00000
00AFF4000000BFFF600002FFE44800
6DFF700000009FFB000000BFFFFA00
9ED6000000002DC10000002BFE9100
ENDCHAR
STARTCHAR N
ENCODING 78
SWIDTH 708 0
DWIDTH 20 0
BBX 22 21 0 0
BITMAP
000000002AEC000005ED60
00000003EFFE00000AFFF4
0000001DFFFB000001EFF9
000000BFDFF9000000BFFA
000005FE6FF8000000AFF8
00000DF66FF8000000CFF4
00006FD07FF8000000FFD0
0000DF607FF9000004FF70
0006FE106FFA000009FE10
000CF9005FFC00001EF800
003FF4004FFE00007FE100
009FE0001FFF1000EF7000
00EF90000EFF4006FD0000
04FF40000BFF800DF50000
08FF100007FFC05FC00000
0DFB000002FFF1BF400000
1FF8000000DFF9FC000000
4FF40000007FFFF5000000
6FF20000001EFFD0000000
6FE000000006FFA0000000
1CB0000000007E70000000
ENDCHAR
STARTCHAR O
ENCODING 79
SWIDTH 655 0
DWIDTH 18 0
BBX 18 21 1 0
BITMAP
0000000005ADFDA300
00000004DFFC9CFF50
0000007FFE5000AFE1
000008FFE200004FF7
00006FFF3000002FFA
0002FFF60000002FFC
000BFFB00000004FFC
005FFF300000006FFA
00CFFA00000000AFF8
03FFF300000000EFF4
08FFC000000005FFE1
0CFF600000000BFFA0
1FFF200000004FFF30
3FFD00000000BFFB00
4FFA00000004FFF300
4FF90000001DFF7000
3FF9000000AFFB0000
0EFB000008FFC10000
08FF4001AFFB100000
00BFEAAEFF70000000
0006CEEC8200000000
ENDCHAR
STARTCHAR P
ENCODING 80
SWIDTH 553 0
DWIDTH 16 0
BBX 19 21 -1 0
BITMAP
00000027ADEFEC830000
00002BFFFFDA9CFF9000
0000DFFF9300005FF900
0000EFD30000000BFF20
00002814EB100009FF50
0000000DFF30000BFF40
0000006FFC00002FFF20
000000CFF60000BFFB00
000003FFE10008FFF300
000009FF9001AFFF5000
00000EFF317EFFE40000
00005FFFCFFFE8100000
0000AFFFEDA510000000
0001FFE1000000000000
0007FF90000000000000
000EFF20000000000000
006FFA00000000000000
01EFE200000000000000
0AFF5000000000000000
8FF80000000000000000
BE600000000000000000
ENDCHAR
STARTCHAR Q
ENCODING 81
SWIDTH 655 0
DWIDTH 18 0
BBX 19 26 2 -5
BITMAP
000000017CEFD8100000
0000007FFFB9DFD20000
00001CFFA2000CFA0000
0001CFF8000007FF2000
000BFFA0000005FF6000
007FFC00000006FF8000
01EFF300000008FF8000
08FF900000000BFF6000
0EFF200000001FFF3000
4FFC000000006FFE0000
8FF700000000CFF80000
BFF400000006FFF20000
CFF40000001DFF700000
CFF50000009FFC000000
BFF9000005FFE3000000
6FFF40003EFF40000000
0CFF9003EFF600000000
0187105EFE5000000000
00003AFFC30000000000
007CFFFF710000000000
03EFFFFFFE8100000000
0000026CFFFE60000000
000000005EFFFD620610
00000000019FFFFFFF10
0000000000039EFFE500
00000000000000220000
ENDCHAR
STARTCHAR R
ENCODING 82
SWIDTH 623 0
DWIDTH 17 0
BBX 19 22 -1 -1
BITMAP
00000037ADEFED930000
00002BFFFEB99BFF9000
0000CFFD6100003EFA00
00006E9176000008FF30
00000006FF600006FF70
0000001EFF300008FF70
0000006FFC00000DFF50
000000CFF700007FFE10
000003FFF10005FFF600
000008FFB0007FFF8000
00000DFF616DFFF60000
00004FFFDFFFFB300000
00009FFCEFF930000000
0001EFF32FFB00000000
0006FFC009FF70000000
000DFF5002FFE1000000
005FFC0000AFF9000000
00DFF300002FFF300000
08FF8000000AFFD10000
6FFB00000001DFFE9700
8E80000000002CFFE300
00000000000000231000
ENDCHAR
STARTCHAR S
ENCODING 83
SWIDTH 474 0
DWIDTH 13 0
BBX 16 21 0 0
BITMAP
00000004BEFD9200
000000AFFC9BFE30
00000BFE50008FC0
00008FF500003FF3
0001FFC000005FF5
0007FF700000AFF4
000BFF500004FFF1
000DFF50005EFF90
000DFF9001FFFE20
000AFFE1007EB200
0006FFF900000000
0000DFFF40000000
00003FFFD1000000
000007FFF8000000
000000AFFE000000
03C4001EFF200000
1EF60008FF200000
4FF60007FD000000
3FFB001CF6000000
0BFFC9DF70000000
018DFEA300000000
ENDCHAR
STARTCHAR T
ENCODING 84
SWIDTH 471 0
DWIDTH 13 0
BBX 17 21 1 0
BITMAP
004BEFEDB975323A80
06FFFFFFFFFFFFFF50
1FFFFEDDFFFFFFD700
2FFC3001EFD0000000
0BF20006FF80000000
0020000CFF30000000
0000002FFE00000000
0000007FF900000000
000000CFF500000000
000002FFF100000000
000006FFB000000000
00000BFF6000000000
00001FFF1000000000
00005FFA0000000000
0000AFF50000000000
0001FFD00000000000
0007FF600000000000
001EFD000000000000
009FF4000000000000
08FF70000000000000
2DD600000000000000
ENDCHAR
STARTCHAR U
ENCODING 85
SWIDTH 624 0
DWIDTH 17 0
BBX 20 21 0 0
BITMAP
000006DFB10000003EC1
000009FFF6000000BFF5
000000EFF4000004FFD0
000001FFF100000CFF70
000006FFB000004FFE10
00000CFF500000CFF900
00004FFE000005FFF400
0000BFF700000DFFD000
0002FFE100005FFF8000
0009FF900000DFFF3000
001EFF200007FFFD0000
007FFA00001EFFF80000
00DFF300009FFFF30000
04FFC00003FCEFD00000
0AFF60000CF5FF900000
0EFF10008F67FF600000
4FFB0004FA0AFF300000
6FFA003EC00CFF200000
6FFD36EC100BFF748000
2FFFFFB10007FFFFB000
05DFC60000019EE81000
ENDCHAR
STARTCHAR V
ENCODING 86
SWIDTH 587 0
DWIDTH 16 0
BBX 19 22 2 0
BITMAP
000000000000006ED300
016BEEA2000000DFFD00
2EFFFFFD1000005FFF20
5FFFFEFF6000001FFF30
07A514FF7000001FFF10
00000DFF3000006FFB00
00007FFC000001DFF500
0001EFF4000008FFC000
0008FFC000003FFF3000
001EFF400001DFF60000
007FFB00000BFFA00000
00EFF400009FFB000000
05FFC00007FFC1000000
0AFF50006FFC10000000
0EFE0005FFB100000000
4FF9004FFA0000000000
8FF403EFA00000000000
AFF22EF9000000000000
AFF1CF90000000000000
8FFBFA00000000000000
2FFFB000000000000000
06EC1000000000000000
ENDCHAR
STARTCHAR W
ENCODING 87
SWIDTH 941 0
DWIDTH 26 0
BBX 26 21 2 0
BITMAP
028CEE80000000000000008EC1
6FFFFFF900000000000006FFF7
AFFFFEFF10000000000002FFFB
1A9409FF30000000000000BFFD
00003FFD000000065000008FFE
0000CFF7000003DFF500007FFD
0005FFE100006FFFB000007FFB
000DFF800007FFFD1000009FF8
005FFE10007FFFF4000000BFF5
00CFF80006FFFFB0000001EFE1
04FFE1004FFFFF40000005FFA0
09FF8002EFBEFE0000000AFF30
1EFF200CFB6FF90000002FFB00
5FFA008FD19FF6000000AFF300
9FF504FE20CFF2000003FF8000
DFF11DF500EFF000000CFC0000
EFC09F8000FFE000009FD20000
FFB3FB0000DFD00007FE300000
DFCCE20000AFF1009FD3000000
7FFF5000004FFD9EF910000000
0AE800000005DFD93000000000
ENDCHAR
STARTCHAR X
ENCODING 88
SWIDTH 552 0
DWIDTH 15 0
BBX 22 21 -2 0
BITMAP
0000000007D60000006DFB
000000008FF500001CFFE5
00000000EFF40001DFFA10
00000001FFF2001CFF7000
00000001FFF100AFF70000
00000001FFF107FF700000
00000000FFF23FF9000000
00000000DFF3DFC0000000
00000000BFFCFE10000000
000000009FFFF400000000
000000006FFF7000000000
000000006FFD0000000000
00000001EFFF1000000000
0000000BFFFF5000000000
0000008FEAFFA000000000
000006FF64FFF100000000
00005FF900EFF800000000
0006FFB0008FFF30000000
007FFC10001EFFE7980000
2BFFB1000005FFFFF40000
4EE7000000004CFC500000
ENDCHAR
STARTCHAR Y
ENCODING 89
SWIDTH 580 0
DWIDTH 16 0
BBX 20 29 0 -8
BITMAP
000007DFB10000004EB1
00000AFFF5000000CFF3
000000FFF3000005FFC0
000002FFE000000DFF50
000007FFA000006FFD00
00000DFF400000DFF800
00005FFD000006FFF200
0000CFF600000DFFC000
0003FFE100007FFF7000
000AFF700001EFFF1000
002FFE100008FFFB0000
008FF900002FFFF60000
00EFF20000AFFFF10000
05FFB00004FDFFA00000
0BFF50001DE9FF500000
1FFE00009F5CFE000000
5FFA0005F93FF8000000
7FF8004EB0AFF2000000
7FFC37FC13FFA0000000
3FFFFFA10AFF30000000
05DFC5003FFB00000000
00000000BFF200000000
00000006FF8000000000
0000002EFC0000000000
000001CFE20000000000
00001BFF500000000000
0002CFF6000000000000
018EFE40000000000000
06ED8100000000000000
ENDCHAR
STARTCHAR Z
ENCODING 90
SWIDTH 501 0
DWIDTH 14 0
BBX 18 21 -1 0
BITMAP
00006C6200146ADE80
00006FFFFFFFFFFFF6
00002FFFFFFFB6BFFA
000004BDDA620AFFF3
0000000000009FFF70
000000000008FFF900
00000000007FFFA000
0000000006FFFA0000
000000005FFFB00000
00000004FFFB000000
0000003EFFB0000000
000002EFFB00000000
00001DFFB100000000
0000BFFC1000000000
0009FFC10000000000
005FFD100000000000
02EFE2000000000000
0BFF50258BCC800000
3FFA7CFFFFFFF80000
4FFFFFFFFFFFFE0000
0BFD964210139E1000
ENDCHAR
STARTCHAR bracketleft
ENCODING 91
SWIDTH 396 0
DWIDTH 11 0
BBX 15 30 0 -5
BITMAP
0000000000677620
0000000009FFFD50
000000000EFF5000
000000005FFA0000
00000000AFF40000
00000001EFD00000
00000005FF800000
0000000AFF300000
0000001FFC000000
0000006FF7000000
000000BFF2000000
000001FFC0000000
000006FF60000000
00000CFF20000000
00002FFB00000000
00007FF600000000
0000CFF100000000
0002FFB000000000
0008FF6000000000
000DFF1000000000
003FFB0000000000
008FF60000000000
00DFF10000000000
04FFA00000000000
09FF500000000000
0EFE100000000000
4FFA000000000000
AFF6000000000000
EFFB830000000000
BFFED60000000000
ENDCHAR
STARTCHAR backslash
ENCODING 92
SWIDTH 464 0
DWIDTH 13 0
BBX 10 30 1 -5
BITMAP
4500000000
9F90000000
6FE0000000
2FF3000000
0DF7000000
09FB000000
06FE000000
02FF300000
00DF700000
009FB00000
005FE00000
001FF30000
000DF70000
0009FB0000
0005FE0000
0001FF4000
0000CF7000
00008FB000
00005FF000
00001FF400
00000CF800
000008FB00
000004FF00
000001FF40
000000CF80
0000008FB0
0000004FF1
0000001FF4
0000000BF8
00000003D8
ENDCHAR
STARTCHAR bracketright
ENCODING 93
SWIDTH 394 0
DWIDTH 11 0
BBX 15 30 -2 -5
BITMAP
0000000002688840
0000000008EFFFF0
000000000004FFC0
000000000006FF70
00000000000BFF20
00000000001FFB00
00000000006FF600
0000000000BFF100
0000000002FFB000
0000000007FF5000
000000000CFE1000
000000002FFA0000
000000007FF50000
00000000CFE00000
00000002FF900000
00000007FF400000
0000000CFE000000
0000002FF9000000
0000007FF4000000
000000CFD0000000
000003FF80000000
000008FF30000000
00000DFD00000000
00004FF800000000
00009FF200000000
0000EFC000000000
0005FF7000000000
000CFF2000000000
15BFFB0000000000
7EFFD40000000000
ENDCHAR
STARTCHAR asciicircum
ENCODING 94
SWIDTH 540 0
DWIDTH 15 0
BBX 13 12 2 9
BITMAP
000001DD000000
000007FF600000
00001EFFD00000
00009FFFF50000
0002FFCEFC0000
000AFE25FF4000
003FF700CFB000
00BFC0003FF300
04FE200009FB00
0CF7000001EF30
5FC00000006F90
16200000000620
ENDCHAR
STARTCHAR underscore
ENCODING 95
SWIDTH 530 0
DWIDTH 15 0
BBX 19 3 -5 -5
BITMAP
00222222222222222210
2DFFFFFFFFFFFFFFFFD0
5FFFFFFFFFFFFFFFFE60
ENDCHAR
STARTCHAR grave
ENCODING 96
SWIDTH 219 0
DWIDTH 6 0
BBX 4 7 1 15
BITMAP
4DE2
DFF3
EFF2
9FF2
2FF5
05FB
0036
ENDCHAR
STARTCHAR a
ENCODING 97
SWIDTH 541 0
DWIDTH 15 0
BBX 15 15 0 -1
BITMAP
0000004AEEA18EA0
000009FFB9FEFFE0
0001BFF6007FFF80
000AFF60005FFE10
006FFB0000AFF900
01EFF30001EFF200
06FFB00006FFB000
0BFF70000DFF5000
0EFF30006FFE0000
1FFF1001EFFA0000
0FFF000AEFF80000
0CFF107F6FFB1410
05FFCBF71FFFFF20
006DFC4009FFF700
0000000000573000
ENDCHAR
STARTCHAR b
ENCODING 98
SWIDTH 525 0
DWIDTH 15 0
BBX 13 23 1 0
BITMAP
00001DD2000000
00005FF7000000
00007FF6000000
0000BFF3000000
0000EFE0000000
0003FFA0000000
0007FF50000000
000CFE10000000
001FFA00000000
006FF429EEB300
00BFE4ED9FFE10
01FFBEB10AFF60
06FFFC1008FF90
0BFFE20009FFA0
1FFF70000AFF90
5FFD00000DFF70
9FF600003FFF20
CFE100009FFB00
DFB00003FFF300
DF90001DFF6000
9FB003DFF80000
2EFDDFFE600000
03BEFC71000000
ENDCHAR
STARTCHAR c
ENCODING 99
SWIDTH 465 0
DWIDTH 13 0
BBX 13 14 0 0
BITMAP
0000004AEFD600
00001BFFB9FF50
0002DFF500BFB0
001DFF5000EFB0
009FFA0008FF90
02FFF2004FFF20
08FFB0003EF700
0DFF6000001000
0FFF2000000000
1FFF1000000000
0EFF1000047000
0AFF70006F8000
02EFFA9DFB1000
002AEFEB500000
ENDCHAR
STARTCHAR d
ENCODING 100
SWIDTH 557 0
DWIDTH 16 0
BBX 18 23 1 0
BITMAP
000000000000005EC1
00000000000001EFE1
00000000000007FF80
0000000000000DFF20
0000000000003FFC00
0000000000009FF600
000000000000EFF100
000000000003FFB000
000000000008FF6000
0000018DFC4DFF1000
00005EFD9DFFFB0000
0005FFA102FFF60000
004FFB0000EFF10000
01EFE10003FFC00000
09FF700008FF700000
1FFE10000DFF300000
7FFA00005FFE000000
BFF60000DFFA000000
CFF40007FFF6000000
CFF3003FDFF3000000
AFF502DB7FF7480000
4FFDAEC13FFFFA0000
05CFD70007EE910000
ENDCHAR
STARTCHAR e
ENCODING 101
SWIDTH 471 0
DWIDTH 13 0
BBX 12 14 1 0
BITMAP
000003AEFD50
00008FFBBFF4
000AFF400FFA
009FF7001FFB
04FFD0006FF9
0CFF6003EFF3
4FFE104EFF80
9FFB6BFFE600
CFFFFFC71000
DFF520000000
BFF400000600
7FF90004CF20
1CFFBACFF900
018DFED94000
ENDCHAR
STARTCHAR f
ENCODING 102
SWIDTH 393 0
DWIDTH 11 0
BBX 16 27 -1 -4
BITMAP
0000000000168620
0000000005EFFFE4
000000003FFA19FD
00000000CFE109FF
00000004FF703EFD
0000000AFF20EFF7
0000001FFB006C80
0000005FF7000000
000000AFF2000000
000000EFC0000000
000003FFDCC91000
00005CFFFFFFB000
003DFFFFFFFFC000
005DBFFB11000000
00007FF700000000
0000CFF200000000
0001FFD000000000
0006FF9000000000
000BFF4000000000
001FFE1000000000
005FFA0000000000
00AFF60000000000
01FFF10000000000
07FFA00000000000
0DFF300000000000
5FFB000000000000
6FC2000000000000
ENDCHAR
STARTCHAR g
ENCODING 103
SWIDTH 526 0
DWIDTH 15 0
BBX 14 22 1 -8
BITMAP
000003AEEB2030
00008FFBAFD9FB
001AFF6004FFFA
00AFF70000EFF4
05FFC00004FFD0
0DFF500009FF80
5FFE00001EFF40
AFF900007FFE00
DFF50001EFF900
EFF30009FFF500
DFF2005FFFE100
AFF404EDFFA000
4FFDAFC7FF5000
05DEC70AFE1000
0000002FF80000
0000008FF20000
000002FF900000
00000BFE100000
00009FF5000000
002BFF80000000
1AFFF700000000
09C92000000000
ENDCHAR
STARTCHAR h
ENCODING 104
SWIDTH 555 0
DWIDTH 16 0
BBX 15 23 0 0
BITMAP
0000003EB1000000
0000008FF6000000
000000AFF6000000
000000DFF3000000
000001FFE0000000
000005FFB0000000
000008FF70000000
00000DFF20000000
00002FFC00000000
00006FF7019EE700
0000AFF21CFFFF40
0001EFC0AFEFFF60
0005FF77FA1AFF40
000AFF5FA00EFE00
001EFCDB006FF900
006FFED100DFF200
00CFFE2006FFA000
03FFF5000DFF3000
0AFF90003FFD0000
2FFF20006FF90000
9FF900007FFA4800
EFF200004FFFFC00
7E80000007EEA100
ENDCHAR
STARTCHAR i
ENCODING 105
SWIDTH 286 0
DWIDTH 8 0
BBX 9 21 0 0
BITMAP
000006EE70
00001FFFF0
00001FFFC0
000006FD30
0000000000
0000000000
0000000000
0008EFB000
000BFFF000
0003FFD000
0005FF8000
000BFF2000
002FFA0000
008FF30000
01EFB00000
06FF400000
0BFE000000
1FFA000000
3FFEA90000
1FFFFA0000
06EEA10000
ENDCHAR
STARTCHAR j
ENCODING 106
SWIDTH 281 0
DWIDTH 8 0
BBX 14 29 -5 -8
BITMAP
0000000004DFA0
000000000DFFF3
000000000CFFF1
0000000003EE50
00000000000000
00000000000000
00000000000000
00000001AEE700
00000002EFFC00
000000008FFB00
000000008FF900
00000000AFF600
00000000CFF300
00000000FFE000
00000004FFB000
00000008FF6000
0000000DFF2000
0000002FFC0000
0000007FF70000
000000DFF10000
000004FF900000
00000BFF300000
00003FFA000000
0000BFF2000000
0004FF70000000
001EFB00000000
01CFD100000000
4DFC2000000000
AE800000000000
ENDCHAR
STARTCHAR k
ENCODING 107
SWIDTH 497 0
DWIDTH 14 0
BBX 15 23 0 0
BITMAP
0000003EB1000000
0000008FF4000000
000000AFF4000000
000000DFF1000000
000001FFD0000000
000005FF90000000
000008FF50000000
00000DFF10000000
00002FFA00000000
00006FF6007EE700
0000AFF1006FFF10
0001EFA0004FFF10
0005FF5001CFF900
000AFE002CFFC100
001EF918FFE70000
006FFBEFD7100000
00CFFFFC00000000
03FFECFF20000000
0AFF67FFA0000000
2FFE01EFF6000000
9FF7007FFF97B100
EFE1000BFFFFC000
7E6000019EE91000
ENDCHAR
STARTCHAR l
ENCODING 108
SWIDTH 279 0
DWIDTH 8 0
BBX 9 23 0 0
BITMAP
000000AE60
000000FFE0
000002FFD0
000005FFA0
000008FF70
00000CFF30
00001FFD00
00005FF900
00009FF400
0000EFE000
0004FF9000
0009FF3000
000EFD0000
004FF80000
009FF30000
00EFD00000
04FF900000
09FF400000
0DFF100000
1FFD000000
1FFD3A4000
0CFFFD1000
03CFB20000
ENDCHAR
STARTCHAR m
ENCODING 109
SWIDTH 814 0
DWIDTH 23 0
BBX 22 14 0 0
BITMAP
0008EE60007DE60004CEA1
000BFFE00BFFFF006FFFF8
0004FFD0AFFEFF14FFEFFA
0005FF87FD33FE2ED35FF8
000AFF6FD107FACE20AFF3
001EFCED100DFDF403FFC0
005FFFE2005FFF700AFF40
00BFFF3000CFFA003FFC00
02FFF50005FFD1009FF500
09FFA0000CFF5000EFE000
1EFF20004FFC0002FFB000
8FF90000BFF50003FFD7B2
DFF20001FFD00000EFFFD0
6E8000009E5000004DEA20
ENDCHAR
STARTCHAR n
ENCODING 110
SWIDTH 561 0
DWIDTH 16 0
BBX 15 14 0 0
BITMAP
0008EE50007ED800
000BFFD01CFFFF60
0004FFC0BFEFFF90
0005FF89FB17FF70
000AFF7FB10CFF30
001EFCEC104FFC00
005FFFE200BFF500
00BFFF3003FFD000
02FFF50009FF6000
09FFA0000EFE1000
1EFF20003FFA0000
8FF900004FFB3720
DFF200002FFFFE10
6E80000005DEB200
ENDCHAR
STARTCHAR o
ENCODING 111
SWIDTH 514 0
DWIDTH 14 0
BBX 13 14 1 0
BITMAP
000005BEEC6000
0001BFFBAFF700
001DFF700BFF10
00CFF90009FF50
07FFD1000BFF60
1EFF50000DFF50
6FFD00002FFF20
BFF800007FFC00
EFF40000EFF700
FFF10007FFD100
EFF0002FFF4000
AFF202DFF70000
2EFC9EFE600000
03ADFD82000000
ENDCHAR
STARTCHAR p
ENCODING 112
SWIDTH 550 0
DWIDTH 15 0
BBX 17 22 -2 -8
BITMAP
00004DFB104BEE9100
00006FFF48FCAFFA00
00000CFFAF900CFF20
00000DFFFA000AFF50
00001FFFC1000BFF50
00005FFF30000DFF40
00008FFA00002FFF10
0000CFF300007FFA00
0001FFC00001EFF400
0005FF800008FFA000
0009FF70005FFD1000
000DFFB006FFD20000
003FFEFDDFFC100000
007FF39EEB50000000
00BFE0000000000000
01FFA0000000000000
06FF50000000000000
0BFF10000000000000
1FFB00000000000000
7FF600000000000000
DFE100000000000000
8E6000000000000000
ENDCHAR
STARTCHAR q
ENCODING 113
SWIDTH 533 0
DWIDTH 15 0
BBX 15 22 1 -8
BITMAP
0000029DFC301000
00006EFD9DE9FC10
0008FF9003FFFF10
007FFA0001FFFA00
03FFD10005FFF300
0CFF60000AFFC000
3FFE00001EFF6000
8FF900007FFE0000
BFF50001EFF80000
CFF40009FFF20000
CFF3004FFFC00000
9FF403ECDF600000
3FFDAFC6FF100000
05CFD70BFB000000
0000002FF6000000
0000007FF2000000
000000CFD0000000
000001FFA0000000
000003FF70000000
000003FF70000000
000001FF90000000
0000007E80000000
ENDCHAR
STARTCHAR r
ENCODING 114
SWIDTH 407 0
DWIDTH 11 0
BBX 13 14 0 0
BITMAP
001BFC2006ED30
002EFF807FFF90
0008FF74FFFF80
0008FF4ED59D20
000CFD9D100000
001FFBE3000000
005FFF80000000
00AFFC00000000
01FFF400000000
06FFC000000000
0CFF5000000000
3FFD0000000000
8FF70000000000
2CD10000000000
ENDCHAR
STARTCHAR s
ENCODING 115
SWIDTH 423 0
DWIDTH 12 0
BBX 12 14 0 0
BITMAP
000018DFEB40
0003EFC9DFF6
000DFC002FFC
003FFA000EFA
004FFD000CB2
001FFF700000
000AFFF40000
0002EFFD1000
00005FFF7000
03300AFFC000
4FC003FFC000
9FF303FF8000
5FFEBEFB0000
05CEEC600000
ENDCHAR
STARTCHAR t
ENCODING 116
SWIDTH 358 0
DWIDTH 10 0
BBX 10 18 2 0
BITMAP
00002DD200
0000AFF500
0003FFE000
000AFF7000
3DFFFFFFF9
16DFFA8740
00EFE10000
05FFA00000
09FF500000
0EFE000000
3FFA000000
6FF6000000
9FF2000000
CFE0000000
DFE0008300
CFF77DF200
7FFFFF6000
09EEA30000
ENDCHAR
STARTCHAR u
ENCODING 117
SWIDTH 553 0
DWIDTH 15 0
BBX 16 14 0 0
BITMAP
0007EF9000004EC2
0009FFF20001DFF2
0002FFF00007FFA0
0005FFB0002EFF30
000BFF60009FFB00
002FFE1003FFF500
009FF9000CFFD000
01FFF3007FFF7000
08FFB003FCFF2000
0DFF401DB9FC0000
3FFD01CD1EFA0000
5FFC4DE22FFC3600
2FFFFD301FFFFD00
07EE910006EEA200
ENDCHAR
STARTCHAR v
ENCODING 118
SWIDTH 510 0
DWIDTH 14 0
BBX 14 14 0 0
BITMAP
0006DF90008ED3
0009FFF200BFFB
0001FFF0004FFE
0005FFB0002FFD
000AFF60002FFB
001FFE00004FF8
008FF700008FF2
01EFE10000DFA0
06FF900007FE20
0BFF30003EF600
1FFE0003DF8000
2FFF227EF70000
0EFFFFFD400000
04DFEA50000000
ENDCHAR
STARTCHAR w
ENCODING 119
SWIDTH 750 0
DWIDTH 21 0
BBX 20 14 1 0
BITMAP
01AFE60000000001BEB1
02EFFF00006CC101EFF6
003FFD0002FFF1008FF9
003FFA0009FF90005FF9
007FF5003FFF20004FF7
00CFE000BFFA00005FF3
03FF8006FFF300008FD0
09FF202EFFD00000DF70
1EFB00CDFF900005FD10
6FF50AF5FF70001DF300
BFF19F62FF8000BF8000
EFDCF600FFE34CF90000
EFFF6000AFFFFF700000
7EB300001AEEA3000000
ENDCHAR
STARTCHAR x
ENCODING 120
SWIDTH 467 0
DWIDTH 13 0
BBX 16 14 -1 0
BITMAP
000009E20002AED3
00008FF3005EFE81
0000DFF305FFC200
0000DFF43EFB1000
0000CFF6CFA00000
00009FFDFB000000
00005FFFC1000000
00001FFF30000000
00003EFF60000000
0001DFFFB0000000
001CF9DFF3000000
02DFC06FFD455000
4EFC100BFFFF5000
6E910001AED60000
ENDCHAR
STARTCHAR y
ENCODING 121
SWIDTH 549 0
DWIDTH 15 0
BBX 16 22 0 -8
BITMAP
0005DFA000003ED2
0007FFF40000CFF4
0000FFF20005FFE0
0003FFD0000DFF90
0009FF80006FFF40
001EFF2001EFFD00
007FFB0008FFF800
00EFF5003FFFF300
05FFD001DDFFD000
0BFF600AE7FF7000
1FFE009F59FF2000
2FFE4BF60EFB0000
1FFFFF605FF50000
05DEB300BFD00000
00000002FF600000
0000000BFD000000
0000005FF5000000
000003EFA0000000
00002DFD10000000
0005EFE200000000
02CFFD2000000000
008A610000000000
ENDCHAR
STARTCHAR z
ENCODING 122
SWIDTH 430 0
DWIDTH 12 0
BBX 13 14 0 0
BITMAP
0009D842139E50
0009FFFFFFFFC0
00019BB97BFF90
00000000AFFD10
0000001CFFD200
000003DFFB1000
00004EFF900000
0005FFF7000000
005FFE40000000
03FFE300000000
1DFF4000000000
8FFB9DEFE50000
DFFFFFFFFF1000
4DC731149E2000
ENDCHAR
STARTCHAR braceleft
ENCODING 123
SWIDTH 424 0
DWIDTH 12 0
BBX 15 30 1 -5
BITMAP
0000000000388710
0000000006FFFE40
000000002FFE4000
000000008FF70000
00000000EFF10000
00000003FFB00000
00000007FF600000
0000000AFF300000
0000000EFE000000
0000004FFA000000
000000AFF5000000
000002FFE1000000
00000BFF70000000
0002AFFD00000000
01DFFFC200000000
03FFC50000000000
003FF50000000000
000EFC0000000000
000EFD0000000000
002FFB0000000000
007FF70000000000
00CFF20000000000
03FFC00000000000
09FF600000000000
0EFF100000000000
3FFB000000000000
7FF7000000000000
8FF6000000000000
6FFD700000000000
09EFC10000000000
ENDCHAR
STARTCHAR bar
ENCODING 124
SWIDTH 306 0
DWIDTH 9 0
BBX 3 29 3 -5
BITMAP
0BC0
6FF0
8FF0
8FF0
8FF0
8FF0
8FF0
8FF0
8FF0
8FF0
8FF0
8FF0
8FF0
8FF0
8FF0
8FF0
8FF0
8FF0
8FF0
8FF0
8FF0
8FF0
8FF0
8FF0
8FF0
8FF0
8FF0
8FE0
5E50
ENDCHAR
STARTCHAR braceright
ENCODING 125
SWIDTH 424 0
DWIDTH 12 0
BBX 15 30 -2 -5
BITMAP
0000000002786100
0000000007FFFC00
00000000001DFF20
00000000000CFF20
00000000000EFE00
00000000003FFB00
00000000008FF600
0000000000DFF100
0000000004FFB000
0000000009FF5000
000000000EFE1000
000000002FFA0000
000000004FF80000
000000002FF80000
000000000BFD1000
0000000027EFC000
00000006FFFF8000
0000004FFE610000
000000DFF5000000
000006FFA0000000
00000CFF30000000
00002FFC00000000
00006FF800000000
0000AFF400000000
0000EFF000000000
0003FFB000000000
0009FF6000000000
003FFE1000000000
49EFF60000000000
9EFD600000000000
ENDCHAR
STARTCHAR asciitilde
ENCODING 126
SWIDTH 624 0
DWIDTH 17 0
BBX 16 6 1 7
BITMAP
0002AEEB3000005B
004EFFFFE40001EC
03EFEEFFFF501CF6
0BF8009FFFFEFFC0
2FA00009FFFFFC10
2D2000006DFD7000
ENDCHAR
STARTCHAR nonbreakingspace
ENCODING 160
SWIDTH 293 0
DWIDTH 8 0
BBX 1 1 0 0
BITMAP
00
ENDCHAR
STARTCHAR exclamdown
ENCODING 161
SWIDTH 417 0
DWIDTH 12 0
BBX 11 22 0 -6
BITMAP
0000001BEB20
0000008FFF90
000000AFFFA0
0000003CFD20
000000000000
000000440000
000005F70000
00002EF20000
0000AFC00000
0003FF700000
000BFF200000
003FFC000000
009FF8000000
01EFF3000000
05FFE0000000
09FFB0000000
0DFF70000000
1FFF50000000
3FFF20000000
3FFF00000000
0DFD00000000
03D900000000
ENDCHAR
STARTCHAR cent
ENCODING 162
SWIDTH 487 0
DWIDTH 14 0
BBX 12 21 2 0
BITMAP
000000000AE6
000000008FE1
00000001EF60
00000006FD00
000018DFFC20
0005EFFCDFC0
005FFE403FF3
02FFF5005FF4
0BFF9001DFF2
3FFF200AFFB0
8FFB0004EC20
BFF700000000
DFF500000000
DFF300000000
AFF60000A800
4FFD314CF700
07FFFFFE7000
007FC8510000
00AF50000000
00EE00000000
00E900000000
ENDCHAR
STARTCHAR sterling
ENCODING 163
SWIDTH 665 0
DWIDTH 19 0
BBX 20 21 -1 0
BITMAP
000000000000029EFD60
0000000000005EFD9EF4
000000000004FFD106FB
00000000001EFF3004FD
00000000009FF90008FD
0000000002FFF2003FFA
0000000009FFB002DFF5
000000001FFF505EFFC0
000000007FFE00BFFE20
00000000DFF8002BA200
00000148FFFA85000000
00004FFFFFFFFF800000
0000175FFF4001100000
0000004FFE0000000000
0000009FF80000000000
003786EFF20000000000
09FFFFFFD10000000000
5FA11EFFFE830002A800
9F507FF9BFFFEDEFFA00
7FDAFFA007FFFFFFF400
08EEC6000028DFEB4000
ENDCHAR
STARTCHAR currency
ENCODING 164
SWIDTH 572 0
DWIDTH 16 0
BBX 16 18 1 1
BITMAP
0000017000000000
00000BF300000274
00000FF500006FFC
00000EF97866FFA1
00000BFFFFFFF800
00003EFE41DFD000
0002EFF3009FF300
000BFF70009FF500
004FFD0000BFF500
00AFF70001FFF300
00EFF30006FFE000
00FFF0000DFF7000
00EFE0008FFD0000
00AFF104FFE20000
00BFFCAFFF800000
08FBBEEC8FD00000
2FB000000AF30000
2910000002E40000
ENDCHAR
STARTCHAR yen
ENCODING 165
SWIDTH 583 0
DWIDTH 16 0
BBX 19 21 1 0
BITMAP
03CEA10000000005DE80
2EFFFB000000007FFFA0
367FFF50000008FFF900
0008FFB000006FFF8000
0000DFF10003FFF80000
00006FF5000CFF900000
00001EF9007FFB000000
000009FC02FFD1000000
000003FF0AFF40000000
000000EF5FF800000000
000000BFEFD100000000
0000009FFF5000000000
003DFFFFFFFF90000000
004CDEFFFFE910000000
000000EFF20000000000
000001FFB00000000000
02DFFFFFFFF900000000
04CEEFFFED9100000000
00001EFA000000000000
00004FF5000000000000
00005FC1000000000000
ENDCHAR
STARTCHAR brokenbar
ENCODING 166
SWIDTH 292 0
DWIDTH 8 0
BBX 3 29 3 -5
BITMAP
4D60
CF90
EF90
EF90
EF90
EF90
EF90
EF90
EF90
EF90
EF90
EF70
BC10
0000
0000
0000
4D60
CF90
EF90
EF90
EF90
EF90
EF90
EF90
EF90
EF90
EF90
EF70
BC10
ENDCHAR
STARTCHAR section
ENCODING 167
SWIDTH 583 0
DWIDTH 16 0
BBX 17 29 0 -6
BITMAP
000000000047862000
000000004DFFFFF600
00000004FFD305FF40
0000000DFF3000AFA0
0000004FFC0000BFD0
0000007FFA0004FFC0
0000008FFC005FFF80
0000006FFF11FFFD10
0000003FFF707C9100
0000000CFFD0000000
000005CFFFF6000000
00009FFACFFE000000
0008FF704FFF700000
001FFD000AFFD00000
005FFB0003FFF40000
006FFC0000BFF90000
004FFF20007FFB0000
001FFF80004FFB0000
000AFFF2006FF60000
0003FFFB03EFC00000
00008FFFFFFA100000
00001DFFF830000000
000004FFF200000000
08B000BFF500000000
7FF0006FF600000000
CFF0006FF300000000
CFF400AFC000000000
6FFE9BFD2000000000
05BEFD810000000000
ENDCHAR
STARTCHAR dieresis
ENCODING 168
SWIDTH 412 0
DWIDTH 12 0
BBX 11 4 1 17
BITMAP
3DFA001BFC20
CFFF408FFF80
CFFF207FFF50
3EE5001CF900
ENDCHAR
STARTCHAR copyright
ENCODING 169
SWIDTH 871 0
DWIDTH 24 0
BBX 22 21 2 0
BITMAP
000000005ADEFEB8200000
0000006EFFC99ADFF91000
00001BFE71000004DFC100
0002DFC2001687101CFB00
001DFB1008EFFFE302FF60
00AFD101BFF814FA009FC0
04FF300AFF7002FD004FF2
0CF9005FFB0009FC001FF4
3FF300CFF3007FF8000FF5
7FD002FFC007FFE1001FF5
AFA006FF8003ED30002FF3
CF8008FF50000000005FF0
CF8008FF4000000000AFB0
BF9006FF6000150002FF50
9FC001EFD215DD000AFC00
4FF2003DFFFFE4006FF300
0CFA000058851004EF7000
04FF70000000006FF80000
006FF91000004BFF600000
0004DFFB99ADFFA2000000
0000059DEFEB8200000000
ENDCHAR
STARTCHAR ordfeminine
ENCODING 170
SWIDTH 564 0
DWIDTH 16 0
BBX 13 13 3 8
BITMAP
00000278404820
00008FFFF9FF90
001BFE51BFFF30
00AFF3006FFB00
06FF7000BFF400
1EFD0001FFC000
6FF70008FF6000
BFF2002FFE1000
DFE000AFFA0000
EFD006FEF80000
BFF47FBCFB3500
5FFFFD1AFFFB00
07EE9103DEA100
ENDCHAR
STARTCHAR guillemotleft
ENCODING 171
SWIDTH 662 0
DWIDTH 19 0
BBX 16 11 2 3
BITMAP
0000004C300004C3
00001AFD1002AFC0
0006EFB1007EFB10
03CFF8004CFF8000
7FFE5008FFE50000
FFF3001FFF300000
8FFB0008FFB00000
09FFA0009FF90000
00AFF8000AFF8000
000AFF6000AFF600
00009E80000AE700
ENDCHAR
STARTCHAR logicalnot
ENCODING 172
SWIDTH 729 0
DWIDTH 20 0
BBX 16 9 2 2
BITMAP
2888888888888885
AFFFFFFFFFFFFFFE
00000000000008FE
00000000000008FD
00000000000009FC
0000000000000AFC
0000000000000BFB
0000000000000CFA
0000000000000AD4
ENDCHAR
STARTCHAR uni00AD
ENCODING 173
SWIDTH 833 0
DWIDTH 23 0
BBX 1 1 0 0
BITMAP
00
ENDCHAR
STARTCHAR registered
ENCODING 174
SWIDTH 742 0
DWIDTH 21 0
BBX 19 18 2 3
BITMAP
00000017BEFEC7100000
000007EFDA9ADFE50000
0000AFC4000004EF5000
000AF9049BA7102EF200
007FA1BFFDEFE207F800
02FD11CA500BF802FD00
09F60009F109F800EF00
0EE0003FB02EF300DF10
3FB0007FCAFF6000EF00
5F9000CFEFB30002FC00
6F8002FF3FD00007F800
5FA008FA0AF7001EF200
2FE01EE204FF809F9000
0CF62930005936FD1000
04FE300000008FE30000
008FF831137EFD300000
0006EFFFFFFF91000000
0000169BBA6200000000
ENDCHAR
STARTCHAR macron
ENCODING 175
SWIDTH 392 0
DWIDTH 11 0
BBX 11 3 1 16
BITMAP
001222222210
08FFFFFFFF90
1EFFFFFFFB10
ENDCHAR
STARTCHAR degree
ENCODING 176
SWIDTH 405 0
DWIDTH 11 0
BBX 10 9 3 12
BITMAP
0018DFE910
03EFD9EFA0
1EFC108FF1
8FF3008FF2
DFD000CFE0
DFA004FF90
BFD13DFD10
3EFFFFC200
0168740000
ENDCHAR
STARTCHAR plusminus
ENCODING 177
SWIDTH 617 0
DWIDTH 17 0
BBX 14 18 2 0
BITMAP
000000B9000000
000003FC000000
000003FC000000
000003FC000000
000003FC000000
000003FC000000
BFFFFFFFFFFFFA
78888AFD888882
000003FC000000
000003FC000000
000003FC000000
000003FC000000
000003FB000000
000002E5000000
00000000000000
00000000000000
48888888888885
EFFFFFFFFFFFE7
ENDCHAR
STARTCHAR twosuperior
ENCODING 178
SWIDTH 458 0
DWIDTH 13 0
BBX 12 15 2 6
BITMAP
00003BEFD800
0005FFB9FFA0
002FF9006FF2
006FF4006FF4
006FF700BFF2
001DFA06FFC0
0001305FFF40
000005FFF600
00008FFE4000
001BFFA10000
02DFE5000000
2DFC10029400
AFFDFFFFF400
9FC9AEFF9000
010000110000
ENDCHAR
STARTCHAR threesuperior
ENCODING 179
SWIDTH 430 0
DWIDTH 12 0
BBX 12 15 2 6
BITMAP
00002AEFD810
0002EFBAFFA0
000CF9009FF1
001FF5009FF3
000EFA01DFE1
0003612BFF70
000028EFF800
0000EFFE3000
00018AFF8000
055000DFE000
8FE100EFE000
CFB006FF8000
9FC25EFB1000
1AFFFE700000
002430000000
ENDCHAR
STARTCHAR acute
ENCODING 180
SWIDTH 322 0
DWIDTH 9 0
BBX 7 7 2 15
BITMAP
00006700
0001FF80
0007FF90
001EFF30
00AFF600
08FE5000
4E910000
ENDCHAR
STARTCHAR mu
ENCODING 181
SWIDTH 618 0
DWIDTH 17 0
BBX 18 22 -1 -8
BITMAP
0000002DC200002DD4
000000BFF30000AFF6
000006FFB00004FFD0
00001EFF30000DFF70
00007FFB00007FFE10
0000EFF40001EFF800
0006FFC00009FFF100
000CFF60004FFFA000
002FFF1001DFFF5000
008FFC000BECFF1000
00DFFB009F5CFF0000
03FFFE8CF70CFF8970
08FFFFFF7008FFFF40
0CFBBEC40001AFD400
1FF700000000000000
3FF400000000000000
7FF200000000000000
9FE000000000000000
BFD000000000000000
DFB000000000000000
DF9000000000000000
7E5000000000000000
ENDCHAR
STARTCHAR paragraph
ENCODING 182
SWIDTH 739 0
DWIDTH 21 0
BBX 24 25 0 -2
BITMAP
000000000000000001222221
00000000000158CEFFFFFFFA
0000000003AFFFFFFFFFFFB2
000000019FFFFFFE617FF700
0000001CFFFFFFF500CFF400
000000BFFFFFFFD001FFF000
000004FFFFFFFF8004FFB000
000009FFFFFFFF4008FF7000
00000AFFFFFFFF100BFF3000
000009FFFFFFFC001FFD0000
000004FFFFFFF8004FF90000
0000009FFFFFF5008FF40000
00000007EFFFF100CFE00000
000000000AFFC002FF900000
000000000CFF8006FF400000
000000002FFF300BFE000000
000000006FFD001FF8000000
00000000AFF8005FF3000000
00033001EFF200AFC0000000
01BFF705FFA001EF60000000
0AFFC10BFF2006FE10000000
1FFE104FF8000CF800000000
2FFA01DFC0004FE100000000
0CFF9DFB1000BF6000000000
02ADFC600002E70000000000
ENDCHAR
STARTCHAR periodcentered
ENCODING 183
SWIDTH 353 0
DWIDTH 10 0
BBX 5 5 3 6
BITMAP
1CFC40
8FFFB0
9FFF90
2DFD20
002000
ENDCHAR
STARTCHAR cedilla
ENCODING 184
SWIDTH 301 0
DWIDTH 8 0
BBX 5 7 2 -6
BITMAP
04E400
00BE10
008F70
00CF90
19FF70
EFFE10
7EC300
ENDCHAR
STARTCHAR onesuperior
ENCODING 185
SWIDTH 403 0
DWIDTH 11 0
BBX 9 15 3 6
BITMAP
000009E900
0001BFFF30
002CFFFF20
18EFEFFD00
6FD86FF800
0000AFF300
0001FFC000
0006FF6000
000DFE0000
004FF70000
00BFE10000
04FF500000
0CFB000000
4FC1000000
2610000000
ENDCHAR
STARTCHAR ordmasculine
ENCODING 186
SWIDTH 498 0
DWIDTH 14 0
BBX 11 13 3 8
BITMAP
000004785000
0003CFFFFC10
003EFD33FF90
02EFE200CFE0
0BFF5000CFF0
4FFC0000EFE0
9FF60004FFB0
DFF10009FF60
FFD0002EFE10
FFC000BFF600
CFD007FFA000
5FFABFFA0000
04BEEB400000
ENDCHAR
STARTCHAR guillemotright
ENCODING 187
SWIDTH 665 0
DWIDTH 19 0
BBX 16 11 1 3
BITMAP
009E80000AE80000
009FF80009FF8000
000AFF8000BFF700
0001CFF7001CFF70
00001DFF6001DFF6
000005FFD0005FFD
00006FFF6006FFF5
001AFFB201AFFB20
02CFE5002DFD5000
1EF81002EF810000
5B300005B3000000
ENDCHAR
STARTCHAR onequarter
ENCODING 188
SWIDTH 988 0
DWIDTH 28 0
BBX 24 23 2 0
BITMAP
000000000000000037100000
0000000000000005FF100000
000004DD3000002EF9000000
00005FFFA00000AFE1000000
0008FFFF900004FF60000000
05CFFEFF50000CFC00000000
1DFB4EFE10006FF300000000
00004FFA0001EFA000000000
00009FF40008FE207C500000
0000EFC0002FF700AFF00000
0006FF6000BFD000EFF00000
000DFD0004FF5004FFB00000
005FF6000DFB000AFF505E70
00DFC0006FF3003FFD009FF1
06FE2001EF9000BFF500EFE0
0DF50009FE1004FFB004FF90
0530002FF6000AFF3009FF40
000000BFD00005FFFFFFFFE2
000004FF4000005BCCEFFDD5
00000DFA0000000000DFC000
00007FF20000000006FE2000
0001EF80000000002EF50000
0005E900000000005D400000
ENDCHAR
STARTCHAR onehalf
ENCODING 189
SWIDTH 988 0
DWIDTH 28 0
BBX 24 22 2 0
BITMAP
0000000000000001BE200000
000003DC3000000BFD000000
00004EFFA000006FF4000000
0005FFFF900001EFA0000000
018FFFFF500009FE10000000
1EFF8DFF10003FF700000000
05612FFA0000CFD000000000
00008FF40006FF4000000000
0000DFD0001EFA0007CFEB50
0004FF70008FE200BFEABFF5
000BFE1002FF7007FF300CFC
003FF7000BFD000BFE000BFE
00BFD0004FF4000AFF302FFC
04FF4000DFB00003DD30BFF7
0BF70007FF200000000AFFD1
0860002EF800000001BFFD20
000000AFD10000002DFFB100
000003FF50000005EFE60000
00000CFB0000007FFB200000
00006FF2000007FF92236D00
0001EF8000001FFFEFFFFC00
0005EA0000000CFFFFFFC300
ENDCHAR
STARTCHAR threequarters
ENCODING 190
SWIDTH 1007 0
DWIDTH 28 0
BBX 25 23 1 0
BITMAP
00000000000000000016300000
000000000000000001DF700000
00002AEFD81000000AFE100000
0002EFBAFFA000004FF5000000
000CF800AFF10000DFB0000000
002FF5009FF20007FF30000000
001EF901EFE0001EF900000000
0003612CFF60009FE100000000
000029EFF70003FF702C500000
0001EFFD30000BFD005FF10000
00018AFF80005FF4008FF10000
055000DFE000DFA000DFC00200
8FE000EFD007FF2005FF605F90
DFA006FF802EF8000CFE109FE0
AFC26FFB009FE1006FF600DFA0
1BFFFE7003FF6000DFC003FF50
002430000CFC0004FF301AFF10
000000005FF30001DFFFFFFFB0
00000001DFA0000018A9CFE660
00000007FE2000000000DF6000
0000002EF70000000006FB0000
000000AFD0000000001ED20000
000000EC20000000006C200000
ENDCHAR
STARTCHAR questiondown
ENCODING 191
SWIDTH 516 0
DWIDTH 14 0
BBX 13 21 0 -5
BITMAP
0000000006ED40
000000003FFFE0
000000005FFFE0
000000001AEE60
00000000000000
00000000084000
000000005FA000
00000002EF9000
0000002DFF4000
000003EFFA0000
00007FFFC10000
001AFFFB100000
01CFFF80000000
0BFFE500000000
5FFE302BD30000
BFF4008FFB0000
DFB0005FFC0000
DF80005FF80000
9FB001CFE20000
2EFBADFE500000
029EFD92000000
ENDCHAR
STARTCHAR Agrave
ENCODING 192
SWIDTH 615 0
DWIDTH 17 0
BBX 22 27 -3 0
BITMAP
0000000000000001BD0000
0000000000000009FF4000
0000000000000008FFB000
0000000000000001CFF800
000000000000000006CE30
0000000000000000000000
000000000000000028CED1
0000000000000007FFFFF1
00000000000001AFC5EFB0
0000000000001CF906FF60
000000000001CF800DFE10
00000000000AFA005FFA00
00000000007FD100BFF400
0000000003FF4002FFE000
000000000CF90007FF8000
000000007FE1000DFF3000
00000002EFDBDEFFFFFE40
000003BFFFFFFFFFFFFE20
00000DEFF87777EFF85100
000000CFA00001FFE00000
000006FF200004FFB00000
00001EF9000007FF700000
00009FE200000AFF400000
0004FF8000000CFF300000
004EFC0000000BFF748000
19FFE200000008FFFFB000
2CEA2000000001AEE91000
ENDCHAR
STARTCHAR Aacute
ENCODING 193
SWIDTH 615 0
DWIDTH 17 0
BBX 23 27 -3 0
BITMAP
00000000000000000000BE40
00000000000000000003FFB0
0000000000000000000CFF70
000000000000000000AFF700
000000000000000006EA3000
000000000000000000000000
000000000000000028CED100
0000000000000007FFFFF100
00000000000001AFC5EFB000
0000000000001CF906FF6000
000000000001CF800DFE1000
00000000000AFA005FFA0000
00000000007FD100BFF40000
0000000003FF4002FFE00000
000000000CF90007FF800000
000000007FE1000DFF300000
00000002EFDBDEFFFFFE4000
000003BFFFFFFFFFFFFE2000
00000DEFF87777EFF8510000
000000CFA00001FFE0000000
000006FF200004FFB0000000
00001EF9000007FF70000000
00009FE200000AFF40000000
0004FF8000000CFF30000000
004EFC0000000BFF74800000
19FFE200000008FFFFB00000
2CEA2000000001AEE9100000
ENDCHAR
STARTCHAR Acircumflex
ENCODING 194
SWIDTH 615 0
DWIDTH 17 0
BBX 23 27 -3 0
BITMAP
0000000000000000001B9000
000000000000000002DFF500
00000000000000006EFFFC00
000000000000006CFE59FF60
00000000000000CE8101AFC0
000000000000000000000000
000000000000000028CED100
0000000000000007FFFFF100
00000000000001AFC5EFB000
0000000000001CF906FF6000
000000000001CF800DFE1000
00000000000AFA005FFA0000
00000000007FD100BFF40000
0000000003FF4002FFE00000
000000000CF90007FF800000
000000007FE1000DFF300000
00000002EFDBDEFFFFFE4000
000003BFFFFFFFFFFFFE2000
00000DEFF87777EFF8510000
000000CFA00001FFE0000000
000006FF200004FFB0000000
00001EF9000007FF70000000
00009FE200000AFF40000000
0004FF8000000CFF30000000
004EFC0000000BFF74800000
19FFE200000008FFFFB00000
2CEA2000000001AEE9100000
ENDCHAR
STARTCHAR Atilde
ENCODING 195
SWIDTH 615 0
DWIDTH 17 0
BBX 25 27 -3 0
BITMAP
0000000000000004CEC2001D20
000000000000006FFFFE32BE10
00000000000002FFDFFFFFF500
00000000000006E303CFFC4000
00000000000000100001100000
00000000000000000000000000
000000000000000028CED10000
0000000000000007FFFFF10000
00000000000001AFC5EFB00000
0000000000001CF906FF600000
000000000001CF800DFE100000
00000000000AFA005FFA000000
00000000007FD100BFF4000000
0000000003FF4002FFE0000000
000000000CF90007FF80000000
000000007FE1000DFF30000000
00000002EFDBDEFFFFFE400000
000003BFFFFFFFFFFFFE200000
00000DEFF87777EFF851000000
000000CFA00001FFE000000000
000006FF200004FFB000000000
00001EF9000007FF7000000000
00009FE200000AFF4000000000
0004FF8000000CFF3000000000
004EFC0000000BFF7480000000
19FFE200000008FFFFB0000000
2CEA2000000001AEE910000000
ENDCHAR
STARTCHAR Adieresis
ENCODING 196
SWIDTH 615 0
DWIDTH 17 0
BBX 24 27 -3 0
BITMAP
000000000000002761001672
00000000000002EFFA00CFFE
00000000000005FFFB01FFFF
00000000000001EFF500BFF9
000000000000003740001760
000000000000000000000000
000000000000000028CED100
0000000000000007EFFFF100
00000000000001AFC5EFB000
0000000000001CF906FF6000
000000000000CF800DFE1000
00000000000AFA005FFA0000
00000000006FD100BFF40000
0000000002FF4002FFE00000
000000000CF90007FF800000
000000006FE1000DFF300000
00000002EFDBDEFFFFFE4000
000002AFFFFFFFFFFFFE2000
00000DEFF87777EFF8510000
000000CFA00001FFE0000000
000006FF200004FFA0000000
00001EF9000007FF70000000
00009FE200000AFF40000000
0004FF8000000CFF30000000
004EFC0000000BFFA7B00000
19FFE200000008FFFFA00000
2CEA2000000001AED8100000
ENDCHAR
STARTCHAR Aring
ENCODING 197
SWIDTH 615 0
DWIDTH 17 0
BBX 23 27 -3 0
BITMAP
000000000000000006CFE800
00000000000000008FEAFF70
0000000000000004FF30AFB0
000000000000000AFB009FC0
000000000000000BF900DF80
0000000000000009FC18FE20
0000000000000002FFFFF500
0000000000000008FFFFF100
00000000000001BFFDEFB000
0000000000002DFE63FF6000
000000000001DFD20AFE1000
00000000000BFD202FFA0000
00000000008FF3009FF40000
0000000004FF6001EFE00000
000000001DFA0007FF800000
000000009FE1000CFF300000
00000005FFDBDEFFFFFE4000
000006EFFFFFFFFFFFFB1000
00000ACFE32222DFF4100000
000001EF800001FFE0000000
000008FE100005FFA0000000
00002EF8000008FF60000000
0000AFE100000AFF40000000
0006FF6000000CFF30000000
005FFC0000000BFF74800000
1AFFD200000007FFFFB00000
2CEA2000000001AEE9100000
ENDCHAR
STARTCHAR AE
ENCODING 198
SWIDTH 878 0
DWIDTH 25 0
BBX 29 21 -2 0
BITMAP
0000000000000004BEEC58CEFDA300
00000000000001AFFFFFFFFDA9EF30
0000000000001CFE75FFFE50007F90
000000000000CFD21CFFD200009FB0
00000000000AFE208FFE200006FF80
00000000007FF301EFF600008FFF20
0000000003FF6004FFE0000CFFF800
000000000DFB0006FFA0001EFF9000
000000008FE10005FF800003840000
00000003FF600001EFC00000000000
0000000DFE8BEFFFFFFDDE80000000
000003AFFFFFFFFFFFFFFFE0000000
00007FFFDDDDDDDDFFFFB410000000
00004EFE1000001CFFE50000000000
00006FF60000009FFE300000000000
0001EFC0000002FFF4000000000000
000AFF40000006FFC000001C500000
004FF900000007FFA00001CF700000
02EFD100000004FFD1005EFE200000
7EFF30000000009FFECEFFD3000000
AEC4000000000005BEFDB500000000
ENDCHAR
STARTCHAR Ccedilla
ENCODING 199
SWIDTH 533 0
DWIDTH 15 0
BBX 16 27 1 -6
BITMAP
0000000017CEEC40
00000006EFFB9DF4
0000009FFC2005FC
00000AFFA00005FF
00009FFB00000BFF
0006FFE100006FFD
001EFF500005FFF7
009FFC00007FFFD0
01FFF40000AFFE20
07FFD00000198100
0CFF700000000000
1FFF300000000000
4FFE000000000000
7FFC000000000000
8FFA000000000000
8FFA000000000000
7FFC000000000000
3FFE100000990000
0CFF70003CFB0000
02EFFA9CFFE40000
001BFFEDA6000000
0000CE1000000000
00009F5000000000
0001DF7000000000
002BFF5000000000
01FFFC0000000000
009EB20000000000
ENDCHAR
STARTCHAR Egrave
ENCODING 200
SWIDTH 509 0
DWIDTH 14 0
BBX 16 27 1 0
BITMAP
000000002CC00000
00000000AFF20000
00000000AFFA0000
000000002DFF6000
00000000017CE200
0000000000000000
000000049DFED810
000001BFFFC9AFC0
00003DFFB2000CF3
0001DFFA00001EF5
000BFFC00000BFF3
004FFF20002CFFC0
009FFA0004EFFE30
00BFF50006FFE400
00BFF30000672000
008FF50000000000
001EFE8A92000000
0003EFFFF8000000
004EFFFA51000000
04FFFD3000000000
1EFFC10000000000
8FFE100000000000
BFF8000003B00000
DFF500003EF20000
9FF80006EFC00000
1DFFA9DFFA100000
018CEED930000000
ENDCHAR
STARTCHAR Eacute
ENCODING 201
SWIDTH 509 0
DWIDTH 14 0
BBX 16 27 1 0
BITMAP
0000000000000CE3
0000000000004FFA
000000000001DFF5
00000000000BFF60
00000000007EA200
0000000000000000
000000049DFED810
000001BFFFC9AFC0
00003DFFB2000CF3
0001DFFA00001EF5
000BFFC00000BFF3
004FFF20002CFFC0
009FFA0004EFFE30
00BFF50006FFE400
00BFF30000672000
008FF50000000000
001EFE8A92000000
0003EFFFF8000000
004EFFFA51000000
04FFFD3000000000
1EFFC10000000000
8FFE100000000000
BFF8000003B00000
DFF500003EF20000
9FF80006EFC00000
1DFFA9DFFA100000
018CEED930000000
ENDCHAR
STARTCHAR Ecircumflex
ENCODING 202
SWIDTH 509 0
DWIDTH 14 0
BBX 16 27 1 0
BITMAP
000000000002C900
00000000003DFF40
0000000007FFFFA0
00000006DFD4AFF5
0000001DE7101BFB
0000000000000000
000000049DFED810
000001BFFFC9AFC0
00003DFFB2000CF3
0001DFFA00001EF5
000BFFC00000BFF3
004FFF20002CFFC0
009FFA0004EFFE30
00BFF50006FFE400
00BFF30000672000
008FF50000000000
001EFE8A92000000
0003EFFFF8000000
004EFFFA51000000
04FFFD3000000000
1EFFC10000000000
8FFE100000000000
BFF8000003B00000
DFF500003EF20000
9FF80006EFC00000
1DFFA9DFFA100000
018CEED930000000
ENDCHAR
STARTCHAR Edieresis
ENCODING 203
SWIDTH 509 0
DWIDTH 14 0
BBX 17 27 1 0
BITMAP
000000027600016710
0000003FFF900DFFD0
0000006FFFA02FFFE0
0000002FFF400DFF80
000000037300017500
000000000000000000
000000049DFED81000
000001BFFFC9AFC000
00003DFFB2000CF300
0001DFFA00001EF500
000BFFC00000BFF300
004FFF20002CFFC000
009FFA0004EFFE3000
00BFF50006FFE40000
00BFF3000067200000
008FF5000000000000
001EFE8A9200000000
0003EFFFF800000000
004EFFFA5100000000
04FFFD300000000000
1EFFC1000000000000
8FFE10000000000000
BFF8000003B0000000
DFF500003EF2000000
9FF80006EFC0000000
1DFFA9DFFA10000000
018CEED93000000000
ENDCHAR
STARTCHAR Igrave
ENCODING 204
SWIDTH 327 0
DWIDTH 9 0
BBX 12 27 -1 0
BITMAP
0000001AE100
0000007FF500
0000007FFC00
0000000BFFA0
000000005BE5
000000000000
00006BEFD800
0000DFEBFF80
00001615FFA0
00000007FFA0
0000000BFF70
0000000EFF40
0000002FFF10
0000006FFC00
000000BFF800
000001FFF300
000005FFD000
00000AFF8000
00001EFF3000
00006FFC0000
0000CFF50000
0004FFD00000
000BFF500000
005FFB000000
02EFE2000000
1DFF40000000
2EC300000000
ENDCHAR
STARTCHAR Iacute
ENCODING 205
SWIDTH 327 0
DWIDTH 9 0
BBX 14 27 -1 0
BITMAP
000000000009E6
00000000002FFD
0000000000AFF8
0000000008FF90
000000004FB400
00000000000000
00006BEFD80000
0000DFEBFF8000
00001615FFA000
00000007FFA000
0000000BFF7000
0000000EFF4000
0000002FFF1000
0000006FFC0000
000000BFF80000
000001FFF30000
000005FFD00000
00000AFF800000
00001EFF300000
00006FFC000000
0000CFF5000000
0004FFD0000000
000BFF50000000
005FFB00000000
02EFE200000000
1DFF4000000000
2EC30000000000
ENDCHAR
STARTCHAR Icircumflex
ENCODING 206
SWIDTH 327 0
DWIDTH 9 0
BBX 15 27 -1 0
BITMAP
0000000000AA1000
000000002CFF7000
00000005EFFFD000
000005CFE67FF800
00000BE92009ED10
0000000000000000
00006BEFD8000000
0000DFEBFF800000
00001615FFA00000
00000007FFA00000
0000000BFF700000
0000000EFF400000
0000002FFF100000
0000006FFC000000
000000BFF8000000
000001FFF3000000
000005FFD0000000
00000AFF80000000
00001EFF30000000
00006FFC00000000
0000CFF500000000
0004FFD000000000
000BFF5000000000
005FFB0000000000
02EFE20000000000
1DFF400000000000
2EC3000000000000
ENDCHAR
STARTCHAR Idieresis
ENCODING 207
SWIDTH 327 0
DWIDTH 9 0
BBX 16 27 -1 0
BITMAP
0000017610005730
00001DFFC00AFFE2
00003FFFD00EFFF2
00001DFF600AFFB0
0000027400007600
0000000000000000
00006BEFD8000000
0000DFEBFF800000
00001615FFA00000
00000007FFA00000
0000000BFF700000
0000000EFF400000
0000002FFF100000
0000006FFC000000
000000BFF8000000
000001FFF3000000
000005FFD0000000
00000AFF80000000
00001EFF30000000
00006FFC00000000
0000CFF500000000
0004FFD000000000
000BFF5000000000
005FFB0000000000
02EFE20000000000
1DFF400000000000
2EC3000000000000
ENDCHAR
STARTCHAR Eth
ENCODING 208
SWIDTH 630 0
DWIDTH 18 0
BBX 18 21 0 0
BITMAP
000159BDEFEC950000
003EFFFFB99BFFD400
002EFE7100002BFF50
00026202100001CFE2
000001DFF500006FF8
000008FFE100002FFC
00001EFF7000001FFE
00008FFD0000002FFD
07FFFFFFFFF4004FFC
2FFFFFFFFFD1008FF9
056EFF96651000DFF5
003FFF10000005FFD0
008FFA0000001DFF70
00DFF50000008FFC00
02FFE0000005FFF300
06FFA000003EFF6000
0AFF600004EFF70000
0CFF30007FFF700000
0DFF003BFFD4000000
07FF9BFFF810000000
005CEEB71000000000
ENDCHAR
STARTCHAR Ntilde
ENCODING 209
SWIDTH 708 0
DWIDTH 20 0
BBX 23 27 0 0
BITMAP
00000000000003BED4000B40
0000000000004FFFFF519F30
000000000001EFDFFFFFF700
000000000003F502AFFD5000
000000000000100001200000
000000000000000000000000
000000002AEC000005ED6000
00000003EFFE00000AFFF400
0000001DFFFB000001EFF900
000000BFDFF9000000BFFA00
000005FE6FF8000000AFF800
00000DF66FF8000000CFF400
00006FD07FF8000000FFD000
0000DF607FF9000004FF7000
0006FE106FFA000009FE1000
000CF9005FFC00001EF80000
003FF4004FFE00007FE10000
009FE0001FFF1000EF700000
00EF90000EFF4006FD000000
04FF40000BFF800DF5000000
08FF100007FFC05FC0000000
0DFB000002FFF1BF40000000
1FF8000000DFF9FC00000000
4FF40000007FFFF500000000
6FF20000001EFFD000000000
6FE000000006FFA000000000
1CB0000000007E7000000000
ENDCHAR
STARTCHAR Ograve
ENCODING 210
SWIDTH 655 0
DWIDTH 18 0
BBX 18 27 1 0
BITMAP
000000000007E50000
00000000002FFA0000
00000000002FFF3000
000000000007FFD200
0000000000003AD900
000000000000000000
0000000005ADFDA300
00000004DFFC9CFF50
0000007FFE5000AFE1
000008FFE200004FF7
00006FFF3000002FFA
0002FFF60000002FFC
000BFFB00000004FFC
005FFF300000006FFA
00CFFA00000000AFF8
03FFF300000000EFF4
08FFC000000005FFE1
0CFF600000000BFFA0
1FFF200000004FFF30
3FFD00000000BFFB00
4FFA00000004FFF300
4FF90000001DFF7000
3FF9000000AFFB0000
0EFB000008FFC10000
08FF4001AFFB100000
00BFEAAEFF70000000
0006CEEC8200000000
ENDCHAR
STARTCHAR Oacute
ENCODING 211
SWIDTH 655 0
DWIDTH 18 0
BBX 19 27 1 0
BITMAP
0000000000000004FA00
000000000000000BFF30
000000000000005FFD00
00000000000004FFC200
0000000000000ED60000
00000000000000000000
0000000005ADFDA30000
00000004DFFC9CFF5000
0000007FFE5000AFE100
000008FFE200004FF700
00006FFF3000002FFA00
0002FFF60000002FFC00
000BFFB00000004FFC00
005FFF300000006FFA00
00CFFA00000000AFF800
03FFF300000000EFF400
08FFC000000005FFE100
0CFF600000000BFFA000
1FFF200000004FFF3000
3FFD00000000BFFB0000
4FFA00000004FFF30000
4FF90000001DFF700000
3FF9000000AFFB000000
0EFB000008FFC1000000
08FF4001AFFB10000000
00BFEAAEFF7000000000
0006CEEC820000000000
ENDCHAR
STARTCHAR Ocircumflex
ENCODING 212
SWIDTH 655 0
DWIDTH 18 0
BBX 19 27 1 0
BITMAP
000000000000006C3000
00000000000008FFC000
000000000003CFFFF300
00000000039FF93FFD10
0000000006EB4005DE40
00000000000000000000
0000000005ADFDA30000
00000004DFFC9CFF5000
0000007FFE5000AFE100
000008FFE200004FF700
00006FFF3000002FFA00
0002FFF60000002FFC00
000BFFB00000004FFC00
005FFF300000006FFA00
00CFFA00000000AFF800
03FFF300000000EFF400
08FFC000000005FFE100
0CFF600000000BFFA000
1FFF200000004FFF3000
3FFD00000000BFFB0000
4FFA00000004FFF30000
4FF90000001DFF700000
3FF9000000AFFB000000
0EFB000008FFC1000000
08FF4001AFFB10000000
00BFEAAEFF7000000000
0006CEEC820000000000
ENDCHAR
STARTCHAR Otilde
ENCODING 213
SWIDTH 655 0
DWIDTH 18 0
BBX 20 27 1 0
BITMAP
000000000019ED700088
0000000001DFFFF816F6
000000000BFEEFFFFFB0
000000000E8008FFE800
00000000010000020000
00000000000000000000
0000000005ADFDA30000
00000004DFFC9CFF5000
0000007FFE5000AFE100
000008FFE200004FF700
00006FFF3000002FFA00
0002FFF60000002FFC00
000BFFB00000004FFC00
005FFF300000006FFA00
00CFFA00000000AFF800
03FFF300000000EFF400
08FFC000000005FFE100
0CFF600000000BFFA000
1FFF200000004FFF3000
3FFD00000000BFFB0000
4FFA00000004FFF30000
4FF90000001DFF700000
3FF9000000AFFB000000
0EFB000008FFC1000000
08FF4001AFFB10000000
00BFEAAEFF7000000000
0006CEEC820000000000
ENDCHAR
STARTCHAR Odieresis
ENCODING 214
SWIDTH 655 0
DWIDTH 18 0
BBX 20 27 1 0
BITMAP
00000000005730004750
000000000AFFF205FFF6
000000000EFFF309FFF7
0000000009FFB005FFE2
00000000006610005720
00000000000000000000
0000000005ADFDA30000
00000004DFFC9CFF5000
0000007FFE5000AFE100
000008FFE200004FF700
00006FFF3000002FFA00
0002FFF60000002FFC00
000BFFB00000004FFC00
005FFF300000006FFA00
00CFFA00000000AFF800
03FFF300000000EFF400
08FFC000000005FFE100
0CFF600000000BFFA000
1FFF200000004FFF3000
3FFD00000000BFFB0000
4FFA00000004FFF30000
4FF90000001DFF700000
3FF9000000AFFB000000
0EFB000008FFC1000000
08FF4001AFFB10000000
00BFEAAEFF7000000000
0006CEEC820000000000
ENDCHAR
STARTCHAR multiply
ENCODING 215
SWIDTH 573 0
DWIDTH 16 0
BBX 13 11 2 4
BITMAP
0DD20000009E60
09FE20000AFD20
00AFD200AFD200
000AFD2AFD2000
0000BFFFD20000
00001EFF300000
0000BFFFB10000
000BFD3CFB0000
01BFD201DFA000
0BFD10002DFA00
2EC1000002CD10
ENDCHAR
STARTCHAR Oslash
ENCODING 216
SWIDTH 655 0
DWIDTH 18 0
BBX 19 26 2 -2
BITMAP
00000000000000016500
000000000000001DFF30
00000000000000BFF500
0000000006BEFEFF7000
00000005DFFBAFFF6000
0000008FFD309FFFE100
000009FFD202FD7FF600
00007FFE200BF54FF900
0003FFF4005FA04FFA00
000DFF9000DE106FF900
006FFE1007F6008FF800
00DFF8001EB000CFF600
04FFF1009F2001FFF200
09FFA003F80007FFD000
0EFF400CD0000DFF7000
2FFE005F50005FFF1000
4FFB01DB0000DFF90000
6FF808F30006FFE10000
6FF72FA0002EFF500000
5FF7BE2000CFF9000000
1FFEF8000AFFB0000000
0AFFE102BFFA00000000
02FFE9AFFE6000000000
08FDDFEC710000000000
1FE30000000000000000
4E600000000000000000
ENDCHAR
STARTCHAR Ugrave
ENCODING 217
SWIDTH 624 0
DWIDTH 17 0
BBX 20 27 0 0
BITMAP
00000000003CB0000000
0000000000BFF2000000
0000000000BFF9000000
00000000002DFF600000
0000000000017CE10000
00000000000000000000
000006DFB10000003EC1
000009FFF6000000BFF5
000000EFF4000004FFD0
000001FFF100000CFF70
000006FFB000004FFE10
00000CFF500000CFF900
00004FFE000005FFF400
0000BFF700000DFFD000
0002FFE100005FFF8000
0009FF900000DFFF3000
001EFF200007FFFD0000
007FFA00001EFFF80000
00DFF300009FFFF30000
04FFC00003FCEFD00000
0AFF60000CF5FF900000
0EFF10008F67FF600000
4FFB0004FA0AFF300000
6FFA003EC00CFF200000
6FFD36EC100BFF748000
2FFFFFB10007FFFFB000
05DFC60000019EE81000
ENDCHAR
STARTCHAR Uacute
ENCODING 218
SWIDTH 624 0
DWIDTH 17 0
BBX 20 27 0 0
BITMAP
000000000000000DD300
000000000000005FF900
00000000000001DFF400
0000000000001CFF6000
0000000000008E920000
00000000000000000000
000006DFB10000003EC1
000009FFF6000000BFF5
000000EFF4000004FFD0
000001FFF100000CFF70
000006FFB000004FFE10
00000CFF500000CFF900
00004FFE000005FFF400
0000BFF700000DFFD000
0002FFE100005FFF8000
0009FF900000DFFF3000
001EFF200007FFFD0000
007FFA00001EFFF80000
00DFF300009FFFF30000
04FFC00003FCEFD00000
0AFF60000CF5FF900000
0EFF10008F67FF600000
4FFB0004FA0AFF300000
6FFA003EC00CFF200000
6FFD36EC100BFF748000
2FFFFFB10007FFFFB000
05DFC60000019EE81000
ENDCHAR
STARTCHAR Ucircumflex
ENCODING 219
SWIDTH 624 0
DWIDTH 17 0
BBX 20 27 0 0
BITMAP
00000000000002C80000
0000000000004EFF3000
000000000018FFFFA000
0000000007DFD3BFF400
000000001DD7102BFA00
00000000000000000000
000006DFB10000003EC1
000009FFF6000000BFF5
000000EFF4000004FFD0
000001FFF100000CFF70
000006FFB000004FFE10
00000CFF500000CFF900
00004FFE000005FFF400
0000BFF700000DFFD000
0002FFE100005FFF8000
0009FF900000DFFF3000
001EFF200007FFFD0000
007FFA00001EFFF80000
00DFF300009FFFF30000
04FFC00003FCEFD00000
0AFF60000CF5FF900000
0EFF10008F67FF600000
4FFB0004FA0AFF300000
6FFA003EC00CFF200000
6FFD36EC100BFF748000
2FFFFFB10007FFFFB000
05DFC60000019EE81000
ENDCHAR
STARTCHAR Udieresis
ENCODING 220
SWIDTH 624 0
DWIDTH 17 0
BBX 20 27 0 0
BITMAP
00000000037500017610
000000004FFF801DFFC0
000000007FFF903FFFD0
000000003FFF300DFF70
00000000047300027500
00000000000000000000
000006DFB10000003EC1
000009FFF6000000BFF5
000000EFF4000004FFD0
000001FFF100000CFF70
000006FFB000004FFE10
00000CFF500000CFF900
00004FFE000005FFF400
0000BFF700000DFFD000
0002FFE100005FFF8000
0009FF900000DFFF3000
001EFF200007FFFD0000
007FFA00001EFFF80000
00DFF300009FFFF30000
04FFC00003FCEFD00000
0AFF60000CF5FF900000
0EFF10008F67FF600000
4FFB0004FA0AFF300000
6FFA003EC00CFF200000
6FFD36EC100BFF748000
2FFFFFB10007FFFFB000
05DFC60000019EE81000
ENDCHAR
STARTCHAR Yacute
ENCODING 221
SWIDTH 580 0
DWIDTH 16 0
BBX 20 35 0 -8
BITMAP
00000000000000075000
000000000000005FF400
00000000000000CFF500
00000000000008FFA000
0000000000007FE70000
00000000000066100000
000007DFB10000004EB1
00000AFFF5000000CFF3
000000FFF3000005FFC0
000002FFE000000DFF50
000007FFA000006FFD00
00000DFF400000DFF800
00005FFD000006FFF200
0000CFF600000DFFC000
0003FFE100007FFF7000
000AFF700001EFFF1000
002FFE100008FFFB0000
008FF900002FFFF60000
00EFF20000AFFFF10000
05FFB00004FDFFA00000
0BFF50001DE9FF500000
1FFE00009F5CFE000000
5FFA0005F93FF8000000
7FF8004EB0AFF2000000
7FFC37FC13FFA0000000
3FFFFFA10AFF30000000
05DFC5003FFB00000000
00000000BFF200000000
00000006FF8000000000
0000002EFC0000000000
000001CFE20000000000
00001BFF500000000000
0002CFF6000000000000
018EFE40000000000000
06ED8100000000000000
ENDCHAR
STARTCHAR Thorn
ENCODING 222
SWIDTH 527 0
DWIDTH 15 0
BBX 18 21 -2 0
BITMAP
00005BEFEA10000000
0000DFEBFF80000000
00001615FFA0000000
00000008FF90000000
0000000BFF70000000
0000000EFFA7520000
0000002FFFFFFFC300
0000007FFB2029FF40
000000BFF60000EFD0
000001FFF20000DFF1
000005FFC00001FFF0
00000AFF700008FFB0
00001EFF10008FFF40
00006FFA026DFFF600
0000CFFDDFFFFC4000
0004FFEEEDB8300000
000BFF400000000000
005FFB000000000000
02EFE2000000000000
1DFE40000000000000
2EC300000000000000
ENDCHAR
STARTCHAR germandbls
ENCODING 223
SWIDTH 520 0
DWIDTH 15 0
BBX 17 27 -2 -4
BITMAP
00000000006CFEB400
000000000AFFBAFF40
000000009FF6009FC0
00000003FF90007FF0
0000000BFE10009FF0
0000003FF90001EFD0
0000009FF30007FF80
000001EFD0003FFE10
000005FF9001DFE400
000009FF400BFE4000
00000DFF107FF40000
00002FFC00EF900000
00006FF804FF500000
0000AFF405FF700000
0000EFF103FFE10000
0002FFC000DFFA0000
0006FF80005FFF6000
000AFF400009FFE100
000EFF105200CFF600
003FFB09F7003FF700
008FF70DFD103FF300
00DFF209FFEBEF6000
02FFC0007DFEA40000
08FF70000000000000
1EFF10000000000000
5FF900000000000000
175000000000000000
ENDCHAR
STARTCHAR agrave
ENCODING 224
SWIDTH 541 0
DWIDTH 15 0
BBX 15 23 0 -1
BITMAP
000000005DD00000
00000001FFF00000
00000001FFF00000
00000000DFE00000
000000006FF10000
000000000BF60000
0000000001980000
0000000000000000
0000004AEEA18EA0
000009FFB9FEFFE0
0001BFF6007FFF80
000AFF60005FFE10
006FFB0000AFF900
01EFF30001EFF200
06FFB00006FFB000
0BFF70000DFF5000
0EFF30006FFE0000
1FFF1001EFFA0000
0FFF000AEFF80000
0CFF107F6FFB1410
05FFCBF71FFFFF20
006DFC4009FFF700
0000000000573000
ENDCHAR
STARTCHAR aacute
ENCODING 225
SWIDTH 541 0
DWIDTH 15 0
BBX 15 24 0 -1
BITMAP
0000000000011000
00000000000DE400
00000000004FFA00
0000000000AFF700
0000000004FFC100
000000002EFC1000
00000002DF810000
0000000262000000
0000000000000000
0000004AEEA18EA0
000009FFB9FEFFE0
0001BFF6007FFF80
000AFF60005FFE10
006FFB0000AFF900
01EFF30001EFF200
06FFB00006FFB000
0BFF70000DFF5000
0EFF30006FFE0000
1FFF1001EFFA0000
0FFF000AEFF80000
0CFF107F6FFB1410
05FFCBF71FFFFF20
006DFC4009FFF700
0000000000573000
ENDCHAR
STARTCHAR acircumflex
ENCODING 226
SWIDTH 541 0
DWIDTH 15 0
BBX 15 23 0 -1
BITMAP
0000000000015000
00000000002DF800
0000000003DFFC00
000000006FFCFF10
0000003BFE54FF60
000008FFB200CFD0
0000027400001750
0000000000000000
0000004AEEA18EA0
000009FFB9FEFFE0
0001BFF6007FFF80
000AFF60005FFE10
006FFB0000AFF900
01EFF30001EFF200
06FFB00006FFB000
0BFF70000DFF5000
0EFF30006FFE0000
1FFF1001EFFA0000
0FFF000AEFF80000
0CFF107F6FFB1410
05FFCBF71FFFFF20
006DFC4009FFF700
0000000000573000
ENDCHAR
STARTCHAR atilde
ENCODING 227
SWIDTH 541 0
DWIDTH 15 0
BBX 17 22 0 -1
BITMAP
00000005CEB2001D10
0000007FFFFE32BE00
000003FFDFFFFFF400
000007D303CFFC3000
000000100001100000
000000000000000000
000000000000000000
0000004AEEA18EA000
000009FFB9FEFFE000
0001BFF6007FFF8000
000AFF60005FFE1000
006FFB0000AFF90000
01EFF30001EFF20000
06FFB00006FFB00000
0BFF70000DFF500000
0EFF30006FFE000000
1FFF1001EFFA000000
0FFF000AEFF8000000
0CFF107F6FFB141000
05FFCBF71FFFFF2000
006DFC4009FFF70000
000000000057300000
ENDCHAR
STARTCHAR adieresis
ENCODING 228
SWIDTH 541 0
DWIDTH 15 0
BBX 16 22 0 -1
BITMAP
0000009ED4006EE7
000006FFFA01FFFF
000005FFF801FFFC
000000AFA1007FD3
0000000000000000
0000000000000000
0000000000000000
0000004AEEA18EA0
000009FFB9FEFFE0
0001BFF6007FFF80
000AFF60005FFE10
006FFB0000AFF900
01EFF30001EFF200
06FFB00006FFB000
0BFF70000DFF5000
0EFF30006FFE0000
1FFF1001EFFA0000
0FFF000AEFF80000
0CFF107F6FFB1410
05FFCBF71FFFFF20
006DFC4009FFF700
0000000000573000
ENDCHAR
STARTCHAR aring
ENCODING 229
SWIDTH 541 0
DWIDTH 15 0
BBX 15 23 0 -1
BITMAP
0000000018DFD700
00000001DFCAFF50
00000009FC00CF80
0000000EF700EF70
0000000DF919FE20
00000006FFFFD400
0000000037861000
0000000000000000
0000004AEEA18EA0
000009FFB9FEFFE0
0001BFF6007FFF80
000AFF60005FFE10
006FFB0000AFF900
01EFF30001EFF200
06FFB00006FFB000
0BFF70000DFF5000
0EFF30006FFE0000
1FFF1001EFFA0000
0FFF000AEFF80000
0CFF107F6FFB1410
05FFCBF71FFFFF20
006DFC4009FFF700
0000000000573000
ENDCHAR
STARTCHAR ae
ENCODING 230
SWIDTH 769 0
DWIDTH 22 0
BBX 22 14 0 0
BITMAP
0000004AEEA18EA8DEE910
000009FFB9FEFFFFABFF90
0001BFF5007FFFE301FFF0
000AFF60006FFF5002FFF1
006FFA0000BFFB0008FFE0
01EFF20001FFF4005FFF70
06FFA00007FFD007FFFA00
0BFF50000DFFB8DFFE7000
0EFF20006FFFFEDA610000
1FFF0001EFFF8000000000
0FFF000AEAFF9000007300
0CFF207F63FFD1001AF700
05FFCBF7009FFD9BFFC100
006DEB400006CEFDA50000
ENDCHAR
STARTCHAR ccedilla
ENCODING 231
SWIDTH 465 0
DWIDTH 13 0
BBX 13 20 0 -6
BITMAP
0000005AEFD600
00001BFFB9FF50
0002DFF500CFB0
001DFF5000EFB0
009FFA0008FF80
02FFF2005FFF20
08FFA0003EF600
0DFF5000001000
0FFF2000000000
1FFF0000000000
0FFF1000056000
0BFF60006F8000
02EFFA9DFC1000
0029FFEC600000
00009F20000000
00007F80000000
0000CFA0000000
0029FF70000000
00DFFE10000000
006EC300000000
ENDCHAR
STARTCHAR egrave
ENCODING 232
SWIDTH 471 0
DWIDTH 13 0
BBX 12 22 1 0
BITMAP
0000006ED000
000002FFE000
000002FFD000
000000EFD000
0000007FF100
0000000CF500
000000019700
000000000000
000003AEFD50
00008FFBBFF4
000AFF400FFA
009FF7001FFB
04FFD0006FF9
0CFF6003EFF3
4FFE104EFF80
9FFB6BFFE600
CFFFFFC71000
DFF520000000
BFF400000600
7FF90004CF20
1CFFBACFF900
018DFED94000
ENDCHAR
STARTCHAR eacute
ENCODING 233
SWIDTH 471 0
DWIDTH 13 0
BBX 12 23 1 0
BITMAP
000000000100
000000000EE3
000000005FF9
00000000CFF6
00000006FFB0
0000003EFB10
000003EE8000
000003610000
000000000000
000003AEFD50
00008FFBBFF4
000AFF400FFA
009FF7001FFB
04FFD0006FF9
0CFF6003EFF3
4FFE104EFF80
9FFB6BFFE600
CFFFFFC71000
DFF520000000
BFF400000600
7FF90004CF20
1CFFBACFF900
018DFED94000
ENDCHAR
STARTCHAR ecircumflex
ENCODING 234
SWIDTH 471 0
DWIDTH 13 0
BBX 13 22 1 0
BITMAP
00000000014000
000000002DF700
00000004EFFB00
0000007FFDFE00
00004CFE45FF50
0009FFA100DFB0
00027300002750
00000000000000
000003AEFD5000
00008FFBBFF400
000AFF400FFA00
009FF7001FFB00
04FFD0006FF900
0CFF6003EFF300
4FFE104EFF8000
9FFB6BFFE60000
CFFFFFC7100000
DFF52000000000
BFF40000060000
7FF90004CF2000
1CFFBACFF90000
018DFED9400000
ENDCHAR
STARTCHAR edieresis
ENCODING 235
SWIDTH 471 0
DWIDTH 13 0
BBX 14 21 1 0
BITMAP
0001AFD3007EE6
0007FFF902FFFD
0006FFF702FFFB
0001BFA0008FC2
00000000000000
00000000000000
00000000000000
000003AEFD7000
00008FFABFF600
000AFE300FFB00
009FF4002FFB00
04FF9000BFF600
0CFF202BFFA000
4FFC59FFE60000
9FFFEC95000000
CFF30000000000
DFF30000020000
BFF600005F1000
7FFB0007FF1000
1CFFB9DFF50000
018DFEC8200000
ENDCHAR
STARTCHAR igrave
ENCODING 236
SWIDTH 286 0
DWIDTH 8 0
BBX 8 22 0 0
BITMAP
00005DE1
0000FFF1
0001FFF0
0000CFF0
00005FF2
00000AF7
00000089
00000000
0008EFB0
000BFFF0
0003FFD0
0005FF80
000BFF20
002FFA00
008FF300
01EFB000
06FF4000
0BFE0000
1FFA0000
3FFEA900
1FFFFA00
06EEA100
ENDCHAR
STARTCHAR iacute
ENCODING 237
SWIDTH 286 0
DWIDTH 8 0
BBX 10 23 0 0
BITMAP
0000000110
0000000CE4
0000003FFA
000000AFF8
000004FFD1
00002EFC10
0002DF9100
0002620000
0000000000
0008EFB000
000BFFF000
0003FFD000
0005FF8000
000BFF2000
002FFA0000
008FF30000
01EFB00000
06FF400000
0BFE000000
1FFA000000
3FFEA90000
1FFFFA0000
06EEA10000
ENDCHAR
STARTCHAR icircumflex
ENCODING 238
SWIDTH 286 0
DWIDTH 8 0
BBX 11 22 0 0
BITMAP
000000015000
0000001CF900
000003DFFD00
00006EFCFF10
003BFE54FF60
07FFB200CFD0
017400001750
000000000000
0008EFB00000
000BFFF00000
0003FFD00000
0005FF800000
000BFF200000
002FFA000000
008FF3000000
01EFB0000000
06FF40000000
0BFE00000000
1FFA00000000
3FFEA9000000
1FFFFA000000
06EEA1000000
ENDCHAR
STARTCHAR idieresis
ENCODING 239
SWIDTH 286 0
DWIDTH 8 0
BBX 12 21 0 0
BITMAP
009ED4006EE8
05FFFB01FFFF
04FFF801FFFD
00AFB1006FD3
000000000000
000000000000
000000000000
0008EFB00000
000BFFF00000
0003FFD00000
0005FF800000
000BFF200000
002FFA000000
008FF3000000
01EFB0000000
06FF40000000
0BFE00000000
1FFA00000000
3FFEA9000000
1FFFFA000000
06EEA1000000
ENDCHAR
STARTCHAR eth
ENCODING 240
SWIDTH 524 0
DWIDTH 15 0
BBX 17 23 1 0
BITMAP
0000000004E6000000
0000000000DF300000
00000000005FB57400
00000000004FFFFF50
000000002BFFFEA830
00000003EFCDFA0000
0000000A930AFC0000
00000000000BFC0000
00000000000CFB0000
000003AEFB3EFA0000
00009FFB9EEFF80000
000AFF5005FFF50000
008FF60001FFF20000
03FFB00004FFC00000
0CFF40000AFF700000
4FFC00002FFF200000
9FF800008FF9000000
DFF40001EFF2000000
EFF20008FF70000000
DFF1004FFC00000000
AFF402EFD100000000
3FFD9EFB1000000000
04CFEA400000000000
ENDCHAR
STARTCHAR ntilde
ENCODING 241
SWIDTH 561 0
DWIDTH 16 0
BBX 17 21 0 0
BITMAP
00000005CEB2001D10
0000007FFFFE32BE00
000003FFDFFFFFF400
000006D303CFFC3000
000000100001100000
000000000000000000
000000000000000000
0008EE50007ED80000
000BFFD01CFFFF6000
0004FFC0BFEFFF9000
0005FF89FB17FF7000
000AFF7FB10CFF3000
001EFCEC104FFC0000
005FFFE200BFF50000
00BFFF3003FFD00000
02FFF50009FF600000
09FFA0000EFE100000
1EFF20003FFA000000
8FF900004FFB372000
DFF200002FFFFE1000
6E80000005DEB20000
ENDCHAR
STARTCHAR ograve
ENCODING 242
SWIDTH 514 0
DWIDTH 14 0
BBX 13 22 1 0
BITMAP
00000003CE3000
0000000CFF4000
0000000CFF3000
00000009FF3000
00000002FF5000
000000007FA000
0000000006B000
00000000000000
000005BEEC6000
0001BFFBAFF700
001DFF700BFF10
00CFF90009FF50
07FFD1000BFF60
1EFF50000DFF50
6FFD00002FFF20
BFF800007FFC00
EFF40000EFF700
FFF10007FFD100
EFF0002FFF4000
AFF202DFF70000
2EFC9EFE600000
03ADFD82000000
ENDCHAR
STARTCHAR oacute
ENCODING 243
SWIDTH 514 0
DWIDTH 14 0
BBX 13 23 1 0
BITMAP
00000000000100
00000000009F70
0000000001EFE0
0000000007FFB0
000000002EFE20
00000001CFE300
0000000BFA2000
00000017300000
00000000000000
000005BEEC6000
0001BFFBAFF700
001DFF700BFF10
00CFF90009FF50
07FFD1000BFF60
1EFF50000DFF50
6FFD00002FFF20
BFF800007FFC00
EFF40000EFF700
FFF10007FFD100
EFF0002FFF4000
AFF202DFF70000
2EFC9EFE600000
03ADFD82000000
ENDCHAR
STARTCHAR ocircumflex
ENCODING 244
SWIDTH 514 0
DWIDTH 14 0
BBX 15 22 1 0
BITMAP
0000000000051000
0000000000AFC000
000000001BFFF100
00000004DFCFF500
0000029FF81FF900
00004FFD4009FF20
0000065000006610
0000000000000000
000005BEEC600000
0001BFFBAFF70000
001DFF700BFF1000
00CFF90009FF5000
07FFD1000BFF6000
1EFF50000DFF5000
6FFD00002FFF2000
BFF800007FFC0000
EFF40000EFF70000
FFF10007FFD10000
EFF0002FFF400000
AFF202DFF7000000
2EFC9EFE60000000
03ADFD8200000000
ENDCHAR
STARTCHAR otilde
ENCODING 245
SWIDTH 514 0
DWIDTH 14 0
BBX 16 21 1 0
BITMAP
0000003BED4000B4
000003FFFFF519F3
00001EFEFFFFFF80
00003F502AFFD500
0000010000120000
0000000000000000
0000000000000000
000005BEEC600000
0001BFFBAFF70000
001DFF700BFF1000
00CFF90009FF5000
07FFD1000BFF6000
1EFF50000DFF5000
6FFD00002FFF2000
BFF800007FFC0000
EFF40000EFF70000
FFF10007FFD10000
EFF0002FFF400000
AFF202DFF7000000
2EFC9EFE60000000
03ADFD8200000000
ENDCHAR
STARTCHAR odieresis
ENCODING 246
SWIDTH 514 0
DWIDTH 14 0
BBX 16 21 1 0
BITMAP
000007EE7004DFA0
00002FFFE00CFFF3
00001FFFC00CFFF1
000007FC2004EE50
0000000000000000
0000000000000000
0000000000000000
000005BEEC600000
0001BFFBAFF70000
001DFF700BFF1000
00CFF90009FF5000
07FFD1000BFF6000
1EFF50000DFF5000
6FFD00002FFF2000
BFF800007FFC0000
EFF40000EFF70000
FFF10007FFD10000
EFF0002FFF400000
AFF202DFF7000000
2EFC9EFE60000000
03ADFD8200000000
ENDCHAR
STARTCHAR divide
ENCODING 247
SWIDTH 617 0
DWIDTH 17 0
BBX 14 14 2 3
BITMAP
00000067200000
000007FFE10000
000009FFF10000
000003EF600000
00000001000000
00000000000000
28888888888887
AFFFFFFFFFFFFA
00000000000000
00000000000000
00000276100000
00000CFFB00000
00000EFFA00000
000007FD300000
ENDCHAR
STARTCHAR oslash
ENCODING 248
SWIDTH 514 0
DWIDTH 14 0
BBX 14 19 1 -3
BITMAP
00000000003CE8
0000000002EFE4
000005BEEEFF40
0001BFFBBFF900
001CFF70AFFE10
00CFF804FAFF40
07FFC00D78FF60
1EFF507C0BFF50
6FFC02E31FFF30
BFF70A905FFD00
DFF24E10CFF700
EFF0D705FFE100
DFE7D02EFF5000
AFFE52CFF70000
2EFF9EFF600000
0DFFFD82000000
4FE10000000000
8F600000000000
26000000000000
ENDCHAR
STARTCHAR ugrave
ENCODING 249
SWIDTH 553 0
DWIDTH 15 0
BBX 16 22 0 0
BITMAP
0000000007EB0000
000000003FFD0000
000000003FFC0000
000000001EFC0000
0000000008FE0000
0000000001CF4000
00000000001A6000
0000000000000000
0007EF9000004EC2
0009FFF20001DFF2
0002FFF00008FFA0
0005FFA0002FFF30
000BFF5000AFFB00
002FFE0004FFF400
009FF8001DFFC000
01FFF2009FFF6000
08FFA005FBFF1000
0DFF203EAAFB0000
3FFC03EC1EFA0000
5FFD8ED22FFD7B00
2FFFFD200FFFFC00
07EE910005EEA100
ENDCHAR
STARTCHAR uacute
ENCODING 250
SWIDTH 553 0
DWIDTH 15 0
BBX 16 23 0 0
BITMAP
0000000000001000
000000000001EE20
000000000006FF70
00000000000DFF50
00000000007FFA00
0000000004FFA100
000000003EE70000
0000000036100000
0000000000000000
0007EF9000004EC2
0009FFF20001DFF2
0002FFF00007FFA0
0005FFB0002EFF30
000BFF60009FFB00
002FFE1003FFF500
009FF9000CFFD000
01FFF3007FFF7000
08FFB003FCFF2000
0DFF401DB9FC0000
3FFD01CD1EFA0000
5FFC4DE22FFC3600
2FFFFD301FFFFD00
07EE910006EEA200
ENDCHAR
STARTCHAR ucircumflex
ENCODING 251
SWIDTH 553 0
DWIDTH 15 0
BBX 16 22 0 0
BITMAP
0000000000002400
000000000003EF60
00000000004EFFA0
0000000008FFDFE0
00000004CFD36FF3
000000AFF9101EFA
0000003730000274
0000000000000000
0007EF9000004EC2
0009FFF20001DFF2
0002FFF00007FFA0
0005FFB0002EFF30
000BFF60009FFB00
002FFE1003FFF500
009FF9000CFFD000
01FFF3007FFF7000
08FFB003FCFF2000
0DFF401DB9FC0000
3FFD01CD1EFA0000
5FFC4DE22FFC3600
2FFFFD301FFFFD00
07EE910006EEA200
ENDCHAR
STARTCHAR udieresis
ENCODING 252
SWIDTH 553 0
DWIDTH 15 0
BBX 17 21 0 0
BITMAP
0000001BFC2008EE50
0000008FFF804FFFD0
0000007FFF503FFFA0
0000001CF90009FC20
000000000000000000
000000000000000000
000000000000000000
0007EF9000004EC200
0009FFF20001DFF200
0002FFF00007FFA000
0005FFB0002EFF3000
000BFF60009FFB0000
002FFE1003FFF50000
009FF9000CFFD00000
01FFF3007FFF700000
08FFB003FCFF200000
0DFF401DB9FC000000
3FFD01CD1EFA000000
5FFC4DE22FFC360000
2FFFFD301FFFFD0000
07EE910006EEA20000
ENDCHAR
STARTCHAR yacute
ENCODING 253
SWIDTH 549 0
DWIDTH 15 0
BBX 16 31 0 -8
BITMAP
0000000000001000
00000000000BF500
00000000002FFC00
00000000008FF900
0000000003FFE100
000000001DFD2000
00000001CFA10000
0000000173000000
0000000000000000
0005DFA000003ED2
0007FFF40000CFF4
0000FFF20005FFE0
0003FFD0000DFF90
0009FF80006FFF40
001EFF2001EFFD00
007FFB0008FFF800
00EFF5003FFFF300
05FFD001DDFFD000
0BFF600AE7FF7000
1FFE009F59FF2000
2FFE4BF60EFB0000
1FFFFF605FF50000
05DEB300BFD00000
00000002FF600000
0000000BFD000000
0000005FF5000000
000003EFA0000000
00002DFD10000000
0005EFE200000000
02CFFD2000000000
008A610000000000
ENDCHAR
STARTCHAR thorn
ENCODING 254
SWIDTH 552 0
DWIDTH 15 0
BBX 18 31 -3 -8
BITMAP
000000000065000000
0000000003FF400000
0000000006FF500000
0000000009FF200000
000000000DFE000000
000000002FF9000000
000000006FF4000000
00000000BFE0000000
00000001FF80000000
00000006FF33AEEA10
0000000AFC7FCAFFB0
0000001FFCF900CFF2
0000005FFFA000AFF5
000000AFFD1000BFF6
000000EFF40000DFF5
000005FFA00002FFF2
000009FF300007FFC0
00000EFC00001EFF50
00003FF800008FFB00
00008FF70005FFD100
0000DFFB006FFD3000
0003FFDFDDFFC20000
0007FF38EEB5000000
000DFC000000000000
003FF7000000000000
009FF2000000000000
01EFC0000000000000
07FF70000000000000
0DFF10000000000000
5FF900000000000000
2DD100000000000000
ENDCHAR
STARTCHAR ydieresis
ENCODING 255
SWIDTH 549 0
DWIDTH 15 0
BBX 17 29 0 -8
BITMAP
0000008EE5005DE900
000004FFFD00EFFF20
000003FFFA00EFFE00
0000009FC2005ED400
000000000000000000
000000000000000000
000000000000000000
0005DFA000003ED200
0007FFF40000CFF400
0000FFF20005FFE000
0003FFD0000DFF9000
0009FF80006FFF4000
001EFF2001EFFD0000
007FFB0008FFF80000
00EFF5003FFFF30000
05FFD001DDFFD00000
0BFF600AE7FF700000
1FFE009F59FF200000
2FFE4BF60EFB000000
1FFFFF605FF5000000
05DEB300BFD0000000
00000002FF60000000
0000000BFD00000000
0000005FF500000000
000003EFA000000000
00002DFD1000000000
0005EFE20000000000
02CFFD200000000000
008A61000000000000
ENDCHAR
STARTCHAR Amacron
ENCODING 256
SWIDTH 615 0
DWIDTH 17 0
BBX 24 26 -3 0
BITMAP
000000000000000222222220
000000000000009FFFFFFFF8
00000000000002EFFFFFFFA1
000000000000000000000000
000000000000000000000000
000000000000000028CED100
0000000000000007FFFFF100
00000000000001AFC5EFB000
0000000000001CF906FF6000
000000000001CF800DFE1000
00000000000AFA005FFA0000
00000000007FD100BFF40000
0000000003FF4002FFE00000
000000000CF90007FF800000
000000007FE1000DFF300000
00000002EFDBDEFFFFFE4000
000003BFFFFFFFFFFFFE2000
00000DEFF87777EFF8510000
000000CFA00001FFE0000000
000006FF200004FFB0000000
00001EF9000007FF70000000
00009FE200000AFF40000000
0004FF8000000CFF30000000
004EFC0000000BFF74800000
19FFE200000008FFFFB00000
2CEA2000000001AEE9100000
ENDCHAR
STARTCHAR amacron
ENCODING 257
SWIDTH 543 0
DWIDTH 15 0
BBX 16 20 0 -1
BITMAP
0000000222222220
000001CFFFFFFFF4
000005FFFFFFFF80
0000000000000000
0000000000000000
0000003AEEA18EA0
000009FFC9EEFFE1
0001AFF6007FFF80
0009FF70005FFF10
005FFB0000AFF900
01EFF30001EFF300
06FFC00006FFB000
0BFF70000CFF5000
0EFF30005FFE1000
1FFF1001DFFB0000
0FFF0009EFF90000
0CFF107F6FFB1420
05FFCBF70FFFFF20
006DFC4008FFF800
0000000000573000
ENDCHAR
STARTCHAR Abreve
ENCODING 258
SWIDTH 615 0
DWIDTH 17 0
BBX 24 27 -3 0
BITMAP
0000000000000004D900008A
000000000000000BFE313BF7
0000000000000008FFFFFF90
0000000000000001AFFFB500
000000000000000000210000
000000000000000000000000
000000000000000028CED100
0000000000000007EFFFF100
00000000000001AFC5EFB000
0000000000001CF906FF6000
000000000000CF800DFE1000
00000000000AFA005FFA0000
00000000006FD100BFF40000
0000000002FF4002FFE00000
000000000CF90007FF800000
000000006FE1000DFF300000
00000002EFDBDEFFFFFE4000
000002AFFFFFFFFFFFFE2000
00000DEFF87777EFF8510000
000000CFA00001FFE0000000
000006FF200004FFA0000000
00001EF9000007FF70000000
00009FE200000AFF40000000
0004FF8000000CFF30000000
004EFC0000000BFFA7B00000
19FFE200000008FFFFA00000
2CEA2000000001AED8100000
ENDCHAR
STARTCHAR abreve
ENCODING 259
SWIDTH 543 0
DWIDTH 15 0
BBX 16 22 0 -1
BITMAP
00000004E5000096
0000000DF80004F6
0000000EFE317FD1
00000009FFFFFE30
00000001AFFE9200
0000000001200000
0000000000000000
0000003AEEA18EA0
000009FFC9EEFFE1
0001AFF6007FFF80
0009FF70005FFF10
005FFB0000AFF900
01EFF30001EFF300
06FFC00006FFB000
0BFF70000CFF5000
0EFF30005FFE1000
1FFF1001DFFB0000
0FFF0009EFF90000
0CFF107F6FFB1420
05FFCBF70FFFFF20
006DFC4008FFF800
0000000000573000
ENDCHAR
STARTCHAR Aogonek
ENCODING 260
SWIDTH 615 0
DWIDTH 17 0
BBX 22 28 -3 -7
BITMAP
000000000000000028CED1
0000000000000007FFFFF1
00000000000001AFC5EFB0
0000000000001CF906FF60
000000000001CF800DFE10
00000000000AFA005FFA00
00000000007FD100BFF400
0000000003FF4002FFE000
000000000CF90007FF8000
000000007FE1000DFF3000
00000002EFDBDEFFFFFE40
000003BFFFFFFFFFFFFE20
00000DEFF87777EFF85100
000000CFA00001FFE00000
000006FF200004FFB00000
00001EF9000008FF700000
00009FE200000AFF400000
0004FF8000000CFF300000
004EFC0000000BFF97A000
19FFE200000008FFFFB000
2CEA2000000001AFFB1000
00000000000002DF400000
0000000000001DF5000000
000000000000BFA0000000
000000000004FF50000000
000000000009FF86400000
000000000008FFFF300000
000000000002DEC4000000
ENDCHAR
STARTCHAR aogonek
ENCODING 261
SWIDTH 541 0
DWIDTH 15 0
BBX 15 21 0 -7
BITMAP
0000004AEEA18EA0
000009FFB9FEFFE0
0001BFF6007FFF80
000AFF60005FFE10
006FFB0000AFF900
01EFF30001EFF200
06FFB00006FFB000
0BFF70000DFF5000
0EFF30006FFE0000
1FFF1001EFFA0000
0FFF000AEFF80000
0CFF107F7FFB1410
05FFCBF70EFFFF20
006DFC4004EFF500
0000000004EE4000
000000003FF30000
00000001DF700000
00000007FF200000
0000000CFF572000
0000000BFFFD1000
00000004EEA20000
ENDCHAR
STARTCHAR Cacute
ENCODING 262
SWIDTH 533 0
DWIDTH 15 0
BBX 18 27 1 0
BITMAP
0000000000000009E6
000000000000002FFD
00000000000000AFF8
00000000000008FF90
0000000000005EB400
000000000000000000
0000000017CEEB3000
00000007EFFB9EF300
000001BFFB2006FA00
00001CFF900006FE00
0000BFFA00000CFE00
0007FFD100007FFC00
002FFF400006FFF600
00AFFA00008FFFC000
02FFF30000CFFD1000
09FFC0000029810000
0EFF60000000000000
3FFF10000000000000
6FFD00000000000000
8FFB00000000000000
9FF900000000000000
AFF900000000000000
8FFA00000000000000
5FFE00000198000000
0DFF60004DFA000000
03EFFA9DFFD3000000
0029DEFDA500000000
ENDCHAR
STARTCHAR cacute
ENCODING 263
SWIDTH 468 0
DWIDTH 13 0
BBX 14 23 1 0
BITMAP
00000000000010
000000000007F8
00000000000DFF
00000000005FFD
0000000001DFF4
000000000AFE40
00000000AFB300
00000000640000
00000000000000
000004ADFD7000
0001BFFB9EF600
002DFF500BFC00
00CFF6000DFC00
08FFB0007FF900
1FFF3004FFF300
7FFB0002EF7000
CFF70000010000
EFF30000000000
FFF10000000000
EFF20000470000
AFF70005E90000
2EFFA9DFB10000
029DFEB5000000
ENDCHAR
STARTCHAR Ccircumflex
ENCODING 264
SWIDTH 533 0
DWIDTH 15 0
BBX 19 27 1 0
BITMAP
00000000000001AA1000
0000000000002CFF7000
000000000005EFFFD000
0000000005CFE67FF800
000000000BE92009ED10
00000000000000000000
0000000017CEEB300000
00000007EFFB9EF30000
000001BFFB2006FA0000
00001CFF900006FE0000
0000BFFA00000CFE0000
0007FFD100007FFC0000
002FFF400006FFF60000
00AFFA00008FFFC00000
02FFF30000CFFD100000
09FFC000002981000000
0EFF6000000000000000
3FFF1000000000000000
6FFD0000000000000000
8FFB0000000000000000
9FF90000000000000000
AFF90000000000000000
8FFA0000000000000000
5FFE0000019800000000
0DFF60004DFA00000000
03EFFA9DFFD300000000
0029DEFDA50000000000
ENDCHAR
STARTCHAR ccircumflex
ENCODING 265
SWIDTH 468 0
DWIDTH 13 0
BBX 14 22 1 0
BITMAP
00000000001500
0000000002DF80
000000003DFFC0
00000006FFCFF1
000003BFE54FF6
00008FFB200CFD
00002740000175
00000000000000
000004ADFD7000
0001BFFB9EF600
002DFF500BFC00
00CFF6000DFC00
08FFB0007FF900
1FFF3004FFF300
7FFB0002EF7000
CFF70000010000
EFF30000000000
FFF10000000000
EFF20000470000
AFF70005E90000
2EFFA9DFB10000
029DFEB5000000
ENDCHAR
STARTCHAR Cdotaccent
ENCODING 266
SWIDTH 533 0
DWIDTH 15 0
BBX 16 27 1 0
BITMAP
0000000000016720
00000000000DFFD0
00000000002FFFE0
00000000000CFF80
0000000000017500
0000000000000000
0000000017CEEB30
00000007EFFB9EF3
000001BFFB2006FA
00001CFF900006FE
0000BFFA00000CFE
0007FFD100007FFC
002FFF400006FFF6
00AFFA00008FFFC0
02FFF30000CFFD10
09FFC00000298100
0EFF600000000000
3FFF100000000000
6FFD000000000000
8FFB000000000000
9FF9000000000000
AFF9000000000000
8FFA000000000000
5FFE000001980000
0DFF60004DFA0000
03EFFA9DFFD30000
0029DEFDA5000000
ENDCHAR
STARTCHAR cdotaccent
ENCODING 267
SWIDTH 468 0
DWIDTH 13 0
BBX 12 21 1 0
BITMAP
000000007EE6
00000003FFFD
00000002FFFB
000000008FC2
000000000000
000000000000
000000000000
000004ADFD70
0001BFFB9EF6
002DFF500BFC
00CFF6000DFC
08FFB0007FF9
1FFF3004FFF3
7FFB0002EF70
CFF700000100
EFF300000000
FFF100000000
EFF200004700
AFF70005E900
2EFFA9DFB100
029DFEB50000
ENDCHAR
STARTCHAR Ccaron
ENCODING 268
SWIDTH 533 0
DWIDTH 15 0
BBX 19 27 1 0
BITMAP
0000000003BD800007B0
0000000002DFF702BFE0
00000000003FFE9FFD40
00000000000AFFFA5000
000000000002A7100000
00000000000000000000
0000000017CEEB300000
00000007EFFB9EF30000
000001BFFB2006FA0000
00001CFF900006FE0000
0000BFFA00000CFE0000
0007FFD100007FFC0000
002FFF400006FFF60000
00AFFA00008FFFC00000
02FFF30000CFFD100000
09FFC000002981000000
0EFF6000000000000000
3FFF1000000000000000
6FFD0000000000000000
8FFB0000000000000000
9FF90000000000000000
AFF90000000000000000
8FFA0000000000000000
5FFE0000019800000000
0DFF60004DFA00000000
03EFFA9DFFD300000000
0029DEFDA50000000000
ENDCHAR
STARTCHAR ccaron
ENCODING 269
SWIDTH 468 0
DWIDTH 13 0
BBX 16 21 1 0
BITMAP
0000004A90000099
0000004FF7001BFB
0000000DFC05EFD2
00000008FEBFE700
00000004FFE81000
0000000086100000
0000000000000000
000004ADFD700000
0001BFFB9EF60000
002DFF500BFC0000
00CFF6000DFC0000
08FFB0007FF90000
1FFF3004FFF30000
7FFB0002EF700000
CFF7000001000000
EFF3000000000000
FFF1000000000000
EFF2000047000000
AFF70005E9000000
2EFFA9DFB1000000
029DFEB500000000
ENDCHAR
STARTCHAR Dcaron
ENCODING 270
SWIDTH 630 0
DWIDTH 18 0
BBX 18 27 1 0
BITMAP
000000007CC40001B6
000000005FFE205EF8
0000000008FFBCFFA1
0000000001FFFE8200
00000000005A500000
000000000000000000
00048BDEFEDA610000
01DFFFFC99AEFE6000
01DFF82000019FF800
0017301100000AFF40
00000AFF700002FFB0
00004FFF400000EFF0
0000CFFA000000DFF2
0005FFF2000000EFF1
000CFFA0000001FFF0
003FFF30000005FFC0
009FFB0000000AFF80
01EFF50000002FFF20
05FFE0000000BFFA00
0AFF90000005FFE200
0EFF3000003EFF6000
3FFE000002DFF90000
7FF900002DFFA00000
9FF60004EFF9000000
9FF4029FFE60000000
3FFBAFFFA200000000
03BEEC820000000000
ENDCHAR
STARTCHAR dcaron
ENCODING 271
SWIDTH 557 0
DWIDTH 16 0
BBX 22 23 1 0
BITMAP
000000000000005EC11BE8
00000000000001EFE14FFD
00000000000007FF800EFC
0000000000000DFF200EF8
0000000000003FFC004FE1
0000000000009FF601CF40
000000000000EFF109E400
000000000003FFB0010000
000000000008FF60000000
0000018DFC4DFF10000000
00005EFD9DFFFB00000000
0005FFA102FFF600000000
004FFB0000EFF100000000
01EFE10003FFC000000000
09FF700008FF7000000000
1FFE10000DFF3000000000
7FFA00005FFE0000000000
BFF60000DFFA0000000000
CFF40007FFF60000000000
CFF3003FDFF30000000000
AFF502DB7FF74800000000
4FFDAEC13FFFFA00000000
05CFD70007EE9100000000
ENDCHAR
STARTCHAR Dcroat
ENCODING 272
SWIDTH 630 0
DWIDTH 18 0
BBX 18 21 0 0
BITMAP
000159BDEFEC950000
003EFFFFB99BFFD400
002EFE7100002BFF50
00026202100001CFE2
000001DFF500006FF8
000007FFE200002FFC
00001EFF7000001FFE
00008FFE0000002FFD
07FFFFFFFFF4004FFC
2FFFFFFFFFD1008FF9
045FFFD5551000DFF5
003FFF20000005FFD0
008FFB0000001DFF70
00DFF60000008FFC00
02FFF1000005FFF300
06FFB000003EFF6000
0AFF600004EFF70000
0CFF30007FFF700000
0CFF103BFFD4000000
06FF9BFFF810000000
005CEEB71000000000
ENDCHAR
STARTCHAR dcroat
ENCODING 273
SWIDTH 557 0
DWIDTH 16 0
BBX 18 23 1 0
BITMAP
000000000000005EC1
00000000000001EFE0
00000000000007FF80
000000003CDDDFFFEA
00000000DFFFFFFFD4
000000000000AFF400
000000000000EFE000
000000000004FF9000
000000000008FF4000
0000018DFC4DFE0000
00005EFD9DFFFA0000
0005FFA102FFF50000
004FFB0000EFF10000
01EFE10003FFB00000
09FF700008FF700000
1FFE10000DFF300000
7FFA00005FFE000000
BFF60000DFFA000000
CFF40007FFF6000000
CFF3003FDFF4000000
AFF502DB7FF7480000
4FFDAEC13FFFFA0000
05CFD70007EE910000
ENDCHAR
STARTCHAR Emacron
ENCODING 274
SWIDTH 509 0
DWIDTH 14 0
BBX 17 26 1 0
BITMAP
000000002222222200
0000001CFFFFFFFF40
0000005FFFFFFFF800
000000000000000000
000000000000000000
000000049DFED81000
000001BFFFC9AFC000
00003DFFB2000CF300
0001DFFA00001EF500
000BFFC00000BFF300
004FFF20002CFFC000
009FFA0004EFFE3000
00BFF50006FFE40000
00BFF3000067200000
008FF5000000000000
001EFE8A9200000000
0003EFFFF800000000
004EFFFA5100000000
04FFFD300000000000
1EFFC1000000000000
8FFE10000000000000
BFF8000003B0000000
DFF500003EF2000000
9FF80006EFC0000000
1DFFA9DFFA10000000
018CEED93000000000
ENDCHAR
STARTCHAR emacron
ENCODING 275
SWIDTH 471 0
DWIDTH 13 0
BBX 14 19 1 0
BITMAP
00000222222220
0002DFFFFFFFF3
0006FFFFFFFE70
00000000000000
00000000000000
000003AEFD5000
00008FFBBFF400
000AFF400FFA00
009FF7001FFB00
04FFD0006FF900
0CFF6003EFF300
4FFE104EFF8000
9FFB6BFFE60000
CFFFFFC7100000
DFF52000000000
BFF40000060000
7FF90004CF2000
1CFFBACFF90000
018DFED9400000
ENDCHAR
STARTCHAR Ebreve
ENCODING 276
SWIDTH 509 0
DWIDTH 14 0
BBX 17 27 1 0
BITMAP
000000006E50000B60
00000000EFC215CF40
00000000CFFFFFF600
000000002BFFFA3000
000000000012000000
000000000000000000
000000049DFED81000
000001BFFFC9AFC000
00003DFFB2000CF300
0001DFFA00001EF500
000BFFC00000BFF300
004FFF20002CFFC000
009FFA0004EFFE3000
00BFF50006FFE40000
00BFF3000067200000
008FF5000000000000
001EFE8A9200000000
0003EFFFF800000000
004EFFFA5100000000
04FFFD300000000000
1EFFC1000000000000
8FFE10000000000000
BFF8000003B0000000
DFF500003EF2000000
9FF80006EFC0000000
1DFFA9DFFA10000000
018CEED93000000000
ENDCHAR
STARTCHAR ebreve
ENCODING 277
SWIDTH 471 0
DWIDTH 13 0
BBX 14 21 1 0
BITMAP
000006E30000A5
00000FF70006F5
00001FFD218FC0
00000BFFFFFD20
000001BFFE9100
00000001200000
00000000000000
000003AEFD5000
00008FFBBFF400
000AFF400FFA00
009FF7001FFB00
04FFD0006FF900
0CFF6003EFF300
4FFE104EFF8000
9FFB6BFFE60000
CFFFFFC7100000
DFF52000000000
BFF40000060000
7FF90004CF2000
1CFFBACFF90000
018DFED9400000
ENDCHAR
STARTCHAR Edotaccent
ENCODING 278
SWIDTH 509 0
DWIDTH 14 0
BBX 16 27 1 0
BITMAP
0000000002761000
000000002EFFA000
000000005FFFB000
000000001EFF5000
0000000002740000
0000000000000000
000000049DFED810
000001BFFFC9AFC0
00003DFFB2000CF3
0001DFFA00001EF5
000BFFC00000BFF3
004FFF20002CFFC0
009FFA0004EFFE30
00BFF50006FFE400
00BFF30000672000
008FF50000000000
001EFE8A92000000
0003EFFFF8000000
004EFFFA51000000
04FFFD3000000000
1EFFC10000000000
8FFE100000000000
BFF8000003B00000
DFF500003EF20000
9FF80006EFC00000
1DFFA9DFFA100000
018CEED930000000
ENDCHAR
STARTCHAR edotaccent
ENCODING 279
SWIDTH 471 0
DWIDTH 13 0
BBX 12 21 1 0
BITMAP
00000008ED50
0000004FFFC0
0000003FFF90
00000009FB10
000000000000
000000000000
000000000000
000003AEFD50
00008FFBBFF4
000AFF400FFA
009FF7001FFB
04FFD0006FF9
0CFF6003EFF3
4FFE104EFF80
9FFB6BFFE600
CFFFFFC71000
DFF520000000
BFF400000600
7FF90004CF20
1CFFBACFF900
018DFED94000
ENDCHAR
STARTCHAR Eogonek
ENCODING 280
SWIDTH 509 0
DWIDTH 14 0
BBX 16 28 1 -7
BITMAP
000000049DFED810
000001BFFFC9AFC0
00003DFFB2000CF3
0001DFFA00001EF5
000BFFC00000BFF3
004FFF20002CFFC0
009FFA0004EFFE30
00BFF50006FFE400
00BFF30000672000
008FF50000000000
001EFE8A92000000
0003EFFFF8000000
004EFFFA51000000
04FFFD3000000000
2EFFC10000000000
8FFE100000000000
CFF8000003B00000
DFF500003EF20000
9FF80006EFD00000
1DFFA9DFFD200000
018CEFFE81000000
00007FD200000000
0007FD1000000000
003FF40000000000
00BFD00000000000
01FFE48000000000
00FFFFB000000000
007EE91000000000
ENDCHAR
STARTCHAR eogonek
ENCODING 281
SWIDTH 471 0
DWIDTH 13 0
BBX 12 21 1 -7
BITMAP
000003AEFD50
00008FFBBFF5
000BFF500FFA
009FF7000FFC
04FFD0006FFA
0DFF6003EFF4
4FFE104EFF80
9FFC6BFFE600
CFFFFFC71000
CFF620000000
BFF400000600
7FF90003CF20
1CFFBACFFC00
018DFFFF9000
00003EF60000
0003EF500000
000DF9000000
006FF3000000
00BFF6630000
00AFFFE20000
003DEB300000
ENDCHAR
STARTCHAR Ecaron
ENCODING 282
SWIDTH 509 0
DWIDTH 14 0
BBX 17 27 1 0
BITMAP
00000005CC60001A80
00000003EFF404DFB0
000000006FFCAFFC20
000000000DFFE93000
0000000003A6100000
000000000000000000
000000049DFED81000
000001BFFFC9AFC000
00003DFFB2000CF300
0001DFFA00001EF500
000BFFC00000BFF300
004FFF20002CFFC000
009FFA0004EFFE3000
00BFF50006FFE40000
00BFF3000067200000
008FF5000000000000
001EFE8A9200000000
0003EFFFF800000000
004EFFFA5100000000
04FFFD300000000000
1EFFC1000000000000
8FFE10000000000000
BFF8000003B0000000
DFF500003EF2000000
9FF80006EFC0000000
1DFFA9DFFA10000000
018CEED93000000000
ENDCHAR
STARTCHAR ecaron
ENCODING 283
SWIDTH 471 0
DWIDTH 13 0
BBX 15 21 1 0
BITMAP
000005B800000A80
000005FF6002CF90
000000EFB06EFC20
0000009FECFE7000
0000005FFE710000
0000000850000000
0000000000000000
000003AEFD500000
00008FFBBFF40000
000AFF400FFA0000
009FF7001FFB0000
04FFD0006FF90000
0CFF6003EFF30000
4FFE104EFF800000
9FFB6BFFE6000000
CFFFFFC710000000
DFF5200000000000
BFF4000006000000
7FF90004CF200000
1CFFBACFF9000000
018DFED940000000
ENDCHAR
STARTCHAR Gcircumflex
ENCODING 284
SWIDTH 598 0
DWIDTH 17 0
BBX 18 27 1 0
BITMAP
00000000000001BA10
0000000000002CFF60
000000000006EFFFC0
0000000006CFE58FF7
000000000CE8100AFD
000000000000000000
0000000017CEEC4000
00000006EFFB9DF400
000000AFFC2005FC00
00000BFFB00005FF00
0000AFFC00000BFF10
0006FFE200006FFD00
001EFF600006FFF700
009FFC00007FFFC000
02FFF50000AFFD2000
07FFD0000018710000
0CFF80000000000000
1FFF30000452015300
5FFE0000AFFFFFF700
7FFB0001CFFFFFE200
8FF9000006FFEA2000
9FF8000001FF200000
7FF9000004FD000000
4FFC00000BF5000000
0DFF50009FA0000000
03EFFA9DF900000000
0029DFEA3000000000
ENDCHAR
STARTCHAR gcircumflex
ENCODING 285
SWIDTH 526 0
DWIDTH 15 0
BBX 15 30 1 -8
BITMAP
0000000000050000
0000000001BFB000
000000002CFFF000
00000004EFCFF400
000002AFF71FF900
00005FFC300AFE10
0000165000006600
0000000000000000
000003AEEB203000
00008FFBAFD9FB00
001AFF6004FFFA00
00AFF70000EFF400
05FFC00004FFD000
0DFF500009FF8000
5FFE00001EFF4000
AFF900007FFE0000
DFF50001EFF90000
EFF30009FFF50000
DFF2005FFFE10000
AFF404EDFFA00000
4FFDAFC7FF500000
05DEC70AFE100000
0000002FF8000000
0000008FF2000000
000002FF90000000
00000BFE10000000
00009FF500000000
002BFF8000000000
1AFFF70000000000
09C9200000000000
ENDCHAR
STARTCHAR Gbreve
ENCODING 286
SWIDTH 598 0
DWIDTH 17 0
BBX 19 27 1 0
BITMAP
00000000005E70000990
0000000000CFD314BF60
0000000000AFFFFFF800
00000000001AFFFB4000
00000000000012000000
00000000000000000000
0000000017CEEC400000
00000006EFFB9DF40000
000000AFFC2005FC0000
00000BFFB00005FF0000
0000AFFC00000BFF1000
0006FFE200006FFD0000
001EFF600006FFF70000
009FFC00007FFFC00000
02FFF50000AFFD200000
07FFD000001871000000
0CFF8000000000000000
1FFF3000045201530000
5FFE0000AFFFFFF70000
7FFB0001CFFFFFE20000
8FF9000006FFEA200000
9FF8000001FF20000000
7FF9000004FD00000000
4FFC00000BF500000000
0DFF50009FA000000000
03EFFA9DF90000000000
0029DFEA300000000000
ENDCHAR
STARTCHAR gbreve
ENCODING 287
SWIDTH 526 0
DWIDTH 15 0
BBX 15 29 1 -8
BITMAP
0000003D70000690
000000BFB0003E90
000000BFF416EE20
0000007FFFFFE400
00000008FFFB3000
0000000002000000
0000000000000000
000003AEEB203000
00008FFBAFD9FB00
001AFF6004FFFA00
00AFF70000EFF400
05FFC00004FFD000
0DFF500009FF8000
5FFE00001EFF4000
AFF900007FFE0000
DFF50001EFF90000
EFF30009FFF50000
DFF2005FFFE10000
AFF404EDFFA00000
4FFDAFC7FF500000
05DEC70AFE100000
0000002FF8000000
0000008FF2000000
000002FF90000000
00000BFE10000000
00009FF500000000
002BFF8000000000
1AFFF70000000000
09C9200000000000
ENDCHAR
STARTCHAR Gdotaccent
ENCODING 288
SWIDTH 598 0
DWIDTH 17 0
BBX 17 27 1 0
BITMAP
000000000001661000
00000000001DFFC000
00000000003FFFD000
00000000000DFF7000
000000000002750000
000000000000000000
0000000017CEEC4000
00000006EFFB9DF400
000000AFFC2005FC00
00000BFFB00005FF00
0000AFFC00000BFF10
0006FFE200006FFD00
001EFF600006FFF700
009FFC00007FFFC000
02FFF50000AFFD2000
07FFD0000018710000
0CFF80000000000000
1FFF30000452015300
5FFE0000AFFFFFF700
7FFB0001CFFFFFE200
8FF9000006FFEA2000
9FF8000001FF200000
7FF9000004FD000000
4FFC00000BF5000000
0DFF50009FA0000000
03EFFA9DF900000000
0029DFEA3000000000
ENDCHAR
STARTCHAR gdotaccent
ENCODING 289
SWIDTH 526 0
DWIDTH 15 0
BBX 14 29 1 -8
BITMAP
000000005EE800
00000000FFFF10
00000000EFFD00
000000005FD400
00000000000000
00000000000000
00000000000000
000003AEEB2030
00008FFBAFD9FB
001AFF6004FFFA
00AFF70000EFF4
05FFC00004FFD0
0DFF500009FF80
5FFE00001EFF40
AFF900007FFE00
DFF50001EFF900
EFF30009FFF500
DFF2005FFFE100
AFF404EDFFA000
4FFDAFC7FF5000
05DEC70AFE1000
0000002FF80000
0000008FF20000
000002FF900000
00000BFE100000
00009FF5000000
002BFF80000000
1AFFF700000000
09C92000000000
ENDCHAR
STARTCHAR Gcommaaccent
ENCODING 290
SWIDTH 598 0
DWIDTH 17 0
BBX 17 29 1 -8
BITMAP
0000000017CEEB3000
00000006EFFB9DF300
000000AFFC2005FB00
00000BFFB00004FE00
0000AFFC000009FF10
0006FFE200003FFE00
001EFF600001DFFA00
009FFC00002CFFF300
02FFF50000BFFF8000
07FFD000007FFA0000
0CFF80000004400000
1FFF30000000000000
5FFE00000563015300
7FFB0000BFFFFFF700
8FF900007DFFFFE200
9FF8000003FFEA2000
7FF9000002FF200000
4FFC000009FB000000
0DFF50008FE2000000
03EFFA9DFC20000000
0029DFEB5000000000
000000000000000000
002981000000000000
00DFF7000000000000
009FF8000000000000
004FF4000000000000
008FC0000000000000
03FD20000000000000
0CA200000000000000
ENDCHAR
STARTCHAR gcommaaccent
ENCODING 291
SWIDTH 526 0
DWIDTH 15 0
BBX 14 30 1 -8
BITMAP
00000000004C80
0000000007FC10
000000004FF300
00000000AFF200
00000000BFFA00
000000003A9200
00000000000000
00000000000000
000003AEEB2030
00008FFBAFD9FB
001AFF6004FFFA
00AFF70000EFF4
05FFC00004FFD0
0DFF500009FF80
5FFE00001EFF40
AFF900007FFE00
DFF50001EFF900
EFF30009FFF500
DFF2005FFFE100
AFF404EDFFA000
4FFDAFC7FF5000
05DEC70AFE1000
0000002FF80000
0000008FF20000
000002FF900000
00000BFE100000
00009FF5000000
002BFF80000000
1AFFF700000000
09C92000000000
ENDCHAR
STARTCHAR Hcircumflex
ENCODING 292
SWIDTH 668 0
DWIDTH 19 0
BBX 21 27 -1 0
BITMAP
000000000000005D500000
00000000000007FFE00000
000000000002BFFFF50000
00000000029FFB2EFE1000
0000000004EC5004DF6000
0000000000000000000000
00018CEFD700000001DD30
0004FFCDFF30000004FFA0
0000440BFF40000008FF80
0000000EFF3000000BFF40
0000002FFF0000001FFE10
0000005FFC0000005FFA00
0000009FF8000000AFF500
000000EFF4000001EFE000
000003FFE0000005FF8000
000019FFEBDEEFFFFFE700
0004EFFFBA999ACFFFB200
0002AFFD0000008FF40000
00009FF7000000DFD00000
0001EFF1000003FF800000
0006FF90000009FF300000
000DFF2000000EFD000000
006FF90000004FF8000000
01EFE10000008FF5000000
0AFF50000000AFF7570000
9FF7000000008FFFF70000
CD60000000001CFC600000
ENDCHAR
STARTCHAR hcircumflex
ENCODING 293
SWIDTH 555 0
DWIDTH 16 0
BBX 15 27 0 0
BITMAP
000000002C800000
00000002DFF30000
0000005EFFF60000
000019FF6EFA0000
0007EFD30AFE1000
001DD70002CE4000
0000009E60000000
000000FFE0000000
000003FFE0000000
000006FFB0000000
000008FF70000000
00000DFF30000000
00002FFE00000000
00006FF9019EE700
0000AFF41CFFFF30
0001FFD0BFEFFF60
0005FF77FA0AFF40
000BFF6FA01EFE00
001FFCEC007FF900
007FFFD101EFF200
00DFFE3007FFA000
04FFF5000CFF3000
0AFF90003FFD0000
2FFF20006FF90000
9FF800007FFA4800
EFF200004FFFFC00
7E70000007EE9100
ENDCHAR
STARTCHAR Hbar
ENCODING 294
SWIDTH 668 0
DWIDTH 19 0
BBX 23 21 -1 0
BITMAP
00018CEFD700000001DD3000
0004FFCDFF30000004FFA000
0000440BFF40000007FF9000
0000000EFF3000000AFF5000
0000001FFF1011222EFF4200
00049CFFFFEFFFFFFFFFFF80
002FFFFFFFFFFFFFFFFEFB10
000242CFF5000000EFE00000
000001FFE0000005FF800000
000006FFEBDEEFFFFFE70000
0002AFFFBA999ACFFFC20000
0004DFFD0000008FF4000000
00007FF7000000DFD0000000
0000DFF1000003FF80000000
0005FF90000009FF30000000
000CFF2000000EFD00000000
005FF90000004FF800000000
01DFE10000008FF500000000
09FF50000000AFF757000000
8FF7000000008FFFF7000000
CD60000000001CFC60000000
ENDCHAR
STARTCHAR hbar
ENCODING 295
SWIDTH 555 0
DWIDTH 16 0
BBX 15 23 0 0
BITMAP
0000003EB1000000
0000007FF6000000
000000AFF6000000
000178EFFA887000
000AFFFFFFFD6000
000006FF90000000
00000AFF50000000
00000DFF10000000
00002FFB00000000
00007FF6019EE700
0000BFF11CFFFF40
0001FFB0AFEFFF60
0006FF67FA1AFF40
000BFF5FA00EFE00
001FFBDB006FF900
007FFED100DFF200
00CFFE2006FFA000
03FFF5000DFF3000
0AFF90003FFD0000
2FFF20006FF90000
9FF900007FFA4800
EFF200004FFFFC00
7E80000007EEA100
ENDCHAR
STARTCHAR Itilde
ENCODING 296
SWIDTH 327 0
DWIDTH 9 0
BBX 16 27 -1 0
BITMAP
0000003BEC3000C3
000004FFFFF51AF2
00001EFDFFFFFF60
00004E402BFFD500
0000010000120000
0000000000000000
00006BEFD8000000
0000DFEBFF800000
00001615FFA00000
00000007FFA00000
0000000BFF700000
0000000EFF400000
0000002FFF100000
0000006FFC000000
000000BFF8000000
000001FFF3000000
000005FFD0000000
00000AFF80000000
00001EFF30000000
00006FFC00000000
0000CFF500000000
0004FFD000000000
000BFF5000000000
005FFB0000000000
02EFE20000000000
1DFF400000000000
2EC3000000000000
ENDCHAR
STARTCHAR itilde
ENCODING 297
SWIDTH 286 0
DWIDTH 8 0
BBX 13 21 0 0
BITMAP
0004CEC2001D20
006FFFFE32BE10
02FFDFFFFFF500
06E303CFFC4000
00100001100000
00000000000000
00000000000000
0008EFB0000000
000BFFF0000000
0003FFD0000000
0005FF80000000
000BFF20000000
002FFA00000000
008FF300000000
01EFB000000000
06FF4000000000
0BFE0000000000
1FFA0000000000
3FFEA900000000
1FFFFA00000000
06EEA100000000
ENDCHAR
STARTCHAR Imacron
ENCODING 298
SWIDTH 327 0
DWIDTH 9 0
BBX 15 26 -1 0
BITMAP
0000002222222200
000009FFFFFFFF70
00002EFFFFFFFA10
0000000000000000
0000000000000000
00006BEFD8000000
0000DFEBFF800000
00001615FFA00000
00000007FFA00000
0000000BFF700000
0000000EFF400000
0000002FFF100000
0000006FFC000000
000000BFF8000000
000001FFF3000000
000005FFD0000000
00000AFF80000000
00001EFF30000000
00006FFC00000000
0000CFF500000000
0004FFD000000000
000BFF5000000000
005FFB0000000000
02EFE20000000000
1DFF400000000000
2EC3000000000000
ENDCHAR
STARTCHAR imacron
ENCODING 299
SWIDTH 286 0
DWIDTH 8 0
BBX 12 19 0 0
BITMAP
000222222220
03EFFFFFFFF1
09FFFFFFFE50
000000000000
000000000000
0008EFB00000
000BFFF00000
0003FFD00000
0005FF800000
000BFF200000
002FFA000000
008FF3000000
01EFB0000000
06FF40000000
0BFE00000000
1FFA00000000
3FFEA9000000
1FFFFA000000
06EEA1000000
ENDCHAR
STARTCHAR Ibreve
ENCODING 300
SWIDTH 327 0
DWIDTH 9 0
BBX 15 27 -1 0
BITMAP
0000003D80000690
000000BFC0003E90
000000BFF737FE20
0000005FFFFFE400
00000006DED92000
0000000000000000
00006BEFD8000000
0000DFEBFF800000
00001615FFA00000
00000007FFA00000
0000000BFF700000
0000000EFF400000
0000002FFF100000
0000006FFC000000
000000BFF8000000
000001FFF3000000
000005FFD0000000
00000AFF80000000
00001EFF30000000
00006FFC00000000
0000CFF500000000
0004FFD000000000
000BFF5000000000
005FFB0000000000
02EFE20000000000
1DFF400000000000
2EC3000000000000
ENDCHAR
STARTCHAR ibreve
ENCODING 301
SWIDTH 286 0
DWIDTH 8 0
BBX 12 21 0 0
BITMAP
0004E5000087
000DF80004F7
000EFE317FD1
0009FFFFFE30
0001AFFE9200
000001200000
000000000000
0008EFB00000
000BFFF00000
0003FFD00000
0005FF800000
000BFF200000
002FFA000000
008FF3000000
01EFB0000000
06FF40000000
0BFE00000000
1FFA00000000
3FFEA9000000
1FFFFA000000
06EEA1000000
ENDCHAR
STARTCHAR Iogonek
ENCODING 302
SWIDTH 327 0
DWIDTH 9 0
BBX 14 28 -4 -7
BITMAP
00000006BEFD80
0000000DFEBFF8
00000001615FFA
00000000008FF9
0000000000BFF7
0000000000EFF4
0000000002FFF1
0000000007FFB0
000000000BFF70
000000001FFF20
000000005FFC00
00000000BFF700
00000001FFF200
00000007FFA000
0000000DFF4000
0000006FFB0000
000000DFF30000
000008FF800000
00005FFC000000
0003FFC1000000
0008F800000000
00BF6000000000
0AF90000000000
5FF20000000000
BFF25100000000
DFFFE100000000
7FFC3000000000
01100000000000
ENDCHAR
STARTCHAR iogonek
ENCODING 303
SWIDTH 297 0
DWIDTH 8 0
BBX 11 28 -1 -7
BITMAP
0000003DFA10
000000CFFF40
000000CFFF20
0000003EE600
000000000000
000000000000
000000000000
00005DFD2000
00008FFF5000
00000EFF2000
00001FFD0000
00006FF70000
0000CFF10000
0003FF900000
0009FF300000
001EFB000000
006FF5000000
00AFF1000000
00DFE1100000
00DFFFF10000
007FFF800000
000CF7000000
00BF70000000
09FA00000000
4FF400000000
9FF763000000
9FFFE2000000
3DEB30000000
ENDCHAR
STARTCHAR Idotaccent
ENCODING 304
SWIDTH 327 0
DWIDTH 9 0
BBX 11 27 -1 0
BITMAP
000000016720
0000000DFFD0
0000002FFFE0
0000000CFF80
000000017500
000000000000
00006BEFD800
0000DFEBFF80
00001615FFA0
00000007FFA0
0000000BFF70
0000000EFF40
0000002FFF10
0000006FFC00
000000BFF800
000001FFF300
000005FFD000
00000AFF8000
00001EFF3000
00006FFC0000
0000CFF50000
0004FFD00000
000BFF500000
005FFB000000
02EFE2000000
1DFF40000000
2EC300000000
ENDCHAR
STARTCHAR dotlessi
ENCODING 305
SWIDTH 286 0
DWIDTH 8 0
BBX 7 14 0 0
BITMAP
0008EFB0
000BFFF0
0003FFD0
0005FF80
000BFF20
002FFA00
008FF300
01EFB000
06FF4000
0BFE0000
1FFA0000
3FFEA900
1FFFFA00
06EEA100
ENDCHAR
STARTCHAR IJ
ENCODING 306
SWIDTH 720 0
DWIDTH 20 0
BBX 22 29 -1 -8
BITMAP
00006BEFD8000028CEED81
0000DFEBFF802AFFFDAFFC
00001615FFA2EFFE503FFF
00000007FFA4FFD2005FFE
0000000BFF704810008FFC
0000000EFF40000000BFF9
0000002FFF10000001FFF5
0000006FFC00000004FFF1
000000BFF800000009FFC0
000001FFF30000000DFF80
000005FFD00000003FFF30
00000AFF800000008FFD00
00001EFF30000000DFF800
00006FFC00000005FFF200
0000CFF50000000BFFB000
0004FFD00000002FFF5000
000BFF500000009FFD0000
005FFB00000001EFF70000
02EFE200000007FFE10000
1DFF400000001EFF600000
2EC3000000008FFD000000
000000000002FFF4000000
00000000000BFFA0000000
00000000006FFD10000000
0000000003FFF300000000
000000002EFF5000000000
00000003EFF50000000000
0000019FFE400000000000
000007FD81000000000000
ENDCHAR
STARTCHAR ij
ENCODING 307
SWIDTH 567 0
DWIDTH 16 0
BBX 17 29 0 -8
BITMAP
000006EE70004DFA00
00001FFFF000DFFF40
00001FFFC000CFFF10
000006FD30003EE500
000000000000000000
000000000000000000
000000000000000000
0008EFB0001AEE7000
000BFFF0002EFFC000
0003FFD00008FFB000
0005FF800008FF9000
000BFF20000AFF6000
002FFA00000CFF3000
008FF300000FFE0000
01EFB000004FFB0000
06FF4000008FF60000
0BFE000000DFF20000
1FFA000002FFC00000
3FFEA90007FF700000
1FFFFA000DFF100000
06EEA1004FFA000000
00000000BFF3000000
00000002FFA0000000
0000000AFF20000000
0000004FF700000000
000001DFC000000000
00001BFD1000000000
0004DFC20000000000
000AE8100000000000
ENDCHAR
STARTCHAR Jcircumflex
ENCODING 308
SWIDTH 393 0
DWIDTH 11 0
BBX 20 35 -5 -8
BITMAP
00000000000000005100
000000000000000AFC00
00000000000002CFFF40
0000000000018EF9FFC0
00000000004EFD508FF7
00000000000650000573
00000000038CFEC71000
00000003BFFFCBFFA000
0000003EFFD405FFD000
0000006FFC1007FFC000
0000000791000AFF9000
0000000000000EFF6000
0000000000003FFF3000
0000000000007FFE0000
000000000000BFFA0000
000000000001FFF50000
000000000006FFE10000
00000000000BFFA00000
00000000001FFF500000
00000000007FFE100000
0000000000DFF9000000
0000000004FFF2000000
000000000BFFB0000000
000000003FFF40000000
00000000AFFC00000000
00000003FFF400000000
0000000BFFB000000000
0000004FFF2000000000
000001DFF70000000000
000009FFC00000000000
00005FFE200000000000
0004FFE3000000000000
005FFE30000000000000
2AFFD300000000000000
9FC70000000000000000
ENDCHAR
STARTCHAR jcircumflex
ENCODING 309
SWIDTH 282 0
DWIDTH 8 0
BBX 16 29 -5 -8
BITMAP
000000000001C800
00000000002DFF30
0000000005EFFF60
000000019FF6EFA0
0000007EFD309FF1
000001DE71001CF5
0000000000000000
00000000AEE80000
00000001EFFD0000
000000007FFC0000
000000007FFA0000
000000009FF70000
00000000CFF40000
00000000FFF10000
00000004FFB00000
00000008FF700000
0000000DFF200000
0000002FFC000000
0000007FF7000000
000000DFF2000000
000005FFA0000000
00000BFF30000000
00003FFB00000000
0000BFF300000000
0004FF8000000000
001DFC0000000000
01BFD20000000000
4CFD200000000000
9E81000000000000
ENDCHAR
STARTCHAR Kcommaaccent
ENCODING 310
SWIDTH 616 0
DWIDTH 17 0
BBX 21 29 -2 -8
BITMAP
00004ADFD70000005EC300
0000EFEBFF7000003FFD00
00003714FFB000001FFF20
00000007FFB000003FFF10
0000000AFF8000008FFC00
0000000DFF600002EFF400
0000001FFF20000CFF9000
0000005FFE0000AFF90000
000000AFFA001BFF800000
000000EFF602CFE4000000
000004FFF14EFB20000000
000009FFC7FF7000000000
00000EFFEFF90000000000
00005FFF4EFF6000000000
0000BFFA04FFF300000000
0003FFF3009FFD00000000
000AFFA0001EFF80000000
004FFE200007FFF4000000
01DFF6000000CFFE200000
1CFF900000002DFFE98000
2ED600000000019EFC5000
0000000000000000000000
0000004960000000000000
000002FFF3000000000000
000001DFF3000000000000
0000009FE1000000000000
000000DF70000000000000
000008FA00000000000000
00002E8000000000000000
ENDCHAR
STARTCHAR kcommaaccent
ENCODING 311
SWIDTH 497 0
DWIDTH 14 0
BBX 15 30 0 -8
BITMAP
0000003EB1000000
0000008FF4000000
000000BFF3000000
000000DFF1000000
000002FFC0000000
000006FF70000000
00000AFF30000000
00000EFD00000000
00003FF8007EE700
00008FF3006FFF10
0000DFC0004FFF10
0003FF6001CFF900
0008FE102CFFC100
000DF918FFE70000
004FFBEFD7100000
00AFFFFC00000000
02FFECFF20000000
08FF67FFA0000000
1EFE01EFF6000000
8FF7007FFF97B100
EFE1000BFFFFC000
8E6000019EE91000
0000000000000000
0006940000000000
006FFE0000000000
003FFF0000000000
000CFB0000000000
002FF40000000000
00BF700000000000
05D5000000000000
ENDCHAR
STARTCHAR kgreenlandic
ENCODING 312
SWIDTH 497 0
DWIDTH 14 0
BBX 15 14 0 0
BITMAP
0008EE50006EE800
000CFFD0004FFF30
0004FFB0002FFF30
0006FF8000AFFC00
000AFF301AFFE300
001FFD05DFFB2000
006FFCDFFC400000
00CFFFFE30000000
03FFFDFF30000000
09FFC3FFA0000000
1FFF40CFF5000000
8FFC004FFF737200
EFF40009FFFFE100
7E9000007DEA2000
ENDCHAR
STARTCHAR Lacute
ENCODING 313
SWIDTH 517 0
DWIDTH 15 0
BBX 18 27 -1 0
BITMAP
0000000000000007F8
000000000000001EFF
000000000000008FFA
00000000000006FFA1
0000000000003FC500
000000000000000000
00000000003AEEB200
0000000007FFC9ED10
000000007FF9008F70
00000003FFD0007FA0
0000000CFF4000CFB0
0000005FFC0005FF80
000000DFF6003EFF30
000004FFE104EFFA00
00000BFF907FFFE200
00001FFF307FFD3000
00007FFC0005710000
0000CFF60000000000
0003FFE10000000000
0008FF800000000000
000DFF200000000000
005FF9000000000000
00BFE1000000000000
05FF50014676100000
3EFB7BEFFFFFF40000
8FFFFFFFFFFFFC0000
2DEC96421125BD0000
ENDCHAR
STARTCHAR lacute
ENCODING 314
SWIDTH 279 0
DWIDTH 8 0
BBX 13 27 0 0
BITMAP
0000000001ED20
0000000006FF80
000000001EFF40
00000001CFE500
00000009E92000
00000000000000
000000CD200000
000002FF800000
000005FF700000
000009FF400000
00000DFE000000
00002FFA000000
00007FF6000000
0000CFF1000000
0002FFB0000000
0008FF50000000
000DFE10000000
003FFA00000000
008FF500000000
00DFE100000000
04FFA000000000
09FF5000000000
0DFF1000000000
1FFC0000000000
2FFD3720000000
0DFFFE10000000
03CEB200000000
ENDCHAR
STARTCHAR Lcommaaccent
ENCODING 315
SWIDTH 517 0
DWIDTH 15 0
BBX 17 29 -1 -8
BITMAP
00000000003AEEB200
0000000007FFC9ED10
000000007FF9008F70
00000003FFD0007FA0
0000000CFF4000CFB0
0000005FFC0005FF80
000000DFF6003EFF30
000004FFE104EFFA00
00000BFF907FFFE200
00001FFF307FFD3000
00007FFC0005710000
0000CFF60000000000
0003FFE10000000000
0008FF800000000000
000DFF200000000000
005FF9000000000000
00BFE1000000000000
05FF50014676100000
3EFB7BEFFFFFF40000
8FFFFFFFFFFFFC0000
2DEC96421125BD0000
000000000000000000
0004A6000000000000
003FFF200000000000
001DFF300000000000
0009FE100000000000
000DF7000000000000
008FA0000000000000
02E700000000000000
ENDCHAR
STARTCHAR lcommaaccent
ENCODING 316
SWIDTH 279 0
DWIDTH 8 0
BBX 10 30 -1 -8
BITMAP
0000000AE6
0000000FFE
0000002FFD
0000005FFA
0000009FF6
000000DFF2
000002FFC0
000006FF70
00000BFF20
00001FFB00
00006FF600
0000BFF100
0002FFA000
0007FF5000
000DFE0000
003FFA0000
008FF50000
00CFF10000
00FFD00000
01FFD32000
00DFFFF300
003CFC4000
0000000000
004A600000
02FFF30000
01DFF40000
009FE10000
00DF700000
08FB000000
1E80000000
ENDCHAR
STARTCHAR Lcaron
ENCODING 317
SWIDTH 517 0
DWIDTH 15 0
BBX 23 27 -1 0
BITMAP
000000000000000000027400
0000000000000000000EFF10
0000000000000000000DFF10
0000000000000000000AFE00
0000000000000000000CF800
0000000000000000004FD100
00000000003AEEB202ED2000
0000000007FFC9ED14810000
000000007FF9008F70000000
00000003FFD0007FA0000000
0000000CFF4000CFB0000000
0000005FFC0005FF80000000
000000DFF6003EFF30000000
000004FFE104EFFA00000000
00000BFF907FFFE200000000
00001FFF307FFD3000000000
00007FFC0005710000000000
0000CFF60000000000000000
0003FFE10000000000000000
0008FF800000000000000000
000DFF200000000000000000
005FF9000000000000000000
00BFE1000000000000000000
05FF50014676100000000000
3EFB7BEFFFFFF40000000000
8FFFFFFFFFFFFC0000000000
2DEC96421125BD0000000000
ENDCHAR
STARTCHAR lcaron
ENCODING 318
SWIDTH 467 0
DWIDTH 13 0
BBX 16 23 0 0
BITMAP
000000AE60005ED2
000000FFE000BFF6
000002FFD0007FF4
000005FFA0007FE1
000008FF7000BF80
00000CFF3005FB00
00001FFD001EA100
00005FF900010000
00009FF400000000
0000EFE000000000
0004FF9000000000
0009FF3000000000
000EFD0000000000
004FF80000000000
009FF30000000000
00EFD00000000000
04FF900000000000
09FF400000000000
0DFF100000000000
1FFD000000000000
1FFD3A4000000000
0CFFFD1000000000
03CFB20000000000
ENDCHAR
STARTCHAR Ldot
ENCODING 319
SWIDTH 668 0
DWIDTH 19 0
BBX 21 21 -1 0
BITMAP
00000000003AEEB2000000
0000000007FFC9ED100000
000000007FF9008F700000
00000003FFD0007FA00000
0000000CFF4000CFB00000
0000005FFC0005FF800000
000000DFF6003EFF300000
000004FFE104EFFA000000
00000BFF907FFFE2000000
00001FFF307FFD30000000
00007FFC000571003BC600
0000CFF600000000EFFF10
0003FFE100000000EFFE00
0008FF80000000007FF600
000DFF2000000000032000
005FF90000000000000000
00BFE10000000000000000
05FF500146761000000000
3EFB7BEFFFFFF400000000
8FFFFFFFFFFFFC00000000
2DEC96421125BD00000000
ENDCHAR
STARTCHAR ldot
ENCODING 320
SWIDTH 489 0
DWIDTH 14 0
BBX 14 23 0 0
BITMAP
000000AE600000
000000FFE00000
000002FFD00000
000005FFA00000
000008FF700000
00000CFF300000
00001FFD000000
00005FF9000000
00009FF4000000
0000EFE0000000
0004FF90000000
0009FF30016730
000EFD000BFFF3
004FF8000FFFF6
009FF3000BFFE1
00EFD000018920
04FF9000000000
09FF4000000000
0DFF1000000000
1FFD0000000000
1FFD3A40000000
0CFFFD10000000
03CFB200000000
ENDCHAR
STARTCHAR Lslash
ENCODING 321
SWIDTH 517 0
DWIDTH 15 0
BBX 17 21 -1 0
BITMAP
00000000003AEEB200
0000000007FFC9ED10
000000007FF9008F70
00000003FFD0007FA0
0000000CFF4000CFB0
0000006FFC0006FF80
000000DFF6004FFF30
000005FFE005EFFA00
00000BFF807FFFD100
00002FFF206FFD2000
00007FFB0004510000
0000CFFFFC20000000
018DFFFFFF90000000
2EFFFF833310000000
195EFE100000000000
004FF7000000000000
00BFD1000000000000
05FF40135798300000
3EFB8CFFFFFFF50000
8FFFFFFFFFFFFD0000
2DEC96320025AD0000
ENDCHAR
STARTCHAR lslash
ENCODING 322
SWIDTH 279 0
DWIDTH 8 0
BBX 13 23 0 0
BITMAP
00006E93100000
00009FFFFFFF80
000006FFE86200
000004FFA00000
000008FF600000
00000CFF100000
00002FFC000000
00006FF7000000
0000BFF3000000
0001FFD0000000
0006FF80000000
000BFF30000000
001FFD00000000
005FF800000000
00AFF300000000
00EFE000000000
04FF9000000000
09FF4000000000
0DFF1000000000
1FFC0000000000
1FFD4720000000
0DFFFE10000000
03DFB300000000
ENDCHAR
STARTCHAR Nacute
ENCODING 323
SWIDTH 708 0
DWIDTH 20 0
BBX 22 27 0 0
BITMAP
0000000000000000008F70
000000000000000001EFE0
000000000000000009FF90
00000000000000007FFA00
0000000000000003FB4000
0000000000000000000000
000000002AEC000005ED60
00000003EFFE00000AFFF4
0000001DFFFB000001EFF9
000000BFDFF9000000BFFA
000005FE6FF8000000AFF8
00000DF66FF8000000CFF4
00006FD07FF8000000FFD0
0000DF607FF9000004FF70
0006FE106FFA000009FE10
000CF9005FFC00001EF800
003FF4004FFE00007FE100
009FE0001FFF1000EF7000
00EF90000EFF4006FD0000
04FF40000BFF800DF50000
08FF100007FFC05FC00000
0DFB000002FFF1BF400000
1FF8000000DFF9FC000000
4FF40000007FFFF5000000
6FF20000001EFFD0000000
6FE000000006FFA0000000
1CB0000000007E70000000
ENDCHAR
STARTCHAR nacute
ENCODING 324
SWIDTH 561 0
DWIDTH 16 0
BBX 15 23 0 0
BITMAP
0000000000001100
000000000000DE30
000000000004FF90
00000000000BFF70
00000000005FFC00
0000000002EFB100
000000002DF80000
0000000026200000
0000000000000000
0008EE50007ED800
000BFFD01CFFFF60
0004FFC0BFEFFF90
0005FF89FB17FF70
000AFF7FB10CFF30
001EFCEC104FFC00
005FFFE200BFF500
00BFFF3003FFD000
02FFF50009FF6000
09FFA0000EFE1000
1EFF20003FFA0000
8FF900004FFB3720
DFF200002FFFFE10
6E80000005DEB200
ENDCHAR
STARTCHAR Ncommaaccent
ENCODING 325
SWIDTH 708 0
DWIDTH 20 0
BBX 22 29 0 -8
BITMAP
000000002AEC000005ED60
00000003EFFE00000AFFF4
0000001DFFFB000001EFF9
000000BFDFF9000000BFFA
000005FE6FF8000000AFF8
00000DF66FF8000000CFF4
00006FD07FF8000000FFD0
0000DF607FF9000004FF70
0006FE106FFA000009FE10
000CF9005FFC00001EF800
003FF4004FFE00007FE100
009FE0001FFF1000EF7000
00EF90000EFF4006FD0000
04FF40000BFF800DF50000
08FF100007FFC05FC00000
0DFB000002FFF1BF400000
1FF8000000DFF9FC000000
4FF40000007FFFF5000000
6FF20000001EFFD0000000
6FE000000006FFA0000000
1CB0000000007E70000000
0000000000000000000000
0000000484000000000000
0000003FFF100000000000
0000002EFF200000000000
0000000AFE000000000000
0000001EF6000000000000
0000009F90000000000000
000003E700000000000000
ENDCHAR
STARTCHAR ncommaaccent
ENCODING 326
SWIDTH 561 0
DWIDTH 16 0
BBX 15 22 0 -8
BITMAP
0008EE50007ED800
000BFFD01CFFFF60
0004FFC0BFEFFF90
0005FF89FB17FF70
000AFF7FB10CFF30
001EFCEC104FFC00
005FFFE200BFF500
00BFFF3003FFD000
02FFF50009FF6000
09FFA0000EFE1000
1EFF20003FFA0000
8FF900004FFB3720
DFF200002FFFFE10
6E80000005DEB200
0000000000000000
0003970000000000
001EFF5000000000
000BFF5000000000
0007FF2000000000
000BF90000000000
006FC10000000000
00D9100000000000
ENDCHAR
STARTCHAR Ncaron
ENCODING 327
SWIDTH 708 0
DWIDTH 20 0
BBX 22 27 0 0
BITMAP
0000000000002BD900006C
0000000000001CFF802BFE
00000000000002EFF9FFD4
000000000000009FFFA500
0000000000000019710000
0000000000000000000000
000000002AEC000005ED60
00000003EFFE00000AFFF4
0000001DFFFB000001EFF9
000000BFDFF9000000BFFA
000005FE6FF8000000AFF8
00000DF66FF8000000CFF4
00006FD07FF8000000FFD0
0000DF607FF9000004FF70
0006FE106FFA000009FE10
000CF9005FFC00001EF800
003FF4004FFE00007FE100
009FE0001FFF1000EF7000
00EF90000EFF4006FD0000
04FF40000BFF800DF50000
08FF100007FFC05FC00000
0DFB000002FFF1BF400000
1FF8000000DFF9FC000000
4FF40000007FFFF5000000
6FF20000001EFFD0000000
6FE000000006FFA0000000
1CB0000000007E70000000
ENDCHAR
STARTCHAR ncaron
ENCODING 328
SWIDTH 561 0
DWIDTH 16 0
BBX 17 21 0 0
BITMAP
00000004A900000990
00000004FF7001BFB0
00000000CFC05EFD20
000000008FFBFE8000
000000004FFE810000
000000000861000000
000000000000000000
0008EE50007ED80000
000BFFD01CFFFF6000
0004FFC0BFEFFF9000
0005FF89FB17FF7000
000AFF7FB10CFF3000
001EFCEC104FFC0000
005FFFE200BFF50000
00BFFF3003FFD00000
02FFF50009FF600000
09FFA0000EFE100000
1EFF20003FFA000000
8FF900004FFB372000
DFF200002FFFFE1000
6E80000005DEB20000
ENDCHAR
STARTCHAR Eng
ENCODING 330
SWIDTH 698 0
DWIDTH 20 0
BBX 22 29 0 -8
BITMAP
000000004CF8000009EC30
00000006FFFA00000DFFE1
0000004FFFF7000003FFF5
000001DFEFF4000000FFF6
000009FCAFF3000000EFF5
00003FF3BFF3000000FFF3
0000AFB0BFF3000002FFE0
0003FF40BFF4000005FFB0
000AFC00BFF5000008FF70
001FF600AFF700000CFF20
007FF1008FFA00001FFC00
00DFA0006FFD00006FF600
03FF50004FFF1000BFE100
08FF10001FFF5001FF9000
0CFB00000CFF9007FF3000
2FF8000008FFE00DFB0000
5FF4000002FFF44FF30000
8FF1000000BFFCBFA00000
AFD00000003FFFFF200000
AFA000000008FFF8000000
3D7000000008FFD1000000
00000000003FFF40000000
0000000000CFF800000000
0000000009FFB000000000
000000006FFC1000000000
00000005FFD10000000000
0000007FFC100000000000
00004CFFA1000000000000
00009EB400000000000000
ENDCHAR
STARTCHAR eng
ENCODING 331
SWIDTH 561 0
DWIDTH 16 0
BBX 15 22 0 -8
BITMAP
0008EE50007ED800
000BFFD01CFFFF60
0004FFC0BFEFFF90
0005FF89FB17FF80
000AFF7FB107FF50
001EFCEC100AFF10
005FFFE2000EFC00
00BFFF30004FF800
02FFF50000AFF200
09FFA00001FFC000
1EFF200007FF6000
8FF900000DFE1000
DFF200005FF90000
6E800000DFF20000
00000005FF900000
0000001DFE200000
0000008FF7000000
000003FFC0000000
00001DFE20000000
0000BFF400000000
002BFF5000000000
006EB30000000000
ENDCHAR
STARTCHAR Omacron
ENCODING 332
SWIDTH 655 0
DWIDTH 18 0
BBX 19 26 1 0
BITMAP
00000000001222222210
0000000005FFFFFFFFC0
000000000CFFFFFFFD30
00000000000000000000
00000000000000000000
0000000005ADFDA30000
00000004DFFC9CFF5000
0000007FFE5000AFE100
000008FFE200004FF700
00006FFF3000002FFA00
0002FFF60000002FFC00
000BFFB00000004FFC00
005FFF300000006FFA00
00CFFA00000000AFF800
03FFF300000000EFF400
08FFC000000005FFE100
0CFF600000000BFFA000
1FFF200000004FFF3000
3FFD00000000BFFB0000
4FFA00000004FFF30000
4FF90000001DFF700000
3FF9000000AFFB000000
0EFB000008FFC1000000
08FF4001AFFB10000000
00BFEAAEFF7000000000
0006CEEC820000000000
ENDCHAR
STARTCHAR omacron
ENCODING 333
SWIDTH 514 0
DWIDTH 14 0
BBX 15 19 1 0
BITMAP
0000002222222200
000009FFFFFFFF70
00002EFFFFFFFA10
0000000000000000
0000000000000000
000005BEEC600000
0001BFFBAFF70000
001DFF700BFF1000
00CFF90009FF5000
07FFD1000BFF6000
1EFF50000DFF5000
6FFD00002FFF2000
BFF800007FFC0000
EFF40000EFF70000
FFF10007FFD10000
EFF0002FFF400000
AFF202DFF7000000
2EFC9EFE60000000
03ADFD8200000000
ENDCHAR
STARTCHAR Obreve
ENCODING 334
SWIDTH 655 0
DWIDTH 18 0
BBX 19 27 1 0
BITMAP
00000000001BD00004D0
00000000006FF7128FC0
00000000004FFFFFFC20
000000000007EFFD7100
00000000000002100000
00000000000000000000
0000000005ADFDA30000
00000004DFFC9CFF5000
0000007FFE5000AFE100
000008FFE200004FF700
00006FFF3000002FFA00
0002FFF60000002FFC00
000BFFB00000004FFC00
005FFF300000006FFA00
00CFFA00000000AFF800
03FFF300000000EFF400
08FFC000000005FFE100
0CFF600000000BFFA000
1FFF200000004FFF3000
3FFD00000000BFFB0000
4FFA00000004FFF30000
4FF90000001DFF700000
3FF9000000AFFB000000
0EFB000008FFC1000000
08FF4001AFFB10000000
00BFEAAEFF7000000000
0006CEEC820000000000
ENDCHAR
STARTCHAR obreve
ENCODING 335
SWIDTH 514 0
DWIDTH 14 0
BBX 15 21 1 0
BITMAP
0000002D800005A0
000000AFC0002EA0
000000BFF515EF30
0000006FFFFFF500
00000008FFFB3000
0000000002000000
0000000000000000
000005BEEC600000
0001BFFBAFF70000
001DFF700BFF1000
00CFF90009FF5000
07FFD1000BFF6000
1EFF50000DFF5000
6FFD00002FFF2000
BFF800007FFC0000
EFF40000EFF70000
FFF10007FFD10000
EFF0002FFF400000
AFF202DFF7000000
2EFC9EFE60000000
03ADFD8200000000
ENDCHAR
STARTCHAR Ohungarumlaut
ENCODING 336
SWIDTH 655 0
DWIDTH 18 0
BBX 20 28 1 0
BITMAP
00000000000012000120
0000000000008F700AF6
000000000000DF800EF7
000000000005FF306FE2
00000000003EF504FE40
0000000000EC301EB300
00000000000000000000
0000000005ADFDA30000
00000004DFFC9CFF5000
0000007FFE5000AFE100
000008FFE200004FF700
00006FFF3000002FFA00
0002FFF60000002FFC00
000BFFB00000004FFC00
005FFF300000006FFA00
00CFFA00000000AFF800
03FFF300000000EFF400
08FFC000000005FFE100
0CFF600000000BFFA000
1FFF200000004FFF3000
3FFD00000000BFFB0000
4FFA00000004FFF30000
4FF90000001DFF700000
3FF9000000AFFB000000
0EFB000008FFC1000000
08FF4001AFFB10000000
00BFEAAEFF7000000000
0006CEEC820000000000
ENDCHAR
STARTCHAR ohungarumlaut
ENCODING 337
SWIDTH 514 0
DWIDTH 14 0
BBX 16 23 1 0
BITMAP
0000000001000110
00000000BE100DE1
00000003FF404FF2
0000000BFE00CFD0
0000005FF506FF40
000003EF604FF500
00002EE503EE4000
0000361003610000
0000000000000000
000005BEEC600000
0001BFFBAFF70000
001DFF700BFF1000
00CFF90009FF5000
07FFD1000BFF6000
1EFF50000DFF5000
6FFD00002FFF2000
BFF800007FFC0000
EFF40000EFF70000
FFF10007FFD10000
EFF0002FFF400000
AFF202DFF7000000
2EFC9EFE60000000
03ADFD8200000000
ENDCHAR
STARTCHAR OE
ENCODING 338
SWIDTH 900 0
DWIDTH 25 0
BBX 26 21 3 0
BITMAP
0000000039DEEC71039CEFEA30
0000001AFFD9AFFDBFFFDA9EF3
000003EFF80005FFFFE50007F9
00004EFF600000FFFD200009FB
0002EFF8000007FFF300006FF8
000CFFB000000EFF700008FFF2
007FFE2000004FFE1001CFFF70
01EFF70000006FFA0001EFF900
07FFE10000005FF80000384000
0DFF800000002FFA0000000000
3FFF2000000009FF99A5000000
7FFB0000000000BFFFFE000000
AFF7000000001BFFFD62000000
DFF300000001CFFF7000000000
EFF000000009FFE40000000000
EFE00000004FFF600000000000
DFE0000002EFFD000001A40000
9FF100002DFFFA00001BF70000
2FF90004DFFFFD0003CFE30000
06FFC9CFFD5AFFD9CFFD300000
004BEFEA60006BEFDB60000000
ENDCHAR
STARTCHAR oe
ENCODING 339
SWIDTH 777 0
DWIDTH 22 0
BBX 21 14 1 0
BITMAP
0000017CEEA20029DFD600
00005EFE9DFE26EFBAFF50
0006FFD202FFDFF600EFC0
003FFF3000FFFF9000EFD0
00CFF70001FFFE1004FFB0
06FFE10003FFF8001DFF50
0BFF700008FFF202DFFA00
1FFF20000DFFC39FFF8000
4FFD00005FFFFFFD920000
6FFB0000CFFF8320000000
5FFA0007FFFF5000006000
1FFC006FFFFFB0003BF300
07FFABFFE7DFFB9CFFB000
006CEEC82019DFEDA40000
ENDCHAR
STARTCHAR Racute
ENCODING 340
SWIDTH 623 0
DWIDTH 17 0
BBX 19 28 -1 -1
BITMAP
000000000000000CE400
000000000000004FFA00
00000000000001CFF600
0000000000000BFF7000
0000000000007EA30000
00000000000000000000
00000037ADEFED930000
00002BFFFEB99BFF9000
0000CFFD6100003EFA00
00006E9176000008FF30
00000006FF600006FF70
0000001EFF300008FF70
0000006FFC00000DFF50
000000CFF700007FFE10
000003FFF10005FFF600
000008FFB0007FFF8000
00000DFF616DFFF60000
00004FFFDFFFFB300000
00009FFCEFF930000000
0001EFF32FFB00000000
0006FFC009FF70000000
000DFF5002FFE1000000
005FFC0000AFF9000000
00DFF300002FFF300000
08FF8000000AFFD10000
6FFB00000001DFFE9700
8E80000000002CFFE300
00000000000000231000
ENDCHAR
STARTCHAR racute
ENCODING 341
SWIDTH 407 0
DWIDTH 11 0
BBX 13 23 0 0
BITMAP
00000000000100
00000000008F80
0000000000DFF0
0000000005FFC0
000000001DFF30
00000000BFE400
0000000AFB2000
00000007400000
00000000000000
001BFC2006ED30
002EFF807FFF90
0008FF74FFFF80
0008FF4ED59D20
000CFD9D100000
001FFBE3000000
005FFF80000000
00AFFC00000000
01FFF400000000
06FFC000000000
0CFF5000000000
3FFD0000000000
8FF70000000000
2CD10000000000
ENDCHAR
STARTCHAR Rcommaaccent
ENCODING 342
SWIDTH 623 0
DWIDTH 17 0
BBX 19 29 -1 -8
BITMAP
00000037ADEFED930000
00002BFFFEB99BFF9000
0000CFFD6100003EFA00
00006E9176000008FF30
00000006FF600006FF70
0000001EFF300008FF70
0000006FFC00000DFF50
000000CFF700007FFE10
000003FFF10005FFF600
000008FFB0007FFF8000
00000DFF616DFFF60000
00004FFFDFFFFB300000
00009FFCEFF930000000
0001EFF32FFB00000000
0006FFC009FF70000000
000DFF5002FFE1000000
005FFC0000AFF9000000
00DFF300002FFF300000
08FF8000000AFFD10000
6FFB00000001DFFE9700
8E80000000002CFFE300
00000000000000231000
00000792000000000000
00008FFC000000000000
00004FFD000000000000
00000EF9000000000000
00004FF2000000000000
0001DF50000000000000
0007C400000000000000
ENDCHAR
STARTCHAR rcommaaccent
ENCODING 343
SWIDTH 407 0
DWIDTH 11 0
BBX 15 22 -2 -8
BITMAP
00001BFC2006ED30
00002EFF807FFF90
000008FF75FFFF80
000009FF4ED59D20
00000CFD9D100000
00001FFBE3000000
00005FFF80000000
0000AFFC00000000
0001FFF400000000
0007FFC000000000
000DFF5000000000
004FFD0000000000
008FF70000000000
002CD10000000000
0000000000000000
0189100000000000
0AFFA00000000000
06FFA00000000000
02FF700000000000
06FD100000000000
2EE3000000000000
9B30000000000000
ENDCHAR
STARTCHAR Rcaron
ENCODING 344
SWIDTH 623 0
DWIDTH 17 0
BBX 19 28 -1 -1
BITMAP
0000000004CC60000990
0000000003EFF504CFB0
00000000005FFCAFFC20
00000000000DFFE94000
000000000003A6100000
00000000000000000000
00000037ADEFED930000
00002BFFFEB99BFF9000
0000CFFD6100003EFA00
00006E9176000008FF30
00000006FF600006FF70
0000001EFF300008FF70
0000006FFC00000DFF50
000000CFF700007FFE10
000003FFF10005FFF600
000008FFB0007FFF8000
00000DFF616DFFF60000
00004FFFDFFFFB300000
00009FFCEFF930000000
0001EFF32FFB00000000
0006FFC009FF70000000
000DFF5002FFE1000000
005FFC0000AFF9000000
00DFF300002FFF300000
08FF8000000AFFD10000
6FFB00000001DFFE9700
8E80000000002CFFE300
00000000000000231000
ENDCHAR
STARTCHAR rcaron
ENCODING 345
SWIDTH 407 0
DWIDTH 11 0
BBX 16 21 0 0
BITMAP
000001AB300005D0
000001DFC0008FF1
0000007FF23CFE50
0000003FFBFFA200
0000000EFFA30000
0000000572000000
0000000000000000
001BFC2006ED3000
002EFF807FFF9000
0008FF74FFFF8000
0008FF4ED59D2000
000CFD9D10000000
001FFBE300000000
005FFF8000000000
00AFFC0000000000
01FFF40000000000
06FFC00000000000
0CFF500000000000
3FFD000000000000
8FF7000000000000
2CD1000000000000
ENDCHAR
STARTCHAR Sacute
ENCODING 346
SWIDTH 474 0
DWIDTH 13 0
BBX 17 27 0 0
BITMAP
00000000000000CE30
00000000000004FFA0
0000000000001DFF50
000000000000BFF600
000000000007EA2000
000000000000000000
00000004BEFD920000
000000AFFC9BFE3000
00000BFE50008FC000
00008FF500003FF300
0001FFC000005FF500
0007FF700000AFF400
000BFF500004FFF100
000DFF50005EFF9000
000DFF9001FFFE2000
000AFFE1007EB20000
0006FFF90000000000
0000DFFF4000000000
00003FFFD100000000
000007FFF800000000
000000AFFE00000000
03C4001EFF20000000
1EF60008FF20000000
4FF60007FD00000000
3FFB001CF600000000
0BFFC9DF7000000000
018DFEA30000000000
ENDCHAR
STARTCHAR sacute
ENCODING 347
SWIDTH 423 0
DWIDTH 12 0
BBX 14 23 0 0
BITMAP
00000000000100
00000000005FB0
0000000000BFF3
0000000003FFE1
000000000BFF60
000000008FF600
00000007FC4000
00000006500000
00000000000000
000018DFEB4000
0003EFC9DFF600
000DFC002FFC00
003FFA000EFA00
004FFD000CB200
001FFF70000000
000AFFF4000000
0002EFFD100000
00005FFF700000
03300AFFC00000
4FC003FFC00000
9FF303FF800000
5FFEBEFB000000
05CEEC60000000
ENDCHAR
STARTCHAR Scircumflex
ENCODING 348
SWIDTH 474 0
DWIDTH 13 0
BBX 17 27 0 0
BITMAP
0000000000002C9000
000000000003DFF400
00000000007FFFFA00
000000006DFD4AFF50
00000001DE7101BFB0
000000000000000000
00000004BEFD920000
000000AFFC9BFE3000
00000BFE50008FC000
00008FF500003FF300
0001FFC000005FF500
0007FF700000AFF400
000BFF500004FFF100
000DFF50005EFF9000
000DFF9001FFFE2000
000AFFE1007EB20000
0006FFF90000000000
0000DFFF4000000000
00003FFFD100000000
000007FFF800000000
000000AFFE00000000
03C4001EFF20000000
1EF60008FF20000000
4FF60007FD00000000
3FFB001CF600000000
0BFFC9DF7000000000
018DFEA30000000000
ENDCHAR
STARTCHAR scircumflex
ENCODING 349
SWIDTH 423 0
DWIDTH 12 0
BBX 14 22 0 0
BITMAP
00000000002400
0000000003EF60
000000004EFFA0
00000008FFDFD0
000004DFD36FF3
0000AFF9101EFA
00003730000274
00000000000000
000018DFEB4000
0003EFC9DFF600
000DFC002FFC00
003FFA000EFA00
004FFD000CB200
001FFF70000000
000AFFF4000000
0002EFFD100000
00005FFF700000
03300AFFC00000
4FC003FFC00000
9FF303FF800000
5FFEBEFB000000
05CEEC60000000
ENDCHAR
STARTCHAR Scedilla
ENCODING 350
SWIDTH 474 0
DWIDTH 13 0
BBX 16 27 0 -6
BITMAP
00000004BEFD9200
000001AFFC9BFE30
00000CFE50008FD0
00008FF500003FF3
0002FFC000005FF5
0008FF700000BFF4
000CFF500006FFE1
000DFF50008FFF80
000CFF9000FFFC10
0009FFE1005B8100
0004FFF900000000
0000BFFF50000000
00001EFFE1000000
000004FFF8000000
0020007FFE000000
08F6000CFF200000
2FF50007FF200000
5FF70008FD000000
3FFE315EF5000000
0AFFFFFF70000000
007DFE9300000000
0002F90000000000
0000FF0000000000
0005FF2000000000
004EFE0000000000
06FFF80000000000
02DE900000000000
ENDCHAR
STARTCHAR scedilla
ENCODING 351
SWIDTH 423 0
DWIDTH 12 0
BBX 12 20 0 -6
BITMAP
000018DFEB40
0002EFC9DFF6
000DFC002FFC
003FFA000EFA
004FFD000CB2
001FFF700000
000AFFF30000
0002EFFD0000
00006FFF7000
1C900BFFB000
8FC003FFC000
8FF202FF8000
1DFE9DFC0000
009FFD700000
001F90000000
000FF1000000
006FF2000000
16EFE0000000
6FFF80000000
1CE800000000
ENDCHAR
STARTCHAR Scaron
ENCODING 352
SWIDTH 474 0
DWIDTH 13 0
BBX 18 27 0 0
BITMAP
000000005CC60001A8
000000003EFF404DFB
0000000006FFCAFFC2
0000000000DFFEA400
00000000003B610000
000000000000000000
00000004BEFD920000
000000AFFC9BFE3000
00000BFE50008FC000
00008FF500003FF300
0001FFC000005FF500
0007FF700000AFF400
000BFF500004FFF100
000DFF50005EFF9000
000DFF9001FFFE2000
000AFFE1007EB20000
0006FFF90000000000
0000DFFF4000000000
00003FFFD100000000
000007FFF800000000
000000AFFE00000000
03C4001EFF20000000
1EF60008FF20000000
4FF60007FD00000000
3FFB001CF600000000
0BFFC9DF7000000000
018DFEA30000000000
ENDCHAR
STARTCHAR scaron
ENCODING 353
SWIDTH 423 0
DWIDTH 12 0
BBX 16 21 0 0
BITMAP
0000006B700001B7
0000006FF4003DF8
0000001EFA07EFB1
0000000AFDCFE600
00000006FFD71000
0000000185000000
0000000000000000
000018DFEB400000
0003EFC9DFF60000
000DFC002FFC0000
003FFA000EFA0000
004FFD000CB20000
001FFF7000000000
000AFFF400000000
0002EFFD10000000
00005FFF70000000
03300AFFC0000000
4FC003FFC0000000
9FF303FF80000000
5FFEBEFB00000000
05CEEC6000000000
ENDCHAR
STARTCHAR Tcommaaccent
ENCODING 354
SWIDTH 471 0
DWIDTH 13 0
BBX 17 29 1 -8
BITMAP
003AEEDA6200000580
04EFFFFFFFC8535E70
0DFFFEDEFFFFFFFF20
2FFE5000EFFCEFD500
1FF70005FFB0000000
09E1000BFF60000000
0010001FFF20000000
0000006FFC00000000
000000BFF700000000
000001FFF300000000
000006FFD000000000
00000AFF8000000000
00000EFF3000000000
00004FFC0000000000
0000AFF60000000000
0001EFE10000000000
0007FF700000000000
001EFE100000000000
009FF5000000000000
08FF80000000000000
2DD600000000000000
000000000000000000
006930000000000000
07FFD0000000000000
04FFD0000000000000
00EFA0000000000000
03FF30000000000000
1CF600000000000000
6D4000000000000000
ENDCHAR
STARTCHAR tcommaaccent
ENCODING 355
SWIDTH 358 0
DWIDTH 10 0
BBX 11 25 0 -8
BITMAP
000001BE6000
000009FF7000
00004FFC0000
00BFFFFFFFD0
005AFFC87510
000AFF500000
001EFE000000
005FF9000000
009FF4000000
00DFE0000000
02FFA0000000
05FF70000000
07FF40000000
08FF30056000
07FFA7BF6000
03FFFFFA0000
005DEC600000
000000000000
029810000000
0DFF70000000
09FF80000000
04FF40000000
09FC00000000
4FD200000000
CA1000000000
ENDCHAR
STARTCHAR Tcaron
ENCODING 356
SWIDTH 471 0
DWIDTH 13 0
BBX 18 27 1 0
BITMAP
000000007CB30002C5
000000006FFE206EF7
0000000009FFACFF91
0000000002FFFD8200
00000000005A500000
000000000000000000
004BEFEDB975323A80
06FFFFFFFFFFFFFF50
1FFFFEDDFFFFFFD700
2FFC3001EFD0000000
0BF20006FF80000000
0020000CFF30000000
0000002FFE00000000
0000007FF900000000
000000CFF500000000
000002FFF100000000
000006FFB000000000
00000BFF6000000000
00001FFF1000000000
00005FFA0000000000
0000AFF50000000000
0001FFD00000000000
0007FF600000000000
001EFD000000000000
009FF4000000000000
08FF70000000000000
2DD600000000000000
ENDCHAR
STARTCHAR tcaron
ENCODING 357
SWIDTH 497 0
DWIDTH 14 0
BBX 15 23 2 0
BITMAP
000000000002CE50
000000000007FFA0
000000000003FF90
000000000002FF50
000000000006FC00
000008E7002EE200
00003FFB00BC3000
0000BFF500100000
0003FFD000000000
09FFFFFFFE100000
049FFD8751000000
008FF70000000000
00DFF20000000000
03FFB00000000000
07FF600000000000
0BFF200000000000
0FFC000000000000
3FF9000000000000
5FF6000000000000
6FF5004800000000
5FFB6AF800000000
1EFFFFC100000000
04CFC70000000000
ENDCHAR
STARTCHAR Tbar
ENCODING 358
SWIDTH 471 0
DWIDTH 13 0
BBX 17 21 1 0
BITMAP
004BEFEDB975323A80
06FFFFFFFFFFFFFF50
1FFFFEDDFFFFFFD700
2FFC3001EFD0000000
0CF20006FF80000000
0130000CFF30000000
0000003FFE00000000
0000008FFA00000000
000000DFF500000000
038889FFF981000000
1EFFFFFFFE91000000
00000DFF4000000000
00002FFE0000000000
00007FF90000000000
0000CFF30000000000
0002FFC00000000000
0009FF600000000000
002FFC000000000000
00BFF3000000000000
0AFF70000000000000
2DD600000000000000
ENDCHAR
STARTCHAR tbar
ENCODING 359
SWIDTH 358 0
DWIDTH 10 0
BBX 11 18 0 0
BITMAP
000000AE5000
000005FF9000
00000DFF3000
00005FFB0000
00BFFFFFFFD0
005AFFC87510
0009FF600000
000DFF200000
002FFD000000
2BFFFFFFFF30
38EFF8888300
01FFB0000000
04FF70000000
07FF40000000
08FF30046000
08FFA7BF7000
03FFFFFB0000
006DEC600000
ENDCHAR
STARTCHAR Utilde
ENCODING 360
SWIDTH 624 0
DWIDTH 17 0
BBX 20 27 0 0
BITMAP
00000000006CEB1002D0
0000000008FFFFD23CD0
000000004FFDFFFFFE30
000000008D204DFFB200
00000000010000210000
00000000000000000000
000006DFB10000003EC1
000009FFF6000000BFF5
000000EFF4000004FFD0
000001FFF100000CFF70
000006FFB000004FFE10
00000CFF500000CFF900
00004FFE000005FFF400
0000BFF700000DFFD000
0002FFE100005FFF8000
0009FF900000DFFF3000
001EFF200007FFFD0000
007FFA00001EFFF80000
00DFF300009FFFF30000
04FFC00003FCEFD00000
0AFF60000CF5FF900000
0EFF10008F67FF600000
4FFB0004FA0AFF300000
6FFA003EC00CFF200000
6FFD36EC100BFF748000
2FFFFFB10007FFFFB000
05DFC60000019EE81000
ENDCHAR
STARTCHAR utilde
ENCODING 361
SWIDTH 553 0
DWIDTH 15 0
BBX 17 21 0 0
BITMAP
000000006DEA1003D0
00000009FFFFC23DC0
0000005FFDFFFFFE30
0000009C205DFFB200
000000100000210000
000000000000000000
000000000000000000
0007EF9000004EC200
0009FFF20001DFF200
0002FFF00007FFA000
0005FFB0002EFF3000
000BFF60009FFB0000
002FFE1003FFF50000
009FF9000CFFD00000
01FFF3007FFF700000
08FFB003FCFF200000
0DFF401DB9FC000000
3FFD01CD1EFA000000
5FFC4DE22FFC360000
2FFFFD301FFFFD0000
07EE910006EEA20000
ENDCHAR
STARTCHAR Umacron
ENCODING 362
SWIDTH 624 0
DWIDTH 17 0
BBX 20 26 0 0
BITMAP
00000000002222222200
000000001CFFFFFFFF30
000000006FFFFFFFF800
00000000000000000000
00000000000000000000
000006DFB10000003EC1
000009FFF6000000BFF5
000000EFF4000004FFD0
000001FFF100000CFF70
000006FFB000004FFE10
00000CFF500000CFF900
00004FFE000005FFF400
0000BFF700000DFFD000
0002FFE100005FFF8000
0009FF900000DFFF3000
001EFF200007FFFD0000
007FFA00001EFFF80000
00DFF300009FFFF30000
04FFC00003FCEFD00000
0AFF60000CF5FF900000
0EFF10008F67FF600000
4FFB0004FA0AFF300000
6FFA003EC00CFF200000
6FFD36EC100BFF748000
2FFFFFB10007FFFFB000
05DFC60000019EE81000
ENDCHAR
STARTCHAR umacron
ENCODING 363
SWIDTH 553 0
DWIDTH 15 0
BBX 17 19 0 0
BITMAP
000000002222222200
0000002DFFFFFFFF20
0000007FFFFFFFE600
000000000000000000
000000000000000000
0007EF9000004EC200
0009FFF20001DFF200
0002FFF00007FFA000
0005FFB0002EFF3000
000BFF60009FFB0000
002FFE1003FFF50000
009FF9000CFFD00000
01FFF3007FFF700000
08FFB003FCFF200000
0DFF401DB9FC000000
3FFD01CD1EFA000000
5FFC4DE22FFC360000
2FFFFD301FFFFD0000
07EE910006EEA20000
ENDCHAR
STARTCHAR Ubreve
ENCODING 364
SWIDTH 624 0
DWIDTH 17 0
BBX 20 27 0 0
BITMAP
00000000007E40001B60
0000000001FFC215DF30
0000000000DFFFFFF500
00000000003CFFEA3000
00000000000012000000
00000000000000000000
000006DFB10000003EC1
000009FFF6000000BFF5
000000EFF4000004FFD0
000001FFF100000CFF70
000006FFB000004FFE10
00000CFF500000CFF900
00004FFE000005FFF400
0000BFF700000DFFD000
0002FFE100005FFF8000
0009FF900000DFFF3000
001EFF200007FFFD0000
007FFA00001EFFF80000
00DFF300009FFFF30000
04FFC00003FCEFD00000
0AFF60000CF5FF900000
0EFF10008F67FF600000
4FFB0004FA0AFF300000
6FFA003EC00CFF200000
6FFD36EC100BFF748000
2FFFFFB10007FFFFB000
05DFC60000019EE81000
ENDCHAR
STARTCHAR ubreve
ENCODING 365
SWIDTH 553 0
DWIDTH 15 0
BBX 17 21 0 0
BITMAP
000000007E20000B40
00000001FF60007F40
00000002FFC229FB00
00000000CFFFFFC100
000000002BFFE81000
000000000011000000
000000000000000000
0007EF9000004EC200
0009FFF20001DFF200
0002FFF00007FFA000
0005FFB0002EFF3000
000BFF60009FFB0000
002FFE1003FFF50000
009FF9000CFFD00000
01FFF3007FFF700000
08FFB003FCFF200000
0DFF401DB9FC000000
3FFD01CD1EFA000000
5FFC4DE22FFC360000
2FFFFD301FFFFD0000
07EE910006EEA20000
ENDCHAR
STARTCHAR Uring
ENCODING 366
SWIDTH 624 0
DWIDTH 17 0
BBX 20 27 0 0
BITMAP
0000000000007DFD7000
00000000000AFDAFF500
00000000006FE20CF900
0000000000CF900CF900
0000000000DF701EF600
0000000000BFB1AFD100
000006DFB14FFFFC5EC1
000009FFF6027860BFF5
000000EFF4000004FFD0
000001FFF100000CFF70
000006FFB000004FFE10
00000CFF500000CFF900
00004FFE000005FFF400
0000BFF700000DFFD000
0002FFE100005FFF8000
0009FF900000DFFF3000
001EFF200007FFFD0000
007FFA00001EFFF80000
00DFF300009FFFF30000
04FFC00003FEDFD00000
0AFF60000CF6FF900000
0EFF10008F86FF600000
4FFB0004FB0AFF300000
6FFA003ED10CFF200000
6FFD36ED200BFF748000
2FFFFFB10008FFFFB000
05DFC6000001AEE81000
ENDCHAR
STARTCHAR uring
ENCODING 367
SWIDTH 553 0
DWIDTH 15 0
BBX 16 22 0 0
BITMAP
00000000029EFD60
000000002EFCAFF3
00000000BFB00EF6
00000001FF501FF5
00000000FF71AFD0
000000008FFFFC20
0000000004785000
0000000000000000
0007EF9000004EC2
0009FFF20001DFF2
0002FFF00007FFA0
0005FFB0002EFF30
000BFF60009FFB00
002FFE1003FFF500
009FF9000CFFD000
01FFF3007FFF7000
08FFB003FCFF2000
0DFF401DB9FC0000
3FFD01CD1EFA0000
5FFC4DE22FFC3600
2FFFFD301FFFFD00
07EE910006EEA200
ENDCHAR
STARTCHAR Uhungarumlaut
ENCODING 368
SWIDTH 624 0
DWIDTH 17 0
BBX 20 28 0 0
BITMAP
00000000000021000300
000000000002FD003FC0
000000000007FF008FE0
00000000001DF901EF80
0000000000BFB11CFA00
0000000008E7009D7000
00000000000000000000
000006DFB10000003EC1
000009FFF6000000BFF5
000000EFF4000004FFD0
000001FFF100000CFF70
000006FFB000004FFE10
00000CFF500000CFF900
00004FFE000005FFF400
0000BFF700000DFFD000
0002FFE100005FFF8000
0009FF900000DFFF3000
001EFF200007FFFD0000
007FFA00001EFFF80000
00DFF300009FFFF30000
04FFC00003FCEFD00000
0AFF60000CF5FF900000
0EFF10008F67FF600000
4FFB0004FA0AFF300000
6FFA003EC00CFF200000
6FFD36EC100BFF748000
2FFFFFB10007FFFFB000
05DFC60000019EE81000
ENDCHAR
STARTCHAR uhungarumlaut
ENCODING 369
SWIDTH 553 0
DWIDTH 15 0
BBX 17 23 0 0
BITMAP
000000000010000100
0000000002FA004F90
0000000009FD00AFB0
000000002FF803FF70
00000000BFD10CFC00
00000008FD209FD100
0000007FC208FB1000
000000550006400000
000000000000000000
0007EF9000004EC200
0009FFF20001DFF200
0002FFF00007FFA000
0005FFB0002EFF3000
000BFF60009FFB0000
002FFE1003FFF50000
009FF9000CFFD00000
01FFF3007FFF700000
08FFB003FCFF200000
0DFF401DB9FC000000
3FFD01CD1EFA000000
5FFC4DE22FFC360000
2FFFFD301FFFFD0000
07EE910006EEA20000
ENDCHAR
STARTCHAR Uogonek
ENCODING 370
SWIDTH 684 0
DWIDTH 19 0
BBX 20 28 1 -7
BITMAP
000008EFA00000004EA0
00000BFFF4000000DFF2
000001FFF2000006FFB0
000003FFD000000DFF40
000008FF9000007FFD00
00001EFF300001EFF700
00006FFC000007FFF200
0000DFF500001EFFB000
0004FFD000008FFF6000
000BFF600002EFFF1000
002FFE100009FFFA0000
009FF800002FFFF50000
01EFF10000BFFFF10000
06FF900006FBFFB00000
0CFF40001EE6FF700000
2FFD0000AF49FF400000
6FF90006F80CFF100000
8FF7004FA00EFE000000
8FFB38FB000EFF547000
4FFFFF90000AFFFF9000
07DFC4000002BFFB1000
000000000001CF700000
00000000001DF7000000
00000000009FC0000000
0000000002FF70000000
0000000007FF95500000
0000000007FFFF400000
0000000001CFC5000000
ENDCHAR
STARTCHAR uogonek
ENCODING 371
SWIDTH 553 0
DWIDTH 15 0
BBX 16 21 0 -7
BITMAP
0007EF9000004EC2
0009FFF20001DFF2
0002FFF00007FFA0
0005FFB0002EFF30
000BFF60009FFB00
002FFE1003FFF500
009FF9000CFFD000
01FFF3007FFF7000
08FFB003FCFF2000
0DFF401DB9FC0000
3FFD01CD1EFA0000
5FFC4DE22FFC3600
2FFFFD301FFFFD00
07EE910006EFE400
0000000005FE3000
000000004FE30000
00000001EF600000
00000009FF100000
0000000DFF471000
0000000DFFFD0000
00000005EEA10000
ENDCHAR
STARTCHAR Wcircumflex
ENCODING 372
SWIDTH 941 0
DWIDTH 26 0
BBX 26 27 2 0
BITMAP
00000000000000004D50000000
0000000000000007FFE0000000
00000000000002BFFFF5000000
0000000000029FFB2EFE100000
000000000004EC5004DF600000
00000000000000000000000000
028CEE80000000000000008EC1
6FFFFFF900000000000006FFF7
AFFFFEFF10000000000002FFFB
1A9409FF30000000000000BFFD
00003FFD000000065000008FFE
0000CFF7000003DFF500007FFD
0005FFE100006FFFB000007FFB
000DFF800007FFFD1000009FF8
005FFE10007FFFF4000000BFF5
00CFF80006FFFFB0000001EFE1
04FFE1004FFFFF40000005FFA0
09FF8002EFBEFE0000000AFF30
1EFF200CFB6FF90000002FFB00
5FFA008FD19FF6000000AFF300
9FF504FE20CFF2000003FF8000
DFF11DF500EFF000000CFC0000
EFC09F8000FFE000009FD20000
FFB3FB0000DFD00007FE300000
DFCCE20000AFF1009FD3000000
7FFF5000004FFD9EF910000000
0AE800000005DFD93000000000
ENDCHAR
STARTCHAR wcircumflex
ENCODING 373
SWIDTH 750 0
DWIDTH 21 0
BBX 20 22 1 0
BITMAP
00000000000004200000
0000000000006FF20000
000000000008FFF60000
0000000002BFDEF90000
000000006EFB1AFE0000
0000000EFE7004FF6000
00000004610000472000
00000000000000000000
01AFE60000000001BEB1
02EFFF00006CC101EFF6
003FFD0002FFF1008FF9
003FFA0009FF90005FF9
007FF5003FFF20004FF7
00CFE000BFFA00005FF3
03FF8006FFF300008FD0
09FF202EFFD00000DF70
1EFB00CDFF900005FD10
6FF50AF5FF70001DF300
BFF19F62FF8000BF8000
EFDCF600FFE34CF90000
EFFF6000AFFFFF700000
7EB300001AEEA3000000
ENDCHAR
STARTCHAR Ycircumflex
ENCODING 374
SWIDTH 580 0
DWIDTH 16 0
BBX 20 35 0 -8
BITMAP
00000000000000510000
0000000000001AFC0000
000000000003CFFF3000
00000000018FF9FFB000
000000004FFD409FF700
00000000165000057300
000007DFB10000004EB1
00000AFFF5000000CFF3
000000FFF3000005FFC0
000002FFE000000DFF50
000007FFA000006FFD00
00000DFF400000DFF800
00005FFD000006FFF200
0000CFF600000DFFC000
0003FFE100007FFF7000
000AFF700001EFFF1000
002FFE100008FFFB0000
008FF900002FFFF60000
00EFF20000AFFFF10000
05FFB00004FDFFA00000
0BFF50001DE9FF500000
1FFE00009F5CFE000000
5FFA0005F93FF8000000
7FF8004EB0AFF2000000
7FFC37FC13FFA0000000
3FFFFFA10AFF30000000
05DFC5003FFB00000000
00000000BFF200000000
00000006FF8000000000
0000002EFC0000000000
000001CFE20000000000
00001BFF500000000000
0002CFF6000000000000
018EFE40000000000000
06ED8100000000000000
ENDCHAR
STARTCHAR ycircumflex
ENCODING 375
SWIDTH 549 0
DWIDTH 15 0
BBX 16 30 0 -8
BITMAP
0000000000005000
00000000001BFA00
0000000002CFFE00
000000005EFCFF30
0000002AFF62FF80
000006FFC300AFE1
0000017400001660
0000000000000000
0005DFA000003ED2
0007FFF40000CFF4
0000FFF20005FFE0
0003FFD0000DFF90
0009FF80006FFF40
001EFF2001EFFD00
007FFB0008FFF800
00EFF5003FFFF300
05FFD001DDFFD000
0BFF600AE7FF7000
1FFE009F59FF2000
2FFE4BF60EFB0000
1FFFFF605FF50000
05DEB300BFD00000
00000002FF600000
0000000BFD000000
0000005FF5000000
000003EFA0000000
00002DFD10000000
0005EFE200000000
02CFFD2000000000
008A610000000000
ENDCHAR
STARTCHAR Ydieresis
ENCODING 376
SWIDTH 580 0
DWIDTH 16 0
BBX 20 34 0 -8
BITMAP
000000002CFC2009ED40
00000000AFFF605FFFB0
000000009FFF405FFF80
000000002DE8000AFB10
00000000000000000000
000007DFB10000004EB1
00000AFFF5000000CFF3
000000FFF3000005FFC0
000002FFE000000DFF50
000007FFA000006FFD00
00000DFF400000DFF800
00005FFD000006FFF200
0000CFF600000DFFC000
0003FFE100007FFF7000
000AFF700001EFFF1000
002FFE100008FFFB0000
008FF900002FFFF60000
00EFF20000AFFFF10000
05FFB00004FDFFA00000
0BFF50001DE9FF500000
1FFE00009F5CFE000000
5FFA0005F93FF8000000
7FF8004EB0AFF2000000
7FFC37FC13FFA0000000
3FFFFFA10AFF30000000
05DFC5003FFB00000000
00000000BFF200000000
00000006FF8000000000
0000002EFC0000000000
000001CFE20000000000
00001BFF500000000000
0002CFF6000000000000
018EFE40000000000000
06ED8100000000000000
ENDCHAR
STARTCHAR Zacute
ENCODING 377
SWIDTH 501 0
DWIDTH 14 0
BBX 18 27 -1 0
BITMAP
00000000000000DD30
00000000000005FF90
0000000000001DFF40
000000000001CFF500
000000000008E92000
000000000000000000
00006C6200146ADE80
00006FFFFFFFFFFFF6
00002FFFFFFFB6BFFA
000004BDDA620AFFF3
0000000000009FFF70
000000000008FFF900
00000000007FFFA000
0000000006FFFA0000
000000005FFFB00000
00000004FFFB000000
0000003EFFB0000000
000002EFFB00000000
00001DFFB100000000
0000BFFC1000000000
0009FFC10000000000
005FFD100000000000
02EFE2000000000000
0BFF50258BCC800000
3FFA7CFFFFFFF80000
4FFFFFFFFFFFFE0000
0BFD964210139E1000
ENDCHAR
STARTCHAR zacute
ENCODING 378
SWIDTH 430 0
DWIDTH 12 0
BBX 14 23 0 0
BITMAP
00000000000100
00000000001EE2
00000000005FF8
0000000000CFF5
0000000006FFB0
000000003EFA10
00000003EE7000
00000003610000
00000000000000
0009D842139E50
0009FFFFFFFFC0
00019BB97BFF90
00000000AFFD10
0000001CFFD200
000003DFFB1000
00004EFF900000
0005FFF7000000
005FFE40000000
03FFE300000000
1DFF4000000000
8FFB9DEFE50000
DFFFFFFFFF1000
4DC731149E2000
ENDCHAR
STARTCHAR Zdotaccent
ENCODING 379
SWIDTH 501 0
DWIDTH 14 0
BBX 18 27 -1 0
BITMAP
000000000027600000
0000000002EFF90000
0000000006FFFA0000
0000000002EFF40000
000000000037300000
000000000000000000
00006C6200146ADE80
00006FFFFFFFFFFFF6
00002FFFFFFFB6BFFA
000004BDDA620AFFF3
0000000000009FFF70
000000000008FFF900
00000000007FFFA000
0000000006FFFB0000
000000005FFFB00000
00000004FFFB000000
0000003EFFB1000000
000002EFFB10000000
00001DFFC100000000
0000BFFC1000000000
0009FFD10000000000
005FFD200000000000
02EFE3000000000000
0BFF500258A9500000
3FFA5AEFFFFFF70000
4FFFFFFFFFFFFE0000
0BFD964210139E1000
ENDCHAR
STARTCHAR zdotaccent
ENCODING 380
SWIDTH 430 0
DWIDTH 12 0
BBX 13 21 0 0
BITMAP
00000006EE7000
0000001FFFF000
0000001FFFC000
00000007FD3000
00000000000000
00000000000000
00000000000000
0009D842139E50
0009FFFFFFFFC0
00019BB97BFF90
00000000AFFD10
0000001CFFD200
000003DFFB1000
00004EFF900000
0005FFF7000000
005FFE40000000
03FFE300000000
1DFF4000000000
8FFB9DEFE50000
DFFFFFFFFF1000
4DC731149E2000
ENDCHAR
STARTCHAR Zcaron
ENCODING 381
SWIDTH 501 0
DWIDTH 14 0
BBX 18 27 -1 0
BITMAP
000000005CC50001A7
000000004EFF305DFA
0000000006FFCBFFB1
0000000000EFFE9300
00000000004A500000
000000000000000000
00006C6200146ADE80
00006FFFFFFFFFFFF6
00002FFFFFFFB6BFFA
000004BDDA620AFFF3
0000000000009FFF70
000000000008FFF900
00000000007FFFA000
0000000006FFFA0000
000000005FFFB00000
00000004FFFB000000
0000003EFFB0000000
000002EFFB00000000
00001DFFB100000000
0000BFFC1000000000
0009FFC10000000000
005FFD100000000000
02EFE2000000000000
0BFF50258BCC800000
3FFA7CFFFFFFF80000
4FFFFFFFFFFFFE0000
0BFD964210139E1000
ENDCHAR
STARTCHAR zcaron
ENCODING 382
SWIDTH 430 0
DWIDTH 12 0
BBX 15 21 0 0
BITMAP
000003A9100008A0
000003FF8001AFC0
000000BFE04DFD30
0000006FFAFF8100
0000002FFE920000
0000000771000000
0000000000000000
0009D842139E5000
0009FFFFFFFFC000
00019BB97BFF9000
00000000AFFD1000
0000001CFFD20000
000003DFFB100000
00004EFF90000000
0005FFF700000000
005FFE4000000000
03FFE30000000000
1DFF400000000000
8FFB9DEFE5000000
DFFFFFFFFF100000
4DC731149E200000
ENDCHAR
STARTCHAR florin
ENCODING 402
SWIDTH 466 0
DWIDTH 13 0
BBX 23 30 -6 -8
BITMAP
00000000000000002AEE9100
0000000000000002EFD9EA00
000000000000001DFB107F20
000000000000009FE200AF50
00000000000002FF7004FF50
0000000000000AFE103EFF20
0000000000002FF900EFF900
0000000000008FF4009FC100
000000000000EFD000010000
000000000005FF8000000000
00000000000AFFEFD6000000
0000000007DFFFFFFF300000
00000000AFFFFFEDDC200000
000000007CDFF60000000000
0000000000DFF20000000000
0000000002FFD00000000000
0000000006FF900000000000
0000000009FF500000000000
000000000DFF200000000000
000000002FFD000000000000
000000006FF8000000000000
00000000AFF4000000000000
00000000EFE0000000000000
00000004FF90000000000000
0000000AFF30000000000000
0162001FFC00000000000000
0CF6008FF400000000000000
4FF904FFB000000000000000
1DFFBFFC1000000000000000
018DED810000000000000000
ENDCHAR
STARTCHAR AEacute
ENCODING 508
SWIDTH 878 0
DWIDTH 25 0
BBX 29 27 -2 0
BITMAP
0000000000000000000000DD300000
0000000000000000000005FF900000
000000000000000000001DFF400000
00000000000000000001CFF6000000
00000000000000000008E920000000
000000000000000000000000000000
0000000000000004BEEC58CEFDA300
00000000000001AFFFFFFFFDA9EF30
0000000000001CFE75FFFE50007F90
000000000000CFD21CFFD200009FB0
00000000000AFE208FFE200006FF80
00000000007FF301EFF600008FFF20
0000000003FF6004FFE0000CFFF800
000000000DFB0006FFA0001EFF9000
000000008FE10005FF800003840000
00000003FF600001EFC00000000000
0000000DFE8BEFFFFFFDDE80000000
000003AFFFFFFFFFFFFFFFE0000000
00007FFFDDDDDDDDFFFFB410000000
00004EFE1000001CFFE50000000000
00006FF60000009FFE300000000000
0001EFC0000002FFF4000000000000
000AFF40000006FFC000001C500000
004FF900000007FFA00001CF700000
02EFD100000004FFD1005EFE200000
7EFF30000000009FFECEFFD3000000
AEC4000000000005BEFDB500000000
ENDCHAR
STARTCHAR aeacute
ENCODING 509
SWIDTH 770 0
DWIDTH 22 0
BBX 21 23 1 0
BITMAP
0000000000000110000000
0000000000000DE3000000
0000000000004FF9000000
000000000000BFF7000000
000000000005FFC0000000
00000000003EFB10000000
0000000002EF8000000000
0000000003620000000000
0000000000000000000000
000003AEEA17EB8CEE9100
00009FFC9EEFFFFABFFA00
000AFF6006FFFE401FFF10
009FF70005FFF6001FFF20
05FFB0000AFFC0008FFE00
0DFF30001EFF4004FFF800
6FFB00006FFE007FFFB000
BFF60000DFFC8DFFE70000
EFF20005FFFFEDA6100000
FFF1001DFFF90000000000
EFF0009FAFFA0000063000
CFF307F73FFE1001AF7000
5FFCBF8009FFD9BFFC1000
05DFC400006CEFDB600000
ENDCHAR
STARTCHAR Scommaaccent
ENCODING 536
SWIDTH 474 0
DWIDTH 13 0
BBX 16 29 0 -8
BITMAP
00000004BEFD9200
000000AFFC9BFE30
00000BFE50008FC0
00008FF500003FF3
0001FFC000005FF5
0007FF700000AFF4
000BFF500004FFF1
000DFF50005EFF90
000DFF9001FFFE20
000AFFE1007EB200
0006FFF900000000
0000DFFF40000000
00003FFFD1000000
000007FFF8000000
000000AFFE000000
03C4001EFF200000
1EF60008FF200000
4FF60007FD000000
3FFB001CF6000000
0BFFC9DF70000000
018DFEA300000000
0000000000000000
0006A40000000000
005FFE0000000000
002EFF1000000000
000CFC0000000000
001EF40000000000
00AF800000000000
04D6000000000000
ENDCHAR
STARTCHAR scommaaccent
ENCODING 537
SWIDTH 423 0
DWIDTH 12 0
BBX 12 22 0 -8
BITMAP
000018DFEB40
0003EFC9DFF6
000DFC002FFC
003FFA000EFA
004FFD000CB2
001FFF700000
000AFFF40000
0002EFFD1000
00005FFF7000
03300AFFC000
4FC003FFC000
9FF303FF8000
5FFEBEFB0000
05CEEC600000
000000000000
005940000000
05FFF1000000
02EFF1000000
00BFD0000000
01EF50000000
0AF800000000
4D6000000000
ENDCHAR
STARTCHAR dotlessj
ENCODING 567
SWIDTH 277 0
DWIDTH 8 0
BBX 12 22 -5 -8
BITMAP
00000001BEE7
00000002EFFB
000000009FFA
000000009FF8
00000000BFF5
00000000DFF2
00000002FFE0
00000006FF90
0000000AFF50
0000000EFF10
0000004FFB00
0000009FF500
000001EFE100
000006FF8000
00000DFF2000
00004FF90000
0000CFE20000
0006FF700000
002EFB000000
01CFD1000000
5DFC10000000
AE7000000000
ENDCHAR
STARTCHAR circumflex
ENCODING 710
SWIDTH 354 0
DWIDTH 10 0
BBX 10 6 0 15
BITMAP
0000007C30
000008FFA0
0001BFFFD0
005EFB8FF2
3BFF802FF8
7EB30007EB
ENDCHAR
STARTCHAR caron
ENCODING 711
SWIDTH 381 0
DWIDTH 11 0
BBX 10 6 1 15
BITMAP
6B700001B6
6FF5003DF8
1EFA18FFA1
0AFDDFC400
06FFC50000
0073000000
ENDCHAR
STARTCHAR breve
ENCODING 728
SWIDTH 344 0
DWIDTH 10 0
BBX 9 5 1 16
BITMAP
2D800006A0
AFC0003E90
BFF737FE20
5FFFFFE400
06DED92000
ENDCHAR
STARTCHAR dotaccent
ENCODING 729
SWIDTH 217 0
DWIDTH 6 0
BBX 6 4 1 17
BITMAP
05EE80
1FFFF1
0EFFD0
06FD30
ENDCHAR
STARTCHAR ring
ENCODING 730
SWIDTH 402 0
DWIDTH 11 0
BBX 9 7 3 15
BITMAP
003AEFC300
04EFBCFE00
0DF902FF30
4FF203FF30
4FF209FD00
1EFCBFE400
03BEEA2000
ENDCHAR
STARTCHAR ogonek
ENCODING 731
SWIDTH 311 0
DWIDTH 9 0
BBX 8 9 1 -7
BITMAP
00000371
0001BE40
003DD300
02EE3000
0CF70000
6FF30000
BFF67200
BFFFE100
4DEB2000
ENDCHAR
STARTCHAR tilde
ENCODING 732
SWIDTH 397 0
DWIDTH 11 0
BBX 12 5 1 16
BITMAP
002AEC2000B3
02EFFFC003F3
0BFEFFF94DC0
3F904FFFFD20
3C0005DEA100
ENDCHAR
STARTCHAR hungarumlaut
ENCODING 733
SWIDTH 392 0
DWIDTH 11 0
BBX 12 7 0 15
BITMAP
000058000580
0000DF401EF3
0005FF307FF2
001DFB01EFA0
00AFD10BFC10
08FD209FC100
4E9105E81000
ENDCHAR
STARTCHAR pi
ENCODING 960
SWIDTH 640 0
DWIDTH 18 0
BBX 20 14 -1 0
BITMAP
00005BEFFFFFFFFFFFF2
0009FFFFFFFFFFFFFFB0
0019743DF879AFFE9600
0000003FE0005FF90000
0000009F9000BFF30000
000001EF3002FFC00000
000008FC0007FF700000
00001EF7000BFF300000
0000AFE1000FFE000000
0005FF90003FFA000000
003EFF20005FF8000000
06EFF800005FFC7B0000
5FFFC000002FFFFB0000
1BEA10000005EE910000
ENDCHAR
STARTCHAR uni1E02
ENCODING 7682
SWIDTH 551 0
DWIDTH 15 0
BBX 16 27 1 0
BITMAP
0000000001672000
000000000CFFE000
000000001FFFF100
000000000BFF9000
0000000001760000
0000000000000000
000158BDFFEC8300
008EFFFDA9ADFF70
08FFF9300000AFF4
02AA278100003FFA
00005FFD00002FFC
0001DFFA00005FFB
0008FFE20000BFF7
001FFF700007FFD1
007FFD00007FFE40
00DFF5005CFFE400
05FFF9BEFFFB2000
0AFFFFFFFFC10000
0EFE85116EFC1000
3FF9000007FF6000
6FF5000004FF9000
8FF1000006FF8000
AFD000000CFF4000
AFC000009FFB0000
8FE2003BFFB10000
2EFEBCFFE7000000
03BEEDA610000000
ENDCHAR
STARTCHAR uni1E03
ENCODING 7683
SWIDTH 525 0
DWIDTH 15 0
BBX 15 23 1 0
BITMAP
00001DD200000000
00005FF700000000
00007FF6002CFC20
0000BFF3009FFF70
0000EFE0009FFF40
0003FFA0002DF800
0007FF5000000000
000CFE1000000000
001FFA0000000000
006FF429EEB30000
00BFE4ED9FFE1000
01FFBEB10AFF6000
06FFFC1008FF9000
0BFFE20009FFA000
1FFF70000AFF9000
5FFD00000DFF7000
9FF600003FFF2000
CFE100009FFB0000
DFB00003FFF30000
DF90001DFF600000
9FB003DFF8000000
2EFDDFFE60000000
03BEFC7100000000
ENDCHAR
STARTCHAR uni1E0A
ENCODING 7690
SWIDTH 630 0
DWIDTH 18 0
BBX 18 27 1 0
BITMAP
000000000037500000
0000000004FFF80000
0000000007FFF90000
0000000003FFF30000
000000000047300000
000000000000000000
00048BDEFEDA610000
01DFFFFC99AEFE6000
01DFF82000019FF800
0017301100000AFF40
00000AFF700002FFB0
00004FFF400000EFF0
0000CFFA000000DFF2
0005FFF2000000EFF1
000CFFA0000001FFF0
003FFF30000005FFC0
009FFB0000000AFF80
01EFF50000002FFF20
05FFE0000000BFFA00
0AFF90000005FFE200
0EFF3000003EFF6000
3FFE000002DFF90000
7FF900002DFFA00000
9FF60004EFF9000000
9FF4029FFE60000000
3FFBAFFFA200000000
03BEEC820000000000
ENDCHAR
STARTCHAR uni1E0B
ENCODING 7691
SWIDTH 557 0
DWIDTH 16 0
BBX 18 23 1 0
BITMAP
000000000000005EC1
00000000000001EFE1
00003CFB100007FF80
0000BFFF50000DFF20
0000BFFF20003FFC00
00003DE600009FF600
000000000000EFF100
000000000003FFB000
000000000008FF6000
0000018DFC4DFF1000
00005EFD9DFFFB0000
0005FFA102FFF60000
004FFB0000EFF10000
01EFE10003FFC00000
09FF700008FF700000
1FFE10000DFF300000
7FFA00005FFE000000
BFF60000DFFA000000
CFF40007FFF6000000
CFF3003FDFF3000000
AFF502DB7FF7480000
4FFDAEC13FFFFA0000
05CFD70007EE910000
ENDCHAR
STARTCHAR uni1E1E
ENCODING 7710
SWIDTH 518 0
DWIDTH 15 0
BBX 18 27 0 0
BITMAP
000000000001671000
00000000000DFFD000
00000000002FFFE000
00000000000CFF8000
000000000001750000
000000000000000000
0007CFEEDB986546D4
00BFFFFFFFFFFFFFF1
05FFFFEDDFFEFFFC40
06FF91006FF2000000
01DC0001EFB0000000
00010006FF60000000
0000000DFF10000000
0000003FFC00000000
0000008FF700000000
000000DFFBCC810000
000018FFFFFFFA0000
0005EFFFFFFFFA0000
0005BFFF6110000000
00004FFE0000000000
0000BFF80000000000
0002FFE10000000000
0009FF800000000000
003FFE100000000000
01CFF4000000000000
0BFF60000000000000
1DD500000000000000
ENDCHAR
STARTCHAR uni1E1F
ENCODING 7711
SWIDTH 393 0
DWIDTH 11 0
BBX 16 31 -1 -4
BITMAP
0000000004DFA000
000000000DFFF400
000000000CFFF100
0000000003EE5000
0000000000001000
00000000019EFFA1
000000001DFD6CFB
000000009FE208FF
00000003FF801DFE
00000009FF20DFF9
0000000EFC008EA1
0000004FF7000000
0000009FF2000000
000000DFC0000000
000003FFDCC91000
00004BFFFFFFB000
003DFFFFFFFFC000
005DBFFB11000000
00007FF700000000
0000CFF200000000
0001FFD000000000
0006FF9000000000
000BFF4000000000
001FFE1000000000
005FFA0000000000
00AFF60000000000
01FFF10000000000
07FFA00000000000
0DFF300000000000
5FFB000000000000
6FC2000000000000
ENDCHAR
STARTCHAR uni1E40
ENCODING 7744
SWIDTH 931 0
DWIDTH 26 0
BBX 30 27 -3 0
BITMAP
000000000000000000000047500000
0000000000000000000006FFF60000
0000000000000000000009FFF70000
0000000000000000000005FFE20000
000000000000000000000057200000
000000000000000000000000000000
0000000000000018DF90000004BEC1
00000000000004EFFFE000008FFFF2
0000000000004ED9FF900008FCEFC0
000000000003EE2CFF30005FE6FF70
00000000001DF53FFC0002EF4AFF20
0000000000AFA09FF7000BF91FFC00
0000000005FE20DFF2005FE17FF700
000000001DF703FFC001DF60CFF200
000000008FD008FF8007FC03FFC000
00000002EF500CFF401EF408FF8000
00000009FC000FFF008FB00CFF3000
0000003FF4003FFB01EF302FFE0000
000000BFB0007FF908FB006FF90000
000004FF30009FF61EF300AFF60000
00000DFA0000BFF38FA000DFF20000
00007FF20000CFF3EF2001FFE00000
0003FF800000CFF9F90003FFC00000
001CFD100000CFFFE10003FFB00000
00AFF4000000BFFF600002FFE44800
6DFF700000009FFB000000BFFFFA00
9ED6000000002DC10000002BFE9100
ENDCHAR
STARTCHAR uni1E41
ENCODING 7745
SWIDTH 814 0
DWIDTH 23 0
BBX 22 21 0 0
BITMAP
0000000000004DE9000000
000000000000EFFF200000
000000000000DFFE100000
0000000000004EE5000000
0000000000000000000000
0000000000000000000000
0000000000000000000000
0008EE60007DE60004CEA1
000BFFE00BFFFF006FFFF8
0004FFD0AFFEFF14FFEFFA
0005FF87FD33FE2ED35FF8
000AFF6FD107FACE20AFF3
001EFCED100DFDF403FFC0
005FFFE2005FFF700AFF40
00BFFF3000CFFA003FFC00
02FFF50005FFD1009FF500
09FFA0000CFF5000EFE000
1EFF20004FFC0002FFB000
8FF90000BFF50003FFD7B2
DFF20001FFD00000EFFFD0
6E8000009E5000004DEA20
ENDCHAR
STARTCHAR uni1E56
ENCODING 7766
SWIDTH 553 0
DWIDTH 16 0
BBX 19 27 -1 0
BITMAP
00000000000004740000
0000000000006FFF5000
000000000000AFFF6000
0000000000005FFE1000
00000000000005720000
00000000000000000000
00000027ADEFEC830000
00002BFFFFDA9CFF9000
0000DFFF9300005FF900
0000EFD30000000BFF20
00002814EB100009FF50
0000000DFF30000BFF40
0000006FFC00002FFF20
000000CFF60000BFFB00
000003FFE10008FFF300
000009FF9001AFFF5000
00000EFF317EFFE40000
00005FFFCFFFE8100000
0000AFFFEDA510000000
0001FFE1000000000000
0007FF90000000000000
000EFF20000000000000
006FFA00000000000000
01EFE200000000000000
0AFF5000000000000000
8FF80000000000000000
BE600000000000000000
ENDCHAR
STARTCHAR uni1E57
ENCODING 7767
SWIDTH 550 0
DWIDTH 15 0
BBX 17 29 -2 -8
BITMAP
00000000005EE80000
0000000000FFFF1000
0000000000EFFD0000
00000000006FD30000
000000000000000000
000000000000000000
000000000000000000
00004DFB104BEE9100
00006FFF48FCAFFA00
00000CFFAF900CFF20
00000DFFFA000AFF50
00001FFFC1000BFF50
00005FFF30000DFF40
00008FFA00002FFF10
0000CFF300007FFA00
0001FFC00001EFF400
0005FF800008FFA000
0009FF70005FFD1000
000DFFB006FFD20000
003FFEFDDFFC100000
007FF39EEB50000000
00BFE0000000000000
01FFA0000000000000
06FF50000000000000
0BFF10000000000000
1FFB00000000000000
7FF600000000000000
DFE100000000000000
8E6000000000000000
ENDCHAR
STARTCHAR uni1E60
ENCODING 7776
SWIDTH 474 0
DWIDTH 13 0
BBX 16 27 0 0
BITMAP
0000000000276100
0000000002EFFA00
0000000005FFFB00
0000000001EFF500
0000000000274000
0000000000000000
00000004BEFD9200
000000AFFC9BFE30
00000BFE50008FC0
00008FF500003FF3
0001FFC000005FF5
0007FF700000AFF4
000BFF500004FFF1
000DFF50005EFF90
000DFF9001FFFE20
000AFFE1007EB200
0006FFF900000000
0000DFFF40000000
00003FFFD1000000
000007FFF8000000
000000AFFE000000
03C4001EFF200000
1EF60008FF200000
4FF60007FD000000
3FFB001CF6000000
0BFFC9DF70000000
018DFEA300000000
ENDCHAR
STARTCHAR uni1E61
ENCODING 7777
SWIDTH 423 0
DWIDTH 12 0
BBX 12 21 0 0
BITMAP
000000009ED4
00000005FFFB
00000005FFF8
00000000AFB1
000000000000
000000000000
000000000000
000018DFEB40
0003EFC9DFF6
000DFC002FFC
003FFA000EFA
004FFD000CB2
001FFF700000
000AFFF40000
0002EFFD1000
00005FFF7000
03300AFFC000
4FC003FFC000
9FF303FF8000
5FFEBEFB0000
05CEEC600000
ENDCHAR
STARTCHAR uni1E6A
ENCODING 7786
SWIDTH 430 0
DWIDTH 12 0
BBX 16 27 1 0
BITMAP
0000000001761000
000000001EFFC000
000000003FFFD000
000000001DFF7000
0000000002740000
0000000000000000
029DFEDBA864337D
2EFFFFFFFFFFFFFA
AFFFEDDEFFFFFEA1
CFE5000AFF300000
7F70001FFD000000
0200007FF8000000
000000CFF4000000
000002FFE0000000
000007FFA0000000
00000CFF60000000
00001FFF10000000
00006FFB00000000
0000AFF600000000
0001EFF100000000
0005FFA000000000
000BFF3000000000
002FFB0000000000
00AFF30000000000
04FF900000000000
4EFC000000000000
AE91000000000000
ENDCHAR
STARTCHAR uni1E6B
ENCODING 7787
SWIDTH 358 0
DWIDTH 10 0
BBX 10 22 2 0
BITMAP
000002CFB1
00000BFFF5
00000AFFF3
000002DE70
00001AA100
00009FF500
0002FFE100
000AFF7000
3DFFFFFFF9
16DFFA8740
00EFE10000
05FFA00000
09FF500000
0EFE000000
3FFA000000
6FF6000000
9FF2000000
CFE0000000
DFE0008300
CFF77DF200
7FFFFF6000
09EEA30000
ENDCHAR
STARTCHAR Wgrave
ENCODING 7808
SWIDTH 941 0
DWIDTH 26 0
BBX 26 27 2 0
BITMAP
00000000000005E70000000000
0000000000001FFC0000000000
0000000000001EFF5000000000
00000000000005EFE200000000
0000000000000029DB00000000
00000000000000000000000000
028CEE80000000000000008EC1
6FFFFFF900000000000006FFF7
AFFFFEFF10000000000002FFFB
1A9409FF30000000000000BFFD
00003FFD000000165000008FFE
0000CFF7000004DFF500007FFD
0005FFE100007FFFA000007FFB
000DFF600009FFFC1000009FF8
005FFD00009FFFF3000000CFF5
00CFF60008FFFFA0000001FFE1
04FFD0006FFFFF30000006FFA0
09FF7003FFAFFD0000000CFF30
1EFE101DFA6FF80000004FFB00
5FF900BFC0AFF5000000CFF300
9FF406FE20CFF2000006FF8000
DFE02EF400EFE000002EFC0000
EFC0CF7000FFD00001CFD20000
FFB6FB0000DFE0001CFE300000
DFDEE10000AFF505DFD3000000
7FFF4000004FFFFFF910000000
0AE800000005DFD93000000000
ENDCHAR
STARTCHAR wgrave
ENCODING 7809
SWIDTH 750 0
DWIDTH 21 0
BBX 20 22 1 0
BITMAP
0000000001AE70000000
0000000007FF90000000
0000000007FF80000000
0000000004FF80000000
0000000000CFA0000000
00000000003EE1000000
000000000003B3000000
00000000000000000000
01AFE60000000001BEB1
02EFFF00006CC101EFF6
003FFD0002FFF1008FF9
003FFA0009FF90005FF9
007FF5003FFF20004FF7
00CFE000BFFA00005FF3
03FF8006FFF300008FD0
09FF202EFFD00000DF70
1EFB00CDFF900005FD10
6FF50AF5FF70001DF300
BFF19F62FF8000BF8000
EFDCF600FFE34CF90000
EFFF6000AFFFFF700000
7EB300001AEEA3000000
ENDCHAR
STARTCHAR Wacute
ENCODING 7810
SWIDTH 941 0
DWIDTH 26 0
BBX 26 27 2 0
BITMAP
000000000000000003FB100000
000000000000000009FF500000
00000000000000004FFE100000
0000000000000003EFD3000000
000000000000000DD710000000
00000000000000000000000000
028CEE80000000000000008EC1
6FFFFFF900000000000006FFF7
AFFFFEFF10000000000002FFFB
1A9409FF30000000000000BFFD
00003FFD000000065000008FFE
0000CFF7000003DFF500007FFD
0005FFE100006FFFB000007FFB
000DFF800007FFFD1000009FF8
005FFE10007FFFF4000000BFF5
00CFF80006FFFFB0000001EFE1
04FFE1004FFFFF40000005FFA0
09FF8002EFBEFE0000000AFF30
1EFF200CFB6FF90000002FFB00
5FFA008FD19FF6000000AFF300
9FF504FE20CFF2000003FF8000
DFF11DF500EFF000000CFC0000
EFC09F8000FFE000009FD20000
FFB3FB0000DFD00007FE300000
DFCCE20000AFF1009FD3000000
7FFF5000004FFD9EF910000000
0AE800000005DFD93000000000
ENDCHAR
STARTCHAR wacute
ENCODING 7811
SWIDTH 750 0
DWIDTH 21 0
BBX 20 23 1 0
BITMAP
00000000000001000000
0000000000004FB00000
000000000000AFF30000
000000000002FFE10000
00000000000BFF600000
00000000007FF7000000
0000000007FD40000000
00000000055000000000
00000000000000000000
01AFE60000000001BEB1
02EFFF00006CC101EFF6
003FFD0002FFF1008FF9
003FFA0009FF90005FF9
007FF5003FFF20004FF7
00CFE000BFFA00005FF3
03FF8006FFF300008FD0
09FF202EFFD00000DF70
1EFB00CDFF900005FD10
6FF50AF5FF70001DF300
BFF19F62FF8000BF8000
EFDCF600FFE34CF90000
EFFF6000AFFFFF700000
7EB300001AEEA3000000
ENDCHAR
STARTCHAR Wdieresis
ENCODING 7812
SWIDTH 941 0
DWIDTH 26 0
BBX 26 27 2 0
BITMAP
00000000000057400037500000
000000000008FFF304FFF80000
00000000000CFFF407FFF90000
000000000007FFD103FFF30000
00000000000067100047300000
00000000000000000000000000
028CEE80000000000000008EC1
6FFFFFF900000000000006FFF7
AFFFFEFF10000000000002FFFB
1A9409FF30000000000000BFFD
00003FFD000000165000008FFE
0000CFF7000004DFF500007FFD
0005FFE100007FFFA000007FFB
000DFF600009FFFC1000009FF8
005FFD00009FFFF3000000CFF5
00CFF60008FFFFA0000001FFE1
04FFD0006FFFFF30000006FFA0
09FF7003FFAFFD0000000CFF30
1EFE101DFA6FF80000004FFB00
5FF900BFC0AFF5000000CFF300
9FF406FE20CFF2000006FF8000
DFE02EF400EFE000002EFC0000
EFC0CF7000FFD00001CFD20000
FFB6FB0000DFE0001CFE300000
DFDEE10000AFF505DFD3000000
7FFF4000004FFFFFF910000000
0AE800000005DFD93000000000
ENDCHAR
STARTCHAR wdieresis
ENCODING 7813
SWIDTH 750 0
DWIDTH 21 0
BBX 20 21 1 0
BITMAP
00000003DFA001BFC200
0000000CFFF408FFF800
0000000CFFF207FFF600
00000003EE6001CF9000
00000000000000000000
00000000000000000000
00000000000000000000
01AFE60000000001BEB1
02EFFF00006CC101EFF6
003FFD0002FFF1008FF9
003FFA0009FF90005FF9
007FF5003FFF20004FF7
00CFE000BFFA00005FF3
03FF8006FFF300008FD0
09FF202EFFD00000DF70
1EFB00CDFF900005FD10
6FF50AF5FF70001DF300
BFF19F62FF8000BF8000
EFDCF600FFE34CF90000
EFFF6000AFFFFF700000
7EB300001AEEA3000000
ENDCHAR
STARTCHAR Ygrave
ENCODING 7922
SWIDTH 580 0
DWIDTH 16 0
BBX 20 35 0 -8
BITMAP
00000000000630000000
0000000000BFB0000000
0000000000FFF2000000
0000000000AFFB000000
000000000008EFA00000
00000000000015600000
000007DFB10000004EB1
00000AFFF5000000CFF3
000000FFF3000005FFC0
000002FFE000000DFF50
000007FFA000006FFD00
00000DFF400000DFF800
00005FFD000006FFF200
0000CFF600000DFFC000
0003FFE100007FFF7000
000AFF700001EFFF1000
002FFE100008FFFB0000
008FF900002FFFF60000
00EFF20000AFFFF10000
05FFB00004FDFFA00000
0BFF50001DE9FF500000
1FFE00009F5CFE000000
5FFA0005F93FF8000000
7FF8004EB0AFF2000000
7FFC37FC13FFA0000000
3FFFFFA10AFF30000000
05DFC5003FFB00000000
00000000BFF200000000
00000006FF8000000000
0000002EFC0000000000
000001CFE20000000000
00001BFF500000000000
0002CFF6000000000000
018EFE40000000000000
06ED8100000000000000
ENDCHAR
STARTCHAR ygrave
ENCODING 7923
SWIDTH 549 0
DWIDTH 15 0
BBX 16 30 0 -8
BITMAP
000000004DE20000
00000000DFF20000
00000000EFF20000
00000000AFF20000
000000004FF30000
0000000009F90000
00000000007A0000
0000000000000000
0005DFA000003ED2
0007FFF40000CFF4
0000FFF20005FFE0
0003FFD0000DFF90
0009FF80006FFF40
001EFF2001EFFD00
007FFB0008FFF800
00EFF5003FFFF300
05FFD001DDFFD000
0BFF600AE7FF7000
1FFE009F59FF2000
2FFE4BF60EFB0000
1FFFFF605FF50000
05DEB300BFD00000
00000002FF600000
0000000BFD000000
0000005FF5000000
000003EFA0000000
00002DFD10000000
0005EFE200000000
02CFFD2000000000
008A610000000000
ENDCHAR
STARTCHAR endash
ENCODING 8211
SWIDTH 751 0
DWIDTH 21 0
BBX 18 3 2 7
BITMAP
012222222222222220
2DFFFFFFFFFFFFFFF1
7FFFFFFFFFFFFFFE60
ENDCHAR
STARTCHAR emdash
ENCODING 8212
SWIDTH 1066 0
DWIDTH 30 0
BBX 26 3 2 7
BITMAP
00222222222222222222222222
1DFFFFFFFFFFFFFFFFFFFFFFFF
5FFFFFFFFFFFFFFFFFFFFFFFE6
ENDCHAR
STARTCHAR quoteleft
ENCODING 8216
SWIDTH 268 0
DWIDTH 8 0
BBX 6 7 3 16
BITMAP
0007D7
009FA0
06FE10
0DFB00
1FFE00
1FFF60
07EC20
ENDCHAR
STARTCHAR quoteright
ENCODING 8217
SWIDTH 268 0
DWIDTH 8 0
BBX 5 7 4 16
BITMAP
05DE40
0AFFB0
03FFC0
00FF90
03FF20
2DF500
BC4000
ENDCHAR
STARTCHAR quotesinglbase
ENCODING 8218
SWIDTH 268 0
DWIDTH 8 0
BBX 5 7 0 -3
BITMAP
04DE50
0AFFC0
03FFD0
00EFA0
03FF30
1DF600
AC5000
ENDCHAR
STARTCHAR quotedblleft
ENCODING 8220
SWIDTH 485 0
DWIDTH 14 0
BBX 11 7 4 16
BITMAP
002AE2006D80
03EE400AFA00
2EF6008FC000
9FF002FF7000
EFF207FF9000
EFF707FFE000
8EC202DE7000
ENDCHAR
STARTCHAR quotedblright
ENCODING 8221
SWIDTH 480 0
DWIDTH 13 0
BBX 11 7 4 16
BITMAP
009EC104DE50
02FFF50AFFC0
00CFF405FFB0
00AFE103FF70
01EF6008FC00
1CF7006FD200
BC4004E91000
ENDCHAR
STARTCHAR quotedblbase
ENCODING 8222
SWIDTH 463 0
DWIDTH 13 0
BBX 11 7 0 -3
BITMAP
04DE500AEB00
0AFFC02FFF40
03FFD00AFF50
00EFA007FF20
03FF300AFA00
1DF6007FC100
AC5003E91000
ENDCHAR
STARTCHAR dagger
ENCODING 8224
SWIDTH 488 0
DWIDTH 14 0
BBX 13 21 2 0
BITMAP
000000AEA10000
000001FFF60000
000004FFF50000
000007FFF20000
01000AFFD24500
0FFEEFFFFFFE10
06CFFFFFEDA300
00007FFE000000
0000AFF9000000
0000EFF4000000
0004FFD0000000
0008FF70000000
000CFF20000000
002FFA00000000
007FF400000000
00CFC000000000
02FF5000000000
07FC0000000000
0DF40000000000
4FA00000000000
7B100000000000
ENDCHAR
STARTCHAR daggerdbl
ENCODING 8225
SWIDTH 488 0
DWIDTH 14 0
BBX 14 21 1 0
BITMAP
0000000AEA1000
0000001FFF6000
0000004FFF5000
0000007FFF2000
000000AFFD1340
00FEEDFFFFFFF1
005BEFFFFFEB40
000007FFE10000
00000AFF900000
00000EFF400000
00004FFE000000
00008FF8143000
1EDCEFFFFF9000
06BEFFFED81000
0007FF50000000
000BFD00000000
002FF600000000
007FD000000000
00DF4000000000
04FA0000000000
07B10000000000
ENDCHAR
STARTCHAR bullet
ENCODING 8226
SWIDTH 437 0
DWIDTH 12 0
BBX 7 7 3 6
BITMAP
03BEE800
3FFFFF70
BFFFFFC0
DFFFFFC0
AFFFFF60
2EFFF900
01784000
ENDCHAR
STARTCHAR ellipsis
ENCODING 8230
SWIDTH 810 0
DWIDTH 23 0
BBX 21 5 0 -1
BITMAP
09ED70002DEB20007EE800
3FFFF100AFFFA001FFFF30
3FFFE000AFFF8002FFFF10
0AFF50003EFC10008FF600
0021000000200000011000
ENDCHAR
STARTCHAR perthousand
ENCODING 8240
SWIDTH 1184 0
DWIDTH 33 0
BBX 30 21 2 0
BITMAP
0006CED60000001AE3000000000000
01BFEAFF700001CFC0000000000000
0BFF40AFE00008FF30000000000000
5FF900AFF1004FF700000000000000
AFF300DFF001DFC000000000000000
DFD004FFB009FF2000000000000000
DFC00AFF404FF70000000000000000
9FD17FF901DFC00000000000000000
2DFFFF8009FE200000000000000000
005872004FF7000000000000000000
00000001DFB0000000000000000000
00000009FE20000200000000021000
0000004FF6002AFFF8000018EFFB10
000001DFB004EFC6FF7002DFD6DFB0
000009FE201EFD10CFC00BFF308FF1
00004FF6009FF400DFD05FF800AFF2
0001DFB000DFD002FFB0AFF200DFF0
0009FE2000FFA009FF60CFE005FFA0
004FF50000EF903FFC00AFD01DFE20
01DF9000008FE9EFD2004FFADFE400
05E900000007DFD8100005CED92000
ENDCHAR
STARTCHAR guilsinglleft
ENCODING 8249
SWIDTH 413 0
DWIDTH 12 0
BBX 9 11 2 3
BITMAP
0000004C30
00001AFD10
0006EFB100
03CFF80000
7FFE500000
FFF3000000
8FFB000000
09FFA00000
00AFF80000
000AFF6000
00009E8000
ENDCHAR
STARTCHAR guilsinglright
ENCODING 8250
SWIDTH 416 0
DWIDTH 12 0
BBX 9 11 1 3
BITMAP
009E800000
009FF80000
000AFF8000
0001CFF700
00001DFF60
000005FFD0
00006FFF60
001AFFB200
02CFE50000
1EF8100000
5B30000000
ENDCHAR
STARTCHAR fraction
ENCODING 8260
SWIDTH 580 0
DWIDTH 16 0
BBX 16 23 0 0
BITMAP
0000000000000164
0000000000001CF9
0000000000009FF2
000000000003FF70
00000000000BFD00
00000000005FF400
0000000001EFA000
0000000008FE2000
000000002FF70000
00000000BFD00000
00000005FF400000
0000000DFA000000
0000007FF2000000
000002EF80000000
00000AFD10000000
00004FF500000000
0000DFB000000000
0007FF2000000000
001EF80000000000
00AFD10000000000
03FF500000000000
0CFB000000000000
2EB1000000000000
ENDCHAR
STARTCHAR Euro
ENCODING 8364
SWIDTH 622 0
DWIDTH 17 0
BBX 18 21 1 0
BITMAP
000000000017CEEA20
0000000005EFFB9FD1
000000009FFC200BF6
0000000AFFB1000DF9
0000008FFD10007FF9
000004FFF30005FFF4
00000DFF80003FFFB0
00007FFE10001DFD10
0000DFF80000014100
02CFFFFFFFFB000000
016DFFB88630000000
000EFF500000000000
001FFF200000000000
3DFFFFFFFF90000000
16AFFE886300000000
005FFE000000000000
003FFF100000000000
000EFF400000940000
0008FFB0003CF80000
0000BFFC9BFFE30000
000006CEFEB6100000
ENDCHAR
STARTCHAR trademark
ENCODING 8482
SWIDTH 1084 0
DWIDTH 30 0
BBX 24 12 4 10
BITMAP
002343200000001310000230
1BFFFFFFEDD606EF9001AFF4
5FFEEFFFFFB24FFF900AFFF4
01009FB00000DEEF705FBFF1
0002FF500005F7FF40DD8FD0
0008FE00000DE3FF26F5BFB0
000DF800006F84FF0DC0EF80
003FF40000DF26FD6F41FF60
006FF10006FA06FDEB03FF50
007FE0001EF206FFF404FF50
005FF300BF7003FFA003FF80
000AEB05E80000AD10009EB0
ENDCHAR
STARTCHAR Omega
ENCODING 8486
SWIDTH 839 0
DWIDTH 24 0
BBX 22 22 1 0
BITMAP
0000000003432000000000
0000004AFFFFFD82000000
00002BFFD867AEFF700000
0003EFF7000002BFFA0000
001DFF600000000BFF9000
00AFFA0000000001EFF400
02FFF200000000008FFB00
08FFC000000000003FFF20
0CFF9000000000000EFF60
0EFF7000000000000DFF80
0EFF7000000000000CFF90
0DFF8000000000000DFF80
0BFFA000000000000FFF60
07FFE000000000004FFF20
02FFF400000000009FFB00
009FFA0000000001EFF400
001DFF3000000008FF9000
0003FFB00000002FFC0000
03004EF6000000CFB10030
7FA403EE300008FB116DF2
8FFFFDEFD1006FFDDFFFF3
2CFFFFFFF500BFFFFFFE80
ENDCHAR
STARTCHAR partialdiff
ENCODING 8706
SWIDTH 580 0
DWIDTH 16 0
BBX 16 24 0 -1
BITMAP
00000000049A8200
00000001CFFFFF50
0000000CFF715FF2
0000004FFA000BF8
0000004FF50008FC
00000008B20007FE
00000000000007FF
00000027BCA509FF
000008FFFFFF9CFE
0000AFFF7119FFFC
000AFFF40001FFF9
004FFF700000EFF6
00DFFC000004FFF2
06FFF400000AFFC0
0BFFC000001FFF60
0FFF7000007FFE10
2FFF300001EFF800
3FFE000009FFE100
3FFD00003FFF5000
1FFC0001DFF90000
0BFE102CFFA00000
03FFDBEFF8000000
004DFFE930000000
0000110000000000
ENDCHAR
STARTCHAR Delta
ENCODING 8710
SWIDTH 663 0
DWIDTH 19 0
BBX 18 17 0 0
BITMAP
0000000019A0000000
00000000BFF5000000
00000005FFFC000000
0000000DFBFF400000
0000006F92FFB00000
000001EE20AFF30000
000008F8004FFA0000
00001EE1000CFF2000
00009F700005FF9000
0002FD000000DFF100
000AF60000006FF800
003FC00000001EFE10
00CF4000000007FF70
05FB0000000001EFD0
0DF300000000009FF6
6FE888888888889FFB
8FFFFFFFFFFFFFFFD3
ENDCHAR
STARTCHAR product
ENCODING 8719
SWIDTH 667 0
DWIDTH 19 0
BBX 15 25 2 -3
BITMAP
0024444444444410
1AFFFFFFFFFFFF90
BFF533333337FFA0
DFF300000006FFA0
DFF300000006FFA0
DFF300000006FFA0
DFF300000006FFA0
DFF300000006FFA0
DFF300000006FFA0
DFF300000006FFA0
DFF300000006FFA0
DFF300000006FFA0
DFF300000006FFA0
DFF300000006FFA0
DFF300000006FFA0
DFF300000006FFA0
DFF300000006FFA0
DFF300000006FFA0
DFF300000006FFA0
DFF300000006FFA0
DFF300000006FFA0
DFF300000006FFA0
DFF300000006FFA0
DFC000000006FF50
3400000000015200
ENDCHAR
STARTCHAR summation
ENCODING 8721
SWIDTH 677 0
DWIDTH 19 0
BBX 17 25 1 -3
BITMAP
000344444444444300
00AFFFFFFFFFFFFF50
06FFF9888888876400
04FFFA000000000000
00BFFF500000000000
002FFFE10000000000
0007FFFB0000000000
0000CFFF6000000000
00002EFFE200000000
000006FFFC00000000
000000AFFF70000000
0000001DFFF1000000
00000004FFE0000000
00000008FF50000000
0000006FF800000000
000004FFB000000000
00002EFD1000000000
0001DFE20000000000
000BFF400000000000
009FF7000000000000
06FF90000000000000
4FFC00000000000000
DFFFFFFFFFFFFFE500
EFFFFFFFFFFFFFF400
499999999999983000
ENDCHAR
STARTCHAR minus
ENCODING 8722
SWIDTH 617 0
DWIDTH 17 0
BBX 15 3 1 9
BITMAP
0144444444444410
2EFFFFFFFFFFFF80
1ABBBBBBBBBBB910
ENDCHAR
STARTCHAR radical
ENCODING 8730
SWIDTH 709 0
DWIDTH 20 0
BBX 23 28 0 -1
BITMAP
000000000000000000004800
00000000000000000001EF10
00000000000000000008FF10
0000000000000000001EFD00
0000000000000000008FF900
000000000000000001EFF200
000000000000000008FF9000
00000000000000001FFE1000
00000000000000009FF70000
0000000000000002FFD00000
0000000000000009FF400000
000000000000002FFB000000
000000000000009FF3000000
0003BA40000002FF90000000
002DFFF1000009FE10000000
01DFFFF300002FF700000000
1DFBAFF600009FD000000000
06305FF90002FF4000000000
00002FFC000AFB0000000000
00000DFE002FF20000000000
00000AFF20AF900000000000
000007FF53FE100000000000
000003FF8AF6000000000000
000000EFDFD0000000000000
000000BFFF40000000000000
0000008FFB00000000000000
0000003FE200000000000000
000000011000000000000000
ENDCHAR
STARTCHAR infinity
ENCODING 8734
SWIDTH 681 0
DWIDTH 19 0
BBX 18 9 1 6
BITMAP
000475100002674000
01BFFFE501AFFFFB10
0BFFEDFF7DFFFCDF90
3FF8004EFFFC201FE0
7FB0000CFFD1000EF1
7F8000AFFF50006FE0
4FD35CFFEEF759FFA0
0AFFFFFE45FFFFFD20
007DED81003AEEA200
ENDCHAR
STARTCHAR integral
ENCODING 8747
SWIDTH 583 0
DWIDTH 16 0
BBX 23 33 -3 -6
BITMAP
000000000000000000352000
00000000000000003CFFF700
0000000000000003EFF9BF20
000000000000001DFF404F70
000000000000008FF7009F90
00000000000002FFD005FF80
00000000000009FF603EFF20
0000000000001EFE103FF800
0000000000006FF900024000
000000000000CFF400000000
000000000002FFE000000000
000000000007FF9000000000
00000000000CFF4000000000
00000000002FFE0000000000
00000000006FFB0000000000
0000000000AFF60000000000
0000000000EFF20000000000
0000000004FFC00000000000
0000000009FF800000000000
000000000DFF300000000000
000000002FFE000000000000
000000007FF9000000000000
00000000BFF5000000000000
00000001FFE0000000000000
00010006FF90000000000000
02DF600CFF30000000000000
0BFFB03FFC00000000000000
3FFC10AFF400000000000000
5FE104FFC000000000000000
3F801DFF3000000000000000
0DC7DFF60000000000000000
05FFFF600000000000000000
002661000000000000000000
ENDCHAR
STARTCHAR approxequal
ENCODING 8776
SWIDTH 671 0
DWIDTH 19 0
BBX 17 13 1 3
BITMAP
000029CB6000000540
0007FFFFFA00002E80
007FFCEFFFA001BF30
02FE301CFFFC9DF900
07F40001CFFFFFA000
0590000019EFC50000
000014300000000000
0008EFFD4000009A00
01CFFFFFF50004F800
0AFC57FFFF515EF200
2FC0004FFFFFFF6000
6F200005EFFFE50000
130000001786100000
ENDCHAR
STARTCHAR notequal
ENCODING 8800
SWIDTH 617 0
DWIDTH 17 0
BBX 15 19 2 1
BITMAP
0000000000015100
00000000004EF200
0000000002EF7000
000000000BFC0000
000000005FF30000
01222222EF922100
6FFFFFFFFFFFFF10
7DDDDDEFFDDDD800
000000CFB0000000
000006FF20000000
00001EF800000000
39AACFFAAAAAA700
DFFFFFFFFFFFFB00
355EFB5555555000
007FE20000000000
02EF600000000000
0AFB000000000000
5FD1000000000000
4710000000000000
ENDCHAR
STARTCHAR lessequal
ENCODING 8804
SWIDTH 704 0
DWIDTH 20 0
BBX 15 19 1 0
BITMAP
0000000000001840
000000000007EF70
0000000005DFF900
00000004CFFB3000
000003BFFD500000
00029FFE81000000
018EFFA200000000
3EFFC40000000000
2DFFD50000000000
007EFFB300000000
00018FFF91000000
000002AFFE600000
00000003CFFD4000
0000000005DFFA20
000000000006EF60
0000000000000300
0000000000000000
0AFFFFFFFFFFFF90
1EFFFFFFFFFFFE50
ENDCHAR
STARTCHAR greaterequal
ENCODING 8805
SWIDTH 617 0
DWIDTH 17 0
BBX 15 19 1 0
BITMAP
0992000000000000
2EFF810000000000
019FFE6000000000
0003CFFD50000000
000005DFFC300000
00000018FFFA2000
000000002AFFF810
00000000006FFFA0
0000000018FFFA10
00000006EFFB3000
000003CFFC400000
0002AFFE60000000
007EFE7100000000
0CFF910000000000
3FB2000000000000
0200000000000000
0000000000000000
2CFFFFFFFFFFFF50
4EFFFFFFFFFFFD20
ENDCHAR
STARTCHAR lozenge
ENCODING 9674
SWIDTH 580 0
DWIDTH 16 0
BBX 14 23 1 -1
BITMAP
00000022000000
000002EF200000
00000AFFB00000
00004FFFF50000
0000DF8BFD1000
0007FD03FF8000
002EF4009FF200
00AFA0001EFB00
04FE200006FF50
0DF7000000CFD1
6FC00000003FF7
AFA000000009FB
5FF40000000CF6
0CFC0000007FC0
03FF600002EF40
009FE1000BFA00
001EF8005FE100
0006FF21EF7000
0000CFB9FC0000
00003FFFF40000
000009FFA00000
000001EE200000
00000011000000
ENDCHAR
STARTCHAR commaaccent
ENCODING 63171
SWIDTH 250 0
DWIDTH 7 0
BBX 5 7 1 -8
BITMAP
039910
0DFF80
06FF70
05FF20
1DF600
AE5000
210000
ENDCHAR
STARTCHAR ff
ENCODING 64256
SWIDTH 773 0
DWIDTH 22 0
BBX 27 27 -1 -4
BITMAP
0000000000168620000003785000
0000000005EFFFE400008FFFFC10
000000003FFB1AFC0007FF61EF70
00000000CFE108FF002EFA00DFA0
00000004FF801EFE008FF305FF90
0000000AFF30CFF900EFD03EFF50
0000001FFD00CFD204FF802FFA00
0000005FF800141009FF30023000
0000009FF40000000DFE00000000
000000DFE00000002FFA00000000
000003FFA00011227FF721000000
000029FFDDEFFFFFFFFFFFB10000
005DFFFFFFFFFFFFFFFFFFF40000
00EFDFFC54321107FF6000000000
00007FF70000000BFF2000000000
0000BFF30000001FFD0000000000
0001FFD00000006FF80000000000
0005FF90000000AFF40000000000
000AFF50000001EFE00000000000
000EFF10000005FFA00000000000
005FFA0000000AFF600000000000
00AFF50000001EFF100000000000
01FFE10000005FFA000000000000
06FF90000000BFF5000000000000
0DFF30000003FFD0000000000000
5FFB0000000AFF60000000000000
6FC20000000BFA00000000000000
ENDCHAR
STARTCHAR fi
ENCODING 64257
SWIDTH 623 0
DWIDTH 17 0
BBX 20 27 -1 -4
BITMAP
0000000000029DFEB300
00000000006FFE9AFF40
0000000007FF9100AFC0
000000004FFA00008FF1
00000000DFE10000BFF2
00000006FF700003FFF1
0000000DFE10000DFF90
0000005FF9000006EC10
000000AFF40000000000
000001FFE79BDEEFD400
00005BFFFFFFFFFFF800
003DFFFFC96433BFF500
00CFEFFE000000BFF100
00344FFA000001FFB000
00009FF5000006FF5000
0000DFF100000DFD0000
0003FFB000004FF70000
0007FF600000AFF10000
000CFF200001FFB00000
002FFC000005FF700000
007FF7000007FF821000
00CFF2000005FFFF8000
03FFB00000009EE91000
09FF5000000000000000
2FFD0000000000000000
8FF60000000000000000
27400000000000000000
ENDCHAR
STARTCHAR fl
ENCODING 64258
SWIDTH 637 0
DWIDTH 18 0
BBX 20 27 -1 -4
BITMAP
000000000004AEFEC710
00000000009FFE9AFFC1
0000000009FFA1008FF5
000000005FFB00005FF7
00000001EFE100006FF6
00000007FF7000009FF3
0000000EFE100000CFE0
0000005FF8000002FFB0
000000BFF2000007FF60
000001FFC000000CFF20
000006FFEEEA102FFC00
00028EFFFFFF907FF700
004FFFFFEDDD60DFF200
003BAFFA000003FFB000
00008FF6000008FF6000
0000DFF200000DFF1000
0002FFC000004FFB0000
0007FF8000009FF60000
000CFF300000DFF20000
002FFD000000FFD00000
007FF8000000FFE47300
00DFF2000000CFFFE200
04FFB00000003CFB3000
0AFF5000000000000000
3FFD0000000000000000
9FF50000000000000000
37300000000000000000
ENDCHAR
STARTCHAR .notdef
ENCODING -1
SWIDTH 896 0
DWIDTH 25 0
BBX 27 26 1 -1
BITMAP
000000018AAAAAAAAAAAAAAAA810
0000000CFFFFFFFFFFFFFFFFFF70
0000004FFFFFFFFFFFFFFFFFFF60
000000AFFFFFFFFFFFFFFFFFFF10
000000EFFFFFFFFFFFFFFFFFFC00
000004FFFFFFFFFFFFFFFFFFF800
000009FFFFD32FFFFA204FFFF300
00000DFFFF202FFF6002BFFFE000
00003FFFFC002FF5006FFFFFA000
00007FFFFC001F7009FFFFFF5000
0000CFFFFE000A00AFFFFFFF1000
0001FFFFFF10010AFFFFFFFC0000
0005FFFFFF50009FFFFFFFF70000
000AFFFFFFA002FFFFFFFFF30000
000EFFFFFF8000DFFFFFFFE00000
003FFFFFFB00008FFFFFFF900000
008FFFFFC107002FFFFFFF500000
00CFFFFB107F3006C8DFFF100000
01FFFFA005FFB00000DFFB000000
06FFFF306FFFF9001AFFF7000000
0AFFFFEDFFFFFFECEFFFF2000000
0EFFFFFFFFFFFFFFFFFFC0000000
4FFFFFFFFFFFFFFFFFFF70000000
6FFFFFFFFFFFFFFFFFFF20000000
2EFFFFFFFFFFFFFFFFF600000000
0134444444444444441000000000
ENDCHAR
ENDFONT
